<mxfile host="Electron" agent="Mozilla/5.0 (X11; Linux x86_64) AppleWebKit/537.36 (KHTML, like Gecko) draw.io/26.0.4 Chrome/128.0.6613.186 Electron/32.2.5 Safari/537.36" version="26.0.4">
  <diagram name="Page-1" id="Stb40vbYp8Qb2pG82n0d">
    <mxGraphModel dx="1419" dy="907" grid="1" gridSize="10" guides="1" tooltips="1" connect="1" arrows="1" fold="1" page="1" pageScale="1" pageWidth="2336" pageHeight="1654" math="0" shadow="0">
      <root>
        <mxCell id="0" />
        <mxCell id="1" parent="0" />
        <mxCell id="SsztyFnTNsgpoEfSHxMF-98" value="" style="endArrow=none;dashed=1;html=1;dashPattern=1 4;strokeWidth=1;rounded=0;movable=1;resizable=1;rotatable=1;deletable=1;editable=1;locked=0;connectable=1;" parent="1" edge="1">
          <mxGeometry width="50" height="50" relative="1" as="geometry">
            <mxPoint x="1809.44" y="245" as="sourcePoint" />
            <mxPoint x="1809.44" y="55" as="targetPoint" />
          </mxGeometry>
        </mxCell>
        <mxCell id="SsztyFnTNsgpoEfSHxMF-99" value="" style="endArrow=none;dashed=1;html=1;dashPattern=1 4;strokeWidth=1;rounded=0;movable=1;resizable=1;rotatable=1;deletable=1;editable=1;locked=0;connectable=1;" parent="1" edge="1">
          <mxGeometry width="50" height="50" relative="1" as="geometry">
            <mxPoint x="1890.55" y="245" as="sourcePoint" />
            <mxPoint x="1890.55" y="55" as="targetPoint" />
          </mxGeometry>
        </mxCell>
        <mxCell id="SsztyFnTNsgpoEfSHxMF-100" value="" style="endArrow=none;dashed=1;html=1;dashPattern=1 4;strokeWidth=1;rounded=0;movable=1;resizable=1;rotatable=1;deletable=1;editable=1;locked=0;connectable=1;" parent="1" edge="1">
          <mxGeometry width="50" height="50" relative="1" as="geometry">
            <mxPoint x="1969.44" y="245" as="sourcePoint" />
            <mxPoint x="1969.44" y="55" as="targetPoint" />
          </mxGeometry>
        </mxCell>
        <mxCell id="SsztyFnTNsgpoEfSHxMF-97" value="" style="endArrow=none;dashed=1;html=1;dashPattern=1 4;strokeWidth=1;rounded=0;movable=1;resizable=1;rotatable=1;deletable=1;editable=1;locked=0;connectable=1;" parent="1" edge="1">
          <mxGeometry width="50" height="50" relative="1" as="geometry">
            <mxPoint x="1729.44" y="245" as="sourcePoint" />
            <mxPoint x="1729.44" y="55" as="targetPoint" />
          </mxGeometry>
        </mxCell>
        <mxCell id="ZOBluejfILaTQV-WrF1j-6" style="edgeStyle=orthogonalEdgeStyle;rounded=0;orthogonalLoop=1;jettySize=auto;html=1;exitX=0.5;exitY=1;exitDx=0;exitDy=0;entryX=0.5;entryY=0;entryDx=0;entryDy=0;" parent="1" source="ZOBluejfILaTQV-WrF1j-1" target="ZOBluejfILaTQV-WrF1j-5" edge="1">
          <mxGeometry relative="1" as="geometry" />
        </mxCell>
        <mxCell id="ZOBluejfILaTQV-WrF1j-1" value="Existing Features Pool" style="whiteSpace=wrap;html=1;aspect=fixed;fontStyle=1" parent="1" vertex="1">
          <mxGeometry x="400" y="250" width="80" height="80" as="geometry" />
        </mxCell>
        <mxCell id="ZOBluejfILaTQV-WrF1j-13" style="edgeStyle=orthogonalEdgeStyle;rounded=0;orthogonalLoop=1;jettySize=auto;html=1;exitX=0.5;exitY=0.5;exitDx=0;exitDy=0;exitPerimeter=0;entryX=0.5;entryY=1;entryDx=0;entryDy=0;" parent="1" source="ZOBluejfILaTQV-WrF1j-2" target="ZOBluejfILaTQV-WrF1j-12" edge="1">
          <mxGeometry relative="1" as="geometry" />
        </mxCell>
        <mxCell id="ZOBluejfILaTQV-WrF1j-2" value="Cient" style="shape=umlActor;verticalLabelPosition=bottom;verticalAlign=top;html=1;outlineConnect=0;" parent="1" vertex="1">
          <mxGeometry x="425" y="500" width="30" height="60" as="geometry" />
        </mxCell>
        <mxCell id="ZOBluejfILaTQV-WrF1j-7" style="edgeStyle=orthogonalEdgeStyle;rounded=0;orthogonalLoop=1;jettySize=auto;html=1;exitX=0.5;exitY=1;exitDx=0;exitDy=0;" parent="1" source="ZOBluejfILaTQV-WrF1j-5" target="ZOBluejfILaTQV-WrF1j-2" edge="1">
          <mxGeometry relative="1" as="geometry" />
        </mxCell>
        <mxCell id="ZOBluejfILaTQV-WrF1j-5" value="Cost of Onboarding a new client" style="ellipse;whiteSpace=wrap;html=1;fillColor=#a20025;fontColor=#ffffff;strokeColor=#6F0000;" parent="1" vertex="1">
          <mxGeometry x="380" y="370" width="120" height="80" as="geometry" />
        </mxCell>
        <mxCell id="ZOBluejfILaTQV-WrF1j-11" style="edgeStyle=orthogonalEdgeStyle;rounded=0;orthogonalLoop=1;jettySize=auto;html=1;exitX=1;exitY=0.5;exitDx=0;exitDy=0;entryX=0.5;entryY=0;entryDx=0;entryDy=0;" parent="1" source="ZOBluejfILaTQV-WrF1j-8" target="ZOBluejfILaTQV-WrF1j-1" edge="1">
          <mxGeometry relative="1" as="geometry" />
        </mxCell>
        <mxCell id="ZOBluejfILaTQV-WrF1j-8" value="Cost of Adding A new Feature" style="ellipse;whiteSpace=wrap;html=1;fillColor=#a20025;fontColor=#ffffff;strokeColor=#6F0000;" parent="1" vertex="1">
          <mxGeometry x="260" y="90" width="120" height="80" as="geometry" />
        </mxCell>
        <mxCell id="ZOBluejfILaTQV-WrF1j-10" value="" style="edgeStyle=orthogonalEdgeStyle;rounded=0;orthogonalLoop=1;jettySize=auto;html=1;" parent="1" source="ZOBluejfILaTQV-WrF1j-9" target="ZOBluejfILaTQV-WrF1j-8" edge="1">
          <mxGeometry relative="1" as="geometry" />
        </mxCell>
        <mxCell id="ZOBluejfILaTQV-WrF1j-9" value="Custom Client Requirements" style="shape=umlActor;verticalLabelPosition=bottom;verticalAlign=top;html=1;outlineConnect=0;" parent="1" vertex="1">
          <mxGeometry x="110" y="100" width="30" height="60" as="geometry" />
        </mxCell>
        <mxCell id="ZOBluejfILaTQV-WrF1j-14" style="edgeStyle=orthogonalEdgeStyle;rounded=0;orthogonalLoop=1;jettySize=auto;html=1;exitX=0.5;exitY=0;exitDx=0;exitDy=0;" parent="1" source="ZOBluejfILaTQV-WrF1j-12" target="ZOBluejfILaTQV-WrF1j-1" edge="1">
          <mxGeometry relative="1" as="geometry" />
        </mxCell>
        <mxCell id="ZOBluejfILaTQV-WrF1j-12" value="Cost of Support and Bug Fixing" style="ellipse;whiteSpace=wrap;html=1;fillColor=#a20025;fontColor=#ffffff;strokeColor=#6F0000;" parent="1" vertex="1">
          <mxGeometry x="670" y="310" width="120" height="80" as="geometry" />
        </mxCell>
        <mxCell id="ZOBluejfILaTQV-WrF1j-16" value="&lt;h1 style=&quot;margin-top: 0px;&quot;&gt;Business Model&lt;/h1&gt;&lt;p&gt;Minimize:&lt;/p&gt;&lt;p&gt;1.&amp;nbsp;&lt;span style=&quot;text-align: center; background-color: transparent;&quot;&gt;Cost of Adding a new Feature&lt;/span&gt;&lt;/p&gt;&lt;p&gt;&lt;span style=&quot;text-align: center; background-color: transparent;&quot;&gt;2. Cost of Onboarding a new client&lt;/span&gt;&lt;/p&gt;&lt;p&gt;&lt;span style=&quot;text-align: center; background-color: transparent;&quot;&gt;3. Cost of Support and Bug Fixing&lt;/span&gt;&lt;/p&gt;" style="text;html=1;whiteSpace=wrap;overflow=hidden;rounded=0;fontColor=#000000;fillColor=default;" parent="1" vertex="1">
          <mxGeometry x="60" y="270" width="240" height="160" as="geometry" />
        </mxCell>
        <mxCell id="SsztyFnTNsgpoEfSHxMF-1" value="" style="shape=flexArrow;endArrow=classic;html=1;rounded=0;exitX=0;exitY=1;exitDx=0;exitDy=0;" parent="1" source="ZOBluejfILaTQV-WrF1j-5" target="SsztyFnTNsgpoEfSHxMF-2" edge="1">
          <mxGeometry width="50" height="50" relative="1" as="geometry">
            <mxPoint x="395" y="430" as="sourcePoint" />
            <mxPoint x="340" y="490" as="targetPoint" />
          </mxGeometry>
        </mxCell>
        <mxCell id="SsztyFnTNsgpoEfSHxMF-2" value="Cost Minimization Plan" style="swimlane;fontStyle=0;childLayout=stackLayout;horizontal=1;startSize=30;horizontalStack=0;resizeParent=1;resizeParentMax=0;resizeLast=0;collapsible=1;marginBottom=0;whiteSpace=wrap;html=1;" parent="1" vertex="1">
          <mxGeometry x="80" y="670" width="200" height="120" as="geometry" />
        </mxCell>
        <mxCell id="SsztyFnTNsgpoEfSHxMF-3" value="Stencils for services (Product)" style="text;strokeColor=#666666;fillColor=#f5f5f5;align=left;verticalAlign=middle;spacingLeft=4;spacingRight=4;overflow=hidden;points=[[0,0.5],[1,0.5]];portConstraint=eastwest;rotatable=0;whiteSpace=wrap;html=1;fontColor=#333333;" parent="SsztyFnTNsgpoEfSHxMF-2" vertex="1">
          <mxGeometry y="30" width="200" height="30" as="geometry" />
        </mxCell>
        <mxCell id="SsztyFnTNsgpoEfSHxMF-4" value="Online sales (Product)" style="text;strokeColor=#6c8ebf;fillColor=#dae8fc;align=left;verticalAlign=middle;spacingLeft=4;spacingRight=4;overflow=hidden;points=[[0,0.5],[1,0.5]];portConstraint=eastwest;rotatable=0;whiteSpace=wrap;html=1;" parent="SsztyFnTNsgpoEfSHxMF-2" vertex="1">
          <mxGeometry y="60" width="200" height="30" as="geometry" />
        </mxCell>
        <mxCell id="SsztyFnTNsgpoEfSHxMF-37" value="Services subsidiries" style="text;strokeColor=#0e8088;fillColor=#b0e3e6;align=left;verticalAlign=middle;spacingLeft=4;spacingRight=4;overflow=hidden;points=[[0,0.5],[1,0.5]];portConstraint=eastwest;rotatable=0;whiteSpace=wrap;html=1;" parent="SsztyFnTNsgpoEfSHxMF-2" vertex="1">
          <mxGeometry y="90" width="200" height="30" as="geometry" />
        </mxCell>
        <mxCell id="SsztyFnTNsgpoEfSHxMF-6" value="" style="endArrow=classic;html=1;rounded=0;exitX=1;exitY=0.5;exitDx=0;exitDy=0;entryX=-0.001;entryY=0.135;entryDx=0;entryDy=0;entryPerimeter=0;" parent="1" source="SsztyFnTNsgpoEfSHxMF-3" target="SsztyFnTNsgpoEfSHxMF-7" edge="1">
          <mxGeometry width="50" height="50" relative="1" as="geometry">
            <mxPoint x="260" y="620" as="sourcePoint" />
            <mxPoint x="380" y="715" as="targetPoint" />
          </mxGeometry>
        </mxCell>
        <mxCell id="SsztyFnTNsgpoEfSHxMF-7" value="Planned Stencils (Stencil: complete SaaS offering with mission design, SDK, and recommended avionics bespoke to the stencil)" style="swimlane;fontStyle=0;childLayout=stackLayout;horizontal=1;startSize=30;horizontalStack=0;resizeParent=1;resizeParentMax=0;resizeLast=0;collapsible=1;marginBottom=0;whiteSpace=wrap;html=1;" parent="1" vertex="1">
          <mxGeometry x="435" y="650" width="715" height="230" as="geometry" />
        </mxCell>
        <mxCell id="SsztyFnTNsgpoEfSHxMF-8" value="Workshop and Educational use drones (Q2 2025) (Workshop Level 3 and 4 Offering)&lt;br&gt;Motivation: technology-readiness, marketing-marketing-marketing, building partnership network, soft-launch SaaS to satisfy KUEC, high volumes potential, strong potential in GCC (e.g. RIT, Aysha, Dr. Fahad&#39;s brother, Sandooq Watan)" style="text;strokeColor=#666666;fillColor=#f5f5f5;align=left;verticalAlign=middle;spacingLeft=4;spacingRight=4;overflow=hidden;points=[[0,0.5],[1,0.5]];portConstraint=eastwest;rotatable=0;whiteSpace=wrap;html=1;fontColor=#333333;" parent="SsztyFnTNsgpoEfSHxMF-7" vertex="1">
          <mxGeometry y="30" width="715" height="60" as="geometry" />
        </mxCell>
        <mxCell id="SsztyFnTNsgpoEfSHxMF-10" value="Manual Inspection and AI based real-time detection/tracking (Q4 2025 - conditional with ENEC subsequent project)&lt;br&gt;Motivation: ENEC, MLG, AD Police, B2B. &lt;br&gt;Demotivation: competition with big players. Address by: ease-of-use, great SDK." style="text;strokeColor=#d6b656;fillColor=#fff2cc;align=left;verticalAlign=middle;spacingLeft=4;spacingRight=4;overflow=hidden;points=[[0,0.5],[1,0.5]];portConstraint=eastwest;rotatable=0;whiteSpace=wrap;html=1;" parent="SsztyFnTNsgpoEfSHxMF-7" vertex="1">
          <mxGeometry y="90" width="715" height="60" as="geometry" />
        </mxCell>
        <mxCell id="SsztyFnTNsgpoEfSHxMF-9" value="Delivery Drones with BVLOS operation and Precision Takeoff/Landing (Q1 2026&amp;nbsp;&amp;nbsp;- conditional with ENEC subsequent project)&lt;br&gt;Motivation: DFL, B2B.&amp;nbsp;" style="text;strokeColor=#6c8ebf;fillColor=#dae8fc;align=left;verticalAlign=middle;spacingLeft=4;spacingRight=4;overflow=hidden;points=[[0,0.5],[1,0.5]];portConstraint=eastwest;rotatable=0;whiteSpace=wrap;html=1;" parent="SsztyFnTNsgpoEfSHxMF-7" vertex="1">
          <mxGeometry y="150" width="715" height="40" as="geometry" />
        </mxCell>
        <mxCell id="SsztyFnTNsgpoEfSHxMF-23" value="Agricultural Large Drones (Q3 2026)&lt;br&gt;Motivation: EANAN, B2B." style="text;strokeColor=#82b366;fillColor=#d5e8d4;align=left;verticalAlign=middle;spacingLeft=4;spacingRight=4;overflow=hidden;points=[[0,0.5],[1,0.5]];portConstraint=eastwest;rotatable=0;whiteSpace=wrap;html=1;" parent="SsztyFnTNsgpoEfSHxMF-7" vertex="1">
          <mxGeometry y="190" width="715" height="40" as="geometry" />
        </mxCell>
        <mxCell id="SsztyFnTNsgpoEfSHxMF-11" value="" style="endArrow=classic;html=1;rounded=0;exitX=1;exitY=0.5;exitDx=0;exitDy=0;entryX=-0.001;entryY=0.138;entryDx=0;entryDy=0;entryPerimeter=0;" parent="1" source="SsztyFnTNsgpoEfSHxMF-4" target="SsztyFnTNsgpoEfSHxMF-12" edge="1">
          <mxGeometry width="50" height="50" relative="1" as="geometry">
            <mxPoint x="290" y="725" as="sourcePoint" />
            <mxPoint x="410" y="830" as="targetPoint" />
          </mxGeometry>
        </mxCell>
        <mxCell id="SsztyFnTNsgpoEfSHxMF-12" value="Planned Online Sales (Green)&amp;nbsp;&lt;span style=&quot;text-align: left;&quot;&gt;- Your drone -&amp;gt; standard avionics -&amp;gt; get flying&lt;/span&gt;" style="swimlane;fontStyle=0;childLayout=stackLayout;horizontal=1;startSize=30;horizontalStack=0;resizeParent=1;resizeParentMax=0;resizeLast=0;collapsible=1;marginBottom=0;whiteSpace=wrap;html=1;" parent="1" vertex="1">
          <mxGeometry x="435" y="900" width="715" height="180" as="geometry" />
        </mxCell>
        <mxCell id="SsztyFnTNsgpoEfSHxMF-13" value="Indoors learning and flying of drones with SDK (KU community soft-launch) (Q3 2025)" style="text;strokeColor=#666666;fillColor=#f5f5f5;align=left;verticalAlign=middle;spacingLeft=4;spacingRight=4;overflow=hidden;points=[[0,0.5],[1,0.5]];portConstraint=eastwest;rotatable=0;whiteSpace=wrap;html=1;fontColor=#333333;" parent="SsztyFnTNsgpoEfSHxMF-12" vertex="1">
          <mxGeometry y="30" width="715" height="30" as="geometry" />
        </mxCell>
        <mxCell id="SsztyFnTNsgpoEfSHxMF-14" value="Indoors learning, outdoors flight - full QGC features support, full EKF support with sensors fail-safe (Q4 2025)" style="text;strokeColor=#d6b656;fillColor=#fff2cc;align=left;verticalAlign=middle;spacingLeft=4;spacingRight=4;overflow=hidden;points=[[0,0.5],[1,0.5]];portConstraint=eastwest;rotatable=0;whiteSpace=wrap;html=1;" parent="SsztyFnTNsgpoEfSHxMF-12" vertex="1">
          <mxGeometry y="60" width="715" height="30" as="geometry" />
        </mxCell>
        <mxCell id="SsztyFnTNsgpoEfSHxMF-15" value="Outdoors learning (Q1 2026)" style="text;strokeColor=#6c8ebf;fillColor=#dae8fc;align=left;verticalAlign=middle;spacingLeft=4;spacingRight=4;overflow=hidden;points=[[0,0.5],[1,0.5]];portConstraint=eastwest;rotatable=0;whiteSpace=wrap;html=1;" parent="SsztyFnTNsgpoEfSHxMF-12" vertex="1">
          <mxGeometry y="90" width="715" height="30" as="geometry" />
        </mxCell>
        <mxCell id="SsztyFnTNsgpoEfSHxMF-22" value="Safety critical outdoors flight V1 (Q3 2026)" style="text;strokeColor=#9673a6;fillColor=#e1d5e7;align=left;verticalAlign=middle;spacingLeft=4;spacingRight=4;overflow=hidden;points=[[0,0.5],[1,0.5]];portConstraint=eastwest;rotatable=0;whiteSpace=wrap;html=1;" parent="SsztyFnTNsgpoEfSHxMF-12" vertex="1">
          <mxGeometry y="120" width="715" height="30" as="geometry" />
        </mxCell>
        <mxCell id="SsztyFnTNsgpoEfSHxMF-50" value="Outdoors learning for large drones (Q4 2026)&amp;nbsp;" style="text;strokeColor=#23445d;fillColor=#bac8d3;align=left;verticalAlign=middle;spacingLeft=4;spacingRight=4;overflow=hidden;points=[[0,0.5],[1,0.5]];portConstraint=eastwest;rotatable=0;whiteSpace=wrap;html=1;" parent="SsztyFnTNsgpoEfSHxMF-12" vertex="1">
          <mxGeometry y="150" width="715" height="30" as="geometry" />
        </mxCell>
        <mxCell id="SsztyFnTNsgpoEfSHxMF-16" value="" style="shape=flexArrow;endArrow=classic;html=1;rounded=0;exitX=0.96;exitY=0.264;exitDx=0;exitDy=0;exitPerimeter=0;entryX=-0.004;entryY=0.07;entryDx=0;entryDy=0;entryPerimeter=0;" parent="1" source="ZOBluejfILaTQV-WrF1j-8" target="SsztyFnTNsgpoEfSHxMF-17" edge="1">
          <mxGeometry width="50" height="50" relative="1" as="geometry">
            <mxPoint x="350" y="90" as="sourcePoint" />
            <mxPoint x="490" y="30" as="targetPoint" />
          </mxGeometry>
        </mxCell>
        <mxCell id="SsztyFnTNsgpoEfSHxMF-17" value="Cost Minimization Plan" style="swimlane;fontStyle=0;childLayout=stackLayout;horizontal=1;startSize=30;horizontalStack=0;resizeParent=1;resizeParentMax=0;resizeLast=0;collapsible=1;marginBottom=0;whiteSpace=wrap;html=1;" parent="1" vertex="1">
          <mxGeometry x="560" y="25" width="530" height="210" as="geometry" />
        </mxCell>
        <mxCell id="SsztyFnTNsgpoEfSHxMF-18" value="CI/CD pipeline (software) - Q3 2025" style="text;align=left;verticalAlign=middle;spacingLeft=4;spacingRight=4;overflow=hidden;points=[[0,0.5],[1,0.5]];portConstraint=eastwest;rotatable=0;whiteSpace=wrap;html=1;fillColor=#bac8d3;strokeColor=#23445d;" parent="SsztyFnTNsgpoEfSHxMF-17" vertex="1">
          <mxGeometry y="30" width="530" height="30" as="geometry" />
        </mxCell>
        <mxCell id="SsztyFnTNsgpoEfSHxMF-19" value="Realistic simulation (dynamics) - Q3 2025 (linked with DFL fail-safe)&amp;nbsp;" style="text;strokeColor=#6c8ebf;fillColor=#dae8fc;align=left;verticalAlign=middle;spacingLeft=4;spacingRight=4;overflow=hidden;points=[[0,0.5],[1,0.5]];portConstraint=eastwest;rotatable=0;whiteSpace=wrap;html=1;" parent="SsztyFnTNsgpoEfSHxMF-17" vertex="1">
          <mxGeometry y="60" width="530" height="30" as="geometry" />
        </mxCell>
        <mxCell id="SsztyFnTNsgpoEfSHxMF-20" value="CI realistic simulation (dynamics)&amp;nbsp;&amp;nbsp;- Q4 2025 (linked with DFL fail-safe)&amp;nbsp;" style="text;strokeColor=#82b366;fillColor=#d5e8d4;align=left;verticalAlign=middle;spacingLeft=4;spacingRight=4;overflow=hidden;points=[[0,0.5],[1,0.5]];portConstraint=eastwest;rotatable=0;whiteSpace=wrap;html=1;" parent="SsztyFnTNsgpoEfSHxMF-17" vertex="1">
          <mxGeometry y="90" width="530" height="30" as="geometry" />
        </mxCell>
        <mxCell id="SsztyFnTNsgpoEfSHxMF-32" value="SDK defined missions realistic simulation (dynamics) -&amp;nbsp;&lt;span style=&quot;color: rgb(0, 0, 0);&quot;&gt;Q1 2026 (linked with DFL fail-safe)&amp;nbsp;&lt;/span&gt;&amp;nbsp;" style="text;strokeColor=#666666;fillColor=#f5f5f5;align=left;verticalAlign=middle;spacingLeft=4;spacingRight=4;overflow=hidden;points=[[0,0.5],[1,0.5]];portConstraint=eastwest;rotatable=0;whiteSpace=wrap;html=1;fontColor=#333333;" parent="SsztyFnTNsgpoEfSHxMF-17" vertex="1">
          <mxGeometry y="120" width="530" height="30" as="geometry" />
        </mxCell>
        <mxCell id="SsztyFnTNsgpoEfSHxMF-30" value="Low-code mission designer" style="text;strokeColor=#b85450;fillColor=#f8cecc;align=left;verticalAlign=middle;spacingLeft=4;spacingRight=4;overflow=hidden;points=[[0,0.5],[1,0.5]];portConstraint=eastwest;rotatable=0;whiteSpace=wrap;html=1;" parent="SsztyFnTNsgpoEfSHxMF-17" vertex="1">
          <mxGeometry y="150" width="530" height="30" as="geometry" />
        </mxCell>
        <mxCell id="SsztyFnTNsgpoEfSHxMF-31" value="Low-code blocks editor" style="text;strokeColor=#d6b656;fillColor=#fff2cc;align=left;verticalAlign=middle;spacingLeft=4;spacingRight=4;overflow=hidden;points=[[0,0.5],[1,0.5]];portConstraint=eastwest;rotatable=0;whiteSpace=wrap;html=1;" parent="SsztyFnTNsgpoEfSHxMF-17" vertex="1">
          <mxGeometry y="180" width="530" height="30" as="geometry" />
        </mxCell>
        <mxCell id="SsztyFnTNsgpoEfSHxMF-24" value="" style="shape=flexArrow;endArrow=classic;html=1;rounded=0;entryX=-0.01;entryY=0.063;entryDx=0;entryDy=0;exitX=1;exitY=0.5;exitDx=0;exitDy=0;entryPerimeter=0;" parent="1" source="ZOBluejfILaTQV-WrF1j-12" target="SsztyFnTNsgpoEfSHxMF-25" edge="1">
          <mxGeometry width="50" height="50" relative="1" as="geometry">
            <mxPoint x="1285" y="185" as="sourcePoint" />
            <mxPoint x="1230" y="245" as="targetPoint" />
          </mxGeometry>
        </mxCell>
        <mxCell id="SsztyFnTNsgpoEfSHxMF-25" value="Cost Minimization Plan" style="swimlane;fontStyle=0;childLayout=stackLayout;horizontal=1;startSize=30;horizontalStack=0;resizeParent=1;resizeParentMax=0;resizeLast=0;collapsible=1;marginBottom=0;whiteSpace=wrap;html=1;" parent="1" vertex="1">
          <mxGeometry x="930" y="330" width="420" height="250" as="geometry" />
        </mxCell>
        <mxCell id="SsztyFnTNsgpoEfSHxMF-26" value="Integrate flight safety in the UX (Phase I)" style="text;strokeColor=#666666;fillColor=#f5f5f5;align=left;verticalAlign=middle;spacingLeft=4;spacingRight=4;overflow=hidden;points=[[0,0.5],[1,0.5]];portConstraint=eastwest;rotatable=0;whiteSpace=wrap;html=1;fontColor=#333333;" parent="SsztyFnTNsgpoEfSHxMF-25" vertex="1">
          <mxGeometry y="30" width="420" height="30" as="geometry" />
        </mxCell>
        <mxCell id="SsztyFnTNsgpoEfSHxMF-27" value="Use online channels for support&amp;nbsp;&lt;span style=&quot;color: rgb(51, 51, 51);&quot;&gt;(Phase I)&lt;/span&gt;" style="text;strokeColor=#6c8ebf;fillColor=#dae8fc;align=left;verticalAlign=middle;spacingLeft=4;spacingRight=4;overflow=hidden;points=[[0,0.5],[1,0.5]];portConstraint=eastwest;rotatable=0;whiteSpace=wrap;html=1;" parent="SsztyFnTNsgpoEfSHxMF-25" vertex="1">
          <mxGeometry y="60" width="420" height="30" as="geometry" />
        </mxCell>
        <mxCell id="SsztyFnTNsgpoEfSHxMF-29" value="Automated logging and reporting&amp;nbsp;&lt;span style=&quot;color: rgb(51, 51, 51);&quot;&gt;(Phase I)&lt;/span&gt;" style="text;strokeColor=#10739e;fillColor=#b1ddf0;align=left;verticalAlign=middle;spacingLeft=4;spacingRight=4;overflow=hidden;points=[[0,0.5],[1,0.5]];portConstraint=eastwest;rotatable=0;whiteSpace=wrap;html=1;" parent="SsztyFnTNsgpoEfSHxMF-25" vertex="1">
          <mxGeometry y="90" width="420" height="30" as="geometry" />
        </mxCell>
        <mxCell id="SsztyFnTNsgpoEfSHxMF-28" value="Use realistic simulators and automated tools for analysis (Phase II)" style="text;strokeColor=#56517e;fillColor=#d0cee2;align=left;verticalAlign=middle;spacingLeft=4;spacingRight=4;overflow=hidden;points=[[0,0.5],[1,0.5]];portConstraint=eastwest;rotatable=0;whiteSpace=wrap;html=1;" parent="SsztyFnTNsgpoEfSHxMF-25" vertex="1">
          <mxGeometry y="120" width="420" height="30" as="geometry" />
        </mxCell>
        <mxCell id="SsztyFnTNsgpoEfSHxMF-35" value="Open-source QGC, PX4, with clear SDK documentation (Phase II)" style="text;strokeColor=#23445d;fillColor=#bac8d3;align=left;verticalAlign=middle;spacingLeft=4;spacingRight=4;overflow=hidden;points=[[0,0.5],[1,0.5]];portConstraint=eastwest;rotatable=0;whiteSpace=wrap;html=1;" parent="SsztyFnTNsgpoEfSHxMF-25" vertex="1">
          <mxGeometry y="150" width="420" height="30" as="geometry" />
        </mxCell>
        <mxCell id="SsztyFnTNsgpoEfSHxMF-36" value="No support offered for the drone as a whole. Support for software provided by DroneLeaf. Support provided by hardware partners. Risk of loss of credibility: mitigate by careful pre-release testing and updates verification." style="text;strokeColor=#b46504;fillColor=#fad7ac;align=left;verticalAlign=middle;spacingLeft=4;spacingRight=4;overflow=hidden;points=[[0,0.5],[1,0.5]];portConstraint=eastwest;rotatable=0;whiteSpace=wrap;html=1;" parent="SsztyFnTNsgpoEfSHxMF-25" vertex="1">
          <mxGeometry y="180" width="420" height="70" as="geometry" />
        </mxCell>
        <mxCell id="SsztyFnTNsgpoEfSHxMF-34" value="&lt;h1 style=&quot;margin-top: 0px;&quot;&gt;Compared to the 2025 Milestones Plan&lt;/h1&gt;&lt;p&gt;Prioritize (2) &quot;Fund&quot; (3) &quot;Educational Workshop&quot;, (5) &quot;Marketing and Outreach&quot;, (7) &quot;Mass Product&quot;, (8) &quot;Team Satisfaction&quot;&lt;br&gt;Manage (1) &quot;Revenue&quot; by establishing streamlined revenue streams&lt;br&gt;Deprioritize (6) &quot;Two Pilot Projects&quot;&lt;br&gt;&lt;br&gt;Motivation:&lt;br&gt;- Pilot cost must be in the minimum zone we have with strong interest from clients.&lt;br&gt;- More focus should be given to marketing which includes releasing proven technology.&lt;br&gt;- Avoid wasted resources (working in out-of-expertise areas, incomplete delivery that would be repeated later)&lt;/p&gt;" style="text;html=1;whiteSpace=wrap;overflow=hidden;rounded=0;" parent="1" vertex="1">
          <mxGeometry x="15" y="1240" width="610" height="180" as="geometry" />
        </mxCell>
        <mxCell id="SsztyFnTNsgpoEfSHxMF-38" value="Planned Services Subsidiries" style="swimlane;fontStyle=0;childLayout=stackLayout;horizontal=1;startSize=30;horizontalStack=0;resizeParent=1;resizeParentMax=0;resizeLast=0;collapsible=1;marginBottom=0;whiteSpace=wrap;html=1;" parent="1" vertex="1">
          <mxGeometry x="435" y="1100" width="715" height="70" as="geometry" />
        </mxCell>
        <mxCell id="SsztyFnTNsgpoEfSHxMF-39" value="3D reconstruction of buildings and large infrastructure, periodic monitoring of microcracks, reporting and documentation. (commitement depends on ENEC)" style="text;strokeColor=#666666;fillColor=#f5f5f5;align=left;verticalAlign=middle;spacingLeft=4;spacingRight=4;overflow=hidden;points=[[0,0.5],[1,0.5]];portConstraint=eastwest;rotatable=0;whiteSpace=wrap;html=1;fontColor=#333333;" parent="SsztyFnTNsgpoEfSHxMF-38" vertex="1">
          <mxGeometry y="30" width="715" height="40" as="geometry" />
        </mxCell>
        <mxCell id="SsztyFnTNsgpoEfSHxMF-49" value="" style="endArrow=classic;html=1;rounded=0;" parent="1" edge="1">
          <mxGeometry width="50" height="50" relative="1" as="geometry">
            <mxPoint x="280" y="780" as="sourcePoint" />
            <mxPoint x="440" y="1110" as="targetPoint" />
          </mxGeometry>
        </mxCell>
        <mxCell id="SsztyFnTNsgpoEfSHxMF-56" value="" style="shape=image;verticalLabelPosition=bottom;labelBackgroundColor=default;verticalAlign=top;aspect=fixed;imageAspect=0;image=data:image/png,iVBORw0KGgoAAAANSUhEUgAAA7YAAAEOCAYAAAC9/IupAAAABHNCSVQICAgIfAhkiAAAIABJREFUeF7s3Q98U/W9P/5XU3qEBjSxktClRQPawLWxS4u0cGtxoV6wW4VbZZfhcAynF35Mtg4nY0MYimN4ZXyH8pXJ5CI6bndRfmK1wrVUrb3QOtpeljppFaK0HbfBmgqkltM2+T5OkpOcpOk/2kKrr+dWhTQ5/3M8r/P+fD4natJNUz0gIiIiIiIiGqFUI3S5iYiIiIiIiLwYbImIiIiIiGhEY7AlIiIiIiKiEY3BloiIiIiIiEY0BlsiIiIiIiIa0RhsiYiIiIiIaERjsCUiIiIiIqIRjcGWiIiIiIiIRrRRQ7b0ag30sULI5MXWFjhdYshrPVIJUGs1GKuM3x0taHL2YxpERERERET0lTZkwdY4fz1+l2cI2XjO4sew9NmakNe6k2hdiZ8vyUSiWvmOFlQ+uxYbix3KF4mIiIiIiOhrbMiC7UCoU5bi5w9kIjGk4CuivmgbtjLUEhERERERkYKyke/wMN6K/IfmhoVawGX7M/7t32vgGh5LSURERERERMPE8Aq2ghGLfr4UadqwrXO2BM9sKUS9O+x1IiIiIiIi+tobRsE2FhkPrMKCySHtj4G2Ouz9t10oP/+131dEREREREQUwbAJtvqch/Fjqy50Ed0tKH/2Kew7yVGQiYiIiIiIKLJhEWyFKYuxenEyQgZAhgj7q09ha1lL5CUnIiIiIiIiAobBqMjadKz4WS6MYS2Qncd2YfN/1KHvtVoBWuPNME81IuE6NQS0w/VFC5o+saHyw0ZEenyu2pCESdcpZnzRiVN1jXD1pS+voIHRlBB8xq7biVO2Rg5uRUREREREdJld2cf9qAyY95PlyIoLXWux8SC2bitBU18CJmJhvP1u3Js3G2mG2NAJydocqHyrAH8qKIO9TX4RwE25WP1Qekil2HlkG1ZtKYNT8bYuhGQ88Lt1yIkP/kY8vgvL5GCr0sD87TxkpyRAKzag/LUCFJ1oDb6ZiIiIiIiIBs0VbIocC/MPH8Yic1gYddVg71O7YOvLc31GGzFvzZP43UO53YdayWgd0nJX4rdPrkSWIoy6jhzCu2dDt6U2IxfZhtDXwqmnz8EsxXSAFpQfKvGHYQGm+9Zj7ZK5yLIkw5w+Fw+sfwKLkhSVYSIiIiIiIho0VyjYCkjM+QnycwwIiXtuB4q3P4UDp/uwfoIR836xHkumhQ04BRGus42oP+2AMywcC4ZMrHhkKcyj/dMXa3DwsD10ZiojZt+RFPpaCA1mWS0hVV40voeiv/gbTQs3I+f2sPUSDMi+4+bQdSUiIiIiIqJBcVmbImvT7sfvNomAVg/j+LBKLVph27MFOyv60mRXgGnByrBqr4imY/ux84+vo/KsP2SqYmG03of8H1qR6A+zwsS5eOC7ZVi5p867AeuLD6EydxnSFCNX6TPnIq2gDpXKZsuy+NuQNVUZx0XUHj6E2kCzaQFCjPzmIEFQfoaIiIiIiIgGy+Wt2GoNMCYZI4RaEfb9v8HGQnvfBouKs+LesGqv6/hLWL95fzDUStytsBfvwPpnK0L6zCZac5EhV22dZXjzaNjIy9pU3DkzPHj7GK1WmJQZ1VWNohKH/7cARBvePRY2PbTg6Hu2vq0bERERERER9cvlDbbdEmCc/zAeCQur3Um0fivYnFjibkTRnw52O9iU88h+lDYqpjbOjBkpcjoVUflGCeyBiqskFubZs6FXfMRLlYTs20I74DqPHkL5eeUbW1H+7CZsP1QNe6MDTfZqFD29ATuP9aUSTURERERERP01TIItII0knPbDNXhgWuRKaZAGqd80Bv8qOVOFo2FdZUO4G3HCrgyWsUg0jg++5fRBFNtCHywkJFkxO2w2QupczFB8DG47it+o6VqJbbOj+LlN+NnKH2PZw5uw853Gru8hIiIiIiKiQXFZ+9g639mCVS/VAio1dOY5+Nelc2FU9G2FSofsZcthW70Fpc3drJ/KiITwUur427B6W3o3H/ARrg4NzBqtFoBcxm1BcdH7uCclE9KrXioDsucm4+Vn5eAaiwxravD33lbHb+PNvgx0RUREREREREPm8lZsO1xwOlvgbG5E7Tu78PiOCM+L1abjwYdykdjdko1SQ6sMwxJBA328rsefLp8JI1YVojgspGrT5yBDnpc2C9kpynCsfMQPERERERERXSndxcfLwnlkB7YWdm2mqzb/C/K/l9S/x+NIfWT7+iO2oLa2IXQd3Xa8+ZZcnfUbZ0H2LI33L/qsTJjkAackZxSP+CEiIiIiIqIr5rI2Re5KhG3PU9h70xNYMkVZDZUGk1qOH9T8CjuPK/vGSlxwXZSqtMGpice2YfGmsgH3Y3W+ewjlecnICrRHFmC+3YrE4mrcdrsyaIuofUv5iB8iIiIiIiK6Uq5oxdbL3YgDv/sjyp1hm0BlQM6KHylCpl+HA02fyX/xEeKNMA7GmrgqUFQm97v1M6bjtpmZyJgovyBl6w9CH/FDREREREREV8xgxMGBay7DM9sjPK4nLhMPrpgLvXIp3Y2wnQx7Tmx8KtKuH/hiSGrfKEGtcoBklRHZi25DomLyzqOFYY/4ISIiIiIioitFGRmvKFf1S9j8n/YuzYnVlu8j/26jsuUxao9UIaTAK41gnKcY0Xggzh5GUdgzZ7Vxvn62Xu5GFB8M64sbidYI88xMZE0zQj1stjIREREREdFXzzCKXCLsr2zBzurwPrUCTHkrscgc7FQr2grxpl1ZVgW0M3+E1QuTIQ9iHEpAYvpCrH7qObz03DrMMwan1VUryt8oRVPXX3iJHxzCmz09MxeAetpSbHtmMx5btRL5azbjD08uhnlcNxMkIiIiIiKiAYnWxo3/9YCm0A3tLXMxZ+rVIb9tO/UuDhxzhLwWwuPCqepPcd0/3oZJyoQafTWm3KzDp+9WoEHKs57z+PiMBhlZN+KaKHkKMbju5lmYM+NGxGm1uPY6HRJu+Ad8Mysb996/HEvuvAUJ2tEQYnX4plmDj987hjOh2Tig87NGjLFkwxwXHXjNpxX//dL/xdv17WGvK6iMuHf1cky/NviaoDXhRvcxvGkLa0JNREREREREA3aFR0WO4Hw1dv5uPyZvyENIYXV8Jh78cQ3sm0q81VTR9hK27knA40tCq7TqiRbkTLREmLDCaC20YwGcV7wWwoGiQ9WYl5QeWgE+U4qi8vCKcphRBiSMD3sNgN5ggICuTa2JiIiIiIhoYIZRU+Qgsa4AW1+sgSv4kpd22n3In2fwvyrCXvhbrNlegvrwN3ZLhPN4ITav2YTiM92+yctVXgFbyHRF1Ja8jlrpWbk96bDjVNjAyoCIxo8ZaomIiIiIiIbCsAy2kvqibdhaWAdnSHPhWJgWrsSiJLmPrIj6kh1Y+ZO12FlYgdozkaup4nkHaisOYuevf4ylj72I8rO9b0p1ajrMyubQrg9Q/FYPzahl7ka8/FwBbIrRrZzVf8bTr3dJu0RERERERDQIoibdNNUzCNMZNoQ4AwxxWlx7dQzECy5c+KIBjWdau4y23DMdFmz6nSJAA86STVi2vbrv0xFikXjDJGjaG1Brb+n754iIiIiIiKhfhl8f2wESmxthl34GMB0hJQ+zA1VhwPuIn6J+hFqJ2Ir6uhrUD2A5iIiIiIiIqHfDtinylaNBVm4m9IoF6MsjfoiIiIiIiOjKYLANN3ku7kqR+/BKWlH+X6VQdJklIiIiIiKiYYTBNkQsMu6ai0TlVpEe8XMs8qBUREREREREdOUpIxzFz8b86bGK7SDCduh11IaMzExERERERETDyVduVOQBGZ+EtElaxPgn0v6FHbYTDo5oTERERERENIwx2BIREREREdGIxqbIRERERERENKIx2BIREREREdGIxmBLREREREREIxqDLREREREREY1oDLZEREREREQ0og16sI0a0ZuDiIiIiIiIRppRg73AHgDRACbFRGOKoIJWFYVO76v9ibzSVCT9+cylCs6r3e1BW6cHYifQ7PHgI7cbLW7590RERERERDQcDXqwlXzzqmjMGhONW64aBXUU4EEUPFKAlDKix/uP0G0h/VXOsFEqRMl/Drw4dDze5fHNv8MNtHV4cK7dg886PYjr6MRfO9z4u9s9dAtAREREREREAzLowTY2CvjWmFG4I3YU9NGBhOpLjlFRiIqOBlRSeFVBkWC9PO5OeDo6AGWQVE5isHnzdegMxBigReWBU3TjmqgoXPS0w+EGOqVMPtjzJyIiIiIiogEb9GA7PlrlbYI8IToKbo8HHpXKG1RVMTGIUquhGjsWUVeNQVT0KESNGuUNud5s6fbAffFLdDY1we264Kvseku3QxgnvZnWH2w9HkRFRWFUNDAmBnCKwPXRKlwfHY2qjk58MYSLQURERERERJdu0IOtVKSN8odAKShGSYFxzBgI19+AUeN1iBoT6wuzEim4yj9SJffiRVxsa0Nn25fwtLd7Py81Yx5S3mX1NpT2LSuk/wEqRMENj3d0rWjvK0y2REREREREw9GgB9tOqSutN69KnWs9kAKrkJCIUfp4RMWO8bXn9VZigSipmis18RVFuC+cR+dZB9wtLUBnpzfUSoY41vpn4FtWeV7Sv+UfIiIiIiIiGt4GPdh6h1mSQ61UsRWuQvR113mrttLAUPC4A82M3a2tcJ8/5w2z7i9avOFWCrnygE5y0LycgvOUK7Tyv4mIiIiIiGg4GvRg6y/G+sKpNEjU6DG+5scSqYIrvcHthqfVhc6zZ9HxmQPuL76A5+JFb5nUO6iUnxRwpebMRERERERERN0Z9GCr5O1jKwi+kZDlgOoNta0QT37kbXrsDbRSAI6WFsXDMEtERERERET9MkTB1l9llZ5JK8QEB4vyeLxNj8WPP4L7rMO7oN6Rkb3FXLcvCMsBmIiIiIiIiKgPfKM3DQWpa6o0iJQq2vsHaaAoj+sCOs+cgfuzs745+kMsmxwTERERERHRpRqaYOst2PoHXZLCa/QoeDo70el0evvUejo6fH1t/VilJSIiIiIioks1NE2RvdVa3yN0PB3tQGcH3Oe+QGfzZ/BcuOB9BBARERERERHRYBiaYCslW+nRPm637/m0nznQ2eRAp/NzeNxu72BSbH7cC5UArX48xsYA+NKFpuYWiN5nKQ2RcUZk3JYMvdiAqrJq1LeFzUeVhHk/ycUUb42/HSfe2IEDJ8TQN/XlPV9z2pmLsWSGDgIAsaUCe58vQ9PXZZtMtOKBuy24VjqG3I14d3cByp1fl5UPpc9cjEXp/uOguQJ7d3+NjgMiIiKiITA0wdbfClkKr+5z53DR9legs9P7uB9vX1s+xicylQYmay7mz06H+UYd1MqG4u5WOD+tRWXFeyg6WAb7+ciTuCRqCx7YtAo58VLcAhbN3Y91vyxArTK3jtLBPDMdaf5liqmWgm3Y3Prynq85jTEVWTMNvq1wxokiVRmahvKGxXCiTcKMzHRopWVy23GqoADlw2n5LqPYScrjwIGiPV+j44CIiIhoCAxNsJUfPSsFWGmh29u9i+7Pu+xTG4Ew0YoV+UuRNdEXLrtQxUJrtCBb+pl/N8pfeR7P7K+Bq8sbfYQ4A/RqQGxuRFN3b5Lfe+tcZPtDrUQwzkWOZT9qK5TJloiILlV/zslERETUf8qa4NCR+tv6R0CmroSJuVj72LIuoVZ0tcB5tgVOV1jAHG1Axr3rsGW5xduktQvtXKx9Ziu2bd2KFbM0XX7dheiC79aDTITYFjZPIiK6NP09JxMREVG/DU3F1ksu2wZx9OMIBCPuWfkvMI+Tf9cK+zuv4E8HDqPydKv8IoT4ZGTdkYu75liQOFp6uRUNH9kRMX7qvwFdN4XfSMTyV7C3OhkPWKQQLKKpbA9ePh7pnURE1G/9PCcTERFR/w1hsKW+UM/MQ45RTqGtsO35FTYeaOwSWMUzNSjeU4PiNyxYcP9C3CaU4YWSloizECboff0Y+8rdiKKNP8bRiTdA094A+5lgoCYiooHp9zmZiIiI+o3B9ooSkDbdArW8DI2H8e+FXUNtiOZq7HuyGvtCXgyln6CJ3ES5RyKcp+vwNR2klohoyOjHX8o5mYiIiPrj8vSxpchUBiQkyNVawFlbg8YBj5ArQDdeH3l+RER0mQnQTeA5mYiIaKixYntFxUAdzLVeEfvM9kss9HGx/foESUNBa5A4KQG6a9RAmxMNp+rQdImPVFLHGzFpog7aGMB13oGGWjuawp8L3F9CLBITJ0GnVQPtTnz+WQMaG1sHdrxI62wywjBOgKvJjtqTjoFNT9qM4www3pgArToGaGtBk70O9uaBHtUCtBNvQIJOCzVccDY70PCpA64B3wQaOHWcEQkJGt++PudAw+lGOAe6r3uiioX++gTo4rRQR4twOQdxntK0jZOQoFcjRnTBeeYU7AM8xrzfBYMGQrsLjlN1qO/2OyVAG2+AboIGY90uOBo+Qf0lHzdDdLxc8jmC52QiIqLLgcH2SnK70HIOwHjfQminWmASqkOfH9snGhhnpuIWgwE6XQLMk4IfSrh9OVZP7U+waEdTZQF2v+MITuRyGzcXj+1aCrO3PYGI8i1LsflIz+uQtuI5rLX6R4A+WYBlj+xHk3K5VUl4YNtG5MQD4tmDeHLlLlSK0qBc6bhnYS6ypiVB7x2USyai6XgJ9u5+CaWne563TyyM2Qtx711ZSDOE3VgQW2A/Uoh/f+kQLsiT7yPtlLm455/nYMYtBmjDb4I47bCVHcK+V0pQ211giM/D77YthFEFOCu2YdWTZXBCgHHOMjz0vUwYA4OWAU2HHsOy52r6uGShtOZcLLp7DrLMurBm8CKcJ8rw8q49KA79SK+E8cm48548zJ6RjMRAe32/Ngdqq8pQtG9/l/2jzV6DHfKI4c5qbH90E4rPyB/siQDzfZuxdp7Buw6ibReW/fpg1+b50qjkuXdj/uzpMI0P2ynuVjR9UIXDrxfgwLGB3yiQqSdnYt78XGSnGqENOU6lZwK3oqmuCoffeAUHjvTUlUFARv5zWJ0ZC4h27Fu7GntPSncjDMhYsBDfvSM95HiQiGdrUPr/F2D3obpuHi0WeZrqpFw8+KNcZE1WjMrulgbG24OtO0tQL3+lBB0y8hbju9kWGEMOcBFOezWKC17E3mN9Oxdd6vESMKjniFgYZ2bgFoMOOp2x13OyeL4aL/+xBPXD4GYNERHRSMVge0WdxQl7CyBf/MXPRf6KT/DEdsWFX18IJsx/cBmyFCFFpp1sQcZk+W9909R8ELvRt4vJkUiIM8E0QcDnyQ9h9b3pYYFWJkCfMhf5m0xIePxR7D0hX4lHMNqIeflrsGSa4iJeSdDAePtiPJZiQfHJGOVvuqfSIeNHq/DjOcZgH+wwgtaItNxlSMvMxN7fP4V9tp4H/dLemIQE1fvQ3L0Ojy9M6jJdsa2XBx5HFAvzwl9i9d1JUEfs2CBAO8WKBzYmw1zmCAu93RGQmL0MP/9hpn8E8AhG62CamQfTtEzMeHELthYFRwh3lpWg/PsW3/dBa8FddxhRvMceYSJhxmViXrYv1EqjjlcVl3YJtVJgy//ZvyAtPNDKpKqnOROLzNNxW8kOPPFsGZoGElZUGqTd9zDyv93d9gW885ySiUVTpuPO7P3YunU/bN3d6JAJRkwxaSC0pWLF6qXIMoQFdD8pLGY/uA7mpB1Y87R0U6QH/mkm3ng/frUkHfrwSapiYbQuw4argTWbStCkTsaitQ9jQVLYjSAvAVpjOhasMWHS8xuwsaixpxkP6HiJZMDnCMHcv3NyswvFUrCNtDBERETUJwy2V5QI2+H3UG/NRaI/FOgzl+Gpyel489VCHCitgbOHPBXQ0YBamx1Gb3/dGFyboAuEDLG5EU295pUYjJ2g61IR/MpS6XHLfeuQY/GFO2nE6fLqOjQ4XBDV4zElJQOpSf7BXkYbseCnS1H70x2ojNjEVIfssFArNteh/EgVak87cMEtQGtIgjk9A2mGZGRP68tW1SDrJ+uQn6nzv1lEU3UJDh/5ACcaHLigUkM/yYJZd8xGxsRYQJuMRT9/GOLax3DgdA/TV2uhT/k+Vny3a6iVHvPU8lmPsSUCAca8X2L1AsX02hywHSlD5ccNcLqAsXFGmCzpyDDrkGGV16dniTmrsOF+S2Bkb9fpChSXVMD2iQOftwLXJpqQmjkH2RYdBKnid/8a5LetxeYS/82YtmoUH3Ega45vfomZc2Au2AFbL98l/e1WmOXKcHM5it4PvVEgJC3Eo2vzYJLf47Sj9O23Ufm3U2g6BwjaBEy5NRN3ZiVDKwhItK7EBrcLq56t7qba2RsNMpZvRL41WAWXqvRV71fjhNQUu1OA+rpvYEpqBjK8N8cEaFMWYu16NTaufxG2Xr73uuSFeCTPijQtvMds1bEanDrjghijhu5GC2ZYjP5zggD97cuwutGOX+zvKWACCdY12HC9EVpVK+qry1FV2whnpxoJ/5COLIvvpoF22kIsmlmLyhkr/aHW997yvzXC1amGzmTBrFuN/nOYBmmLV2LBh6uxr5t7EwM+XiIZ6Dmin+fkDqej3605iIiIKBSD7ZVW9wp2HkzF2hy5UiQ1j7Vg3nIL5t3nQG11BUqPlOHdv9i771MoPa5ny2oUSesipCP/uVWB6m3tqxuwrijyY4ECVEYs2rIZCyYGXvmKi4XJkgS47CjeswO7i+0hweNAQQFM967HY3lGX4VxfCbmWQtQGWE76ucsC6nUNh3Z4au4h4TgEhz4jwKYv/cwVucpQmA39Dkr8aAcat0OlD+7CVtLQpuY2k/UoPzgIWStWIf823WAVP3611yU/6owtAm2kmDEXT+0QK8S0VSxH7tfKUHVyRaIKgFavQZiUy/HSTjjd/CQItSKp0uw9Te7UH5WmSDLUHTgz9DP/D5Wr5gLY3gz2jDC5IXIXyyHWhH1xU9j/R8q4FRUPe0n61D5ziEcnLMKGx6U3qtBxn2LkVW9BaXebC7CdrAM9Xfk+W4YxWUge9ou2Hpqzq4yYPaspEBFub7sUGgQHp2MH6wMhlpX3X5s/k1BWGW0DrZjJSg6nIdH1y70BmB99v1YUv4zbK9WbpO+0WYvx48DoVZ6vvQuPPFsCUKPLeBAwUsw5jyE1T9Mh14FCMZc5C+tw0NPV4Qc1+H06Vbo0YrawmexdU9FWGW5AC9MzsXaRxf7n7EtwDT/PmS/vQnFPdz/0BqNgLOmawuC/fvxWu4vsGlJMtTS/lr0MEx6jbdJdNGWTdh5THnsFeDl9GXY9LDVuz7ScXvndyw48HR1lz7gg3O8RDLAc8RAz8lERETUbxEbD9Ll1Arbv2/Ak4UR+rCpdTBl5uKBRzZj13ObsXrJXKTFh7fvo0virMbO9Y9ie1io9WlF7X88jzcDxSkBptTULk13ISTjrn+WLtR9xLoCPLG1a/DwcrfA9qff4Jky5QV8BOp0LMoLTrP+1W1dQm2A24HSP2zDAf9yClPm4C5z4LddqXRINAhoeudprHlyP8qlUCu9yy3Ceaa/gzHFIivvLgQeweyqxgu/2REWamUimo7swuN7eqtcapD1vbmBaYon/ox/Cwu1QSLqD/0ez73j357j0jE/2xD89ekSHP5ADpOxyLBmBvZTRElzkGX0/0asw+G3QsuDiTmLkR3v//35Cjz3ZHioDfKG3sC66pCVaw1Un/tMSMai7wYfBeay/RlP/L6bYwsi7EVPY/OrwebY2qyFWNBrFwTpudkbsG53eKj1EU8WYvMfK4LNj9U3Izurl6q7qwa7H/tthGbxIurfeBFF/hYFQrzBG1rtB3aEhVofZ8Ue7C4PVsy15nSYuvzXahCPl0gG4xxBREREl02XSwW6AtwtqNy9Fv+6ZgcOHItcmZX6U2bkLsXabc/gt/dndu2/Rv1SX1qAIrscfCJw1+Ho8WA/YyHhBkwK+7YIt1gxwz/wF9CC0lde72Xwl1Y0OXpuH6qeYUWG1r88rgq8/GpdlypVCLEOb74jhzAd0qYnhfy6C2cZdu9ShJVLNS4DWanBvpH1xQUoOtvzxJz/6+x5XeKtyE6Rp9mC0v881Ov2LD/0XqBCbbw1HYmBRXCg+J1gkBZutiI7sK/CCci4IwPyA1nEv5aEDjalSsJsq796D6D+rf3+ynD3nKUHUemvbApTpyMtQv/3ngjT5mBGnPwOB4oLCnvZFiLsr+5Hldy3VmVA1j8lByrQEZ18DdsPBMNwJK4jhSgNDLwlwGhJ7TmkN1ajvLvB1tx22OoUN3bcdhx9Vz52w7XCVl0bPF60CZgkfy9kg3q8dDUY5wgiIiK6fMIu1elKctWVYPem1fj+0tXYvLsQ5SciVNFUGphyVmLL+jyYemnWSQPj+ExxER47Fuqwhvum1KTgRb6zCuV/7SEo94mAtBRTIIyIH1agsucc7NX0UW2gqqafZAouUwT1bxeivA/T7I1gtmBK4PhrRNV/dxdQ+k5rSfaO3uwlbc8P+7A9P6mDXW72bTAGqr0S15ESHJWbzQpJmDVbUdFVGpeJ7Fvlgb9aUF5SFtqENyEVt8ip192IqvI+rKtYi9oG/0yEBJgUI5X3ToDZYgpWmM9U4Ghd75+SqubvHldUOW+2BLdnJJ3tkV4N5a6D7cPg90C4IQmTBtBopMUp7xAAXzaivjl0dkquZqdiP6ihlptG+A328XIpejtHEBER0eUTdqlOw8J5O8oLpZ8XgXFGZNz+LWTfYUWaYuRS9ZSFyL+3DiufrwlWNWhwtSuCVXT4aMYaTLpe0Syz4RP0NHByn6gMSEiQK5ZAe1w6lixP7v2j44LVRIzTQCM92kfRJzWoBbV/C7SvHhCDMSEYvFwNODEIw7kmXJ8QCPVAArLuX4aM3pZSpYVBvj0naKGVKqNyWBKrUVzWiOxcX6A1Zs6B6T93oTZs2+hvzwwOGnWmHEV/Uex3qdv6RENwHqoYTJq7DCvCphGJfoL8aiy03kfZhE63e9KxJQdtQDyO/JxPAAAgAElEQVRth70P85OaJNeeagAy/VV7vRGT1ej+UVB9dKpBarngXx61BnopYPZ1VcKIys+5gR6j9UUxdDZhX8FBP14uRY/nCCIiIrqcGGyHOznkvlEA8/yHkf+9ZGj9F/J6ay6y9tf0OJgLDRGVDtprgtOWqks9XqT3icYXzPzUxnRky/0+hxUB116raBd6zgFnx0AXUIBWEwz10CYhK7uXZtWRyCHXr/at92D/tu85vojPQE7qS6g9pkhX3kGjgk127e8e6hJ81XFaReDWwWy1oqeuzAOm0kFzdXAqzmZ/X+g+kI5Dae18RVUtNNcBkJsnXyLXeZdimmpopJsHisLrlTE0xwsRERGNXAy2I4W7Fbb9v8XmsZvx23n+JpWjTTBPFVDc02ivNEQExCiaZIodvov/ARkFCIpvZNPxgyg/3b+47Pq4BI19qu4NTIxyQdvbQytrl0iIDm5QsbEaxVUN/btZcK4G5eH9fBtLUGzLwwMp0rQ1SLNOh/qYoqmxctCothoUl3StaAeXSmrfbEfpuzVwdvZjJdvPorJSEaZ7FRNyHIjt/Wg73t7u3WbeZVbFQAircl6SkDKrAERf0lQG3ZAcL0RERDRiKS6jafgTfRWoXH8FSmri6K1y9eeimQaHCKkppUwYpfaGiQHtiY52XJD6i/oHGmo5/jp2HwgOYDWsuKUSrT/yxcTIfxqQCy6pf6i/auuowAu7Swa2Pb1a8G7x+1iU4hsVWW2xYlZcGYq8zZUFpCkGjXJVleBduRmzwoU2xV51N6L0xRfRr5zab+0QFRVwISasc2lPYmKCLXbd7RD7d18kMkEZ7UW0y32ar7ChOV6IiIhopApruEfDnrMFnysXslNx0U2Xj9uFlgvB2cVcow4GikvlboBD0cRT9w1FH95hRYTrnGLlx2oxdsC3yEQ0NQdXXojTBfu1DpDrWAnelSu5QjKyZ/lbPIybjjsVg0YdLX5fMVhRkMvhCLa8VeuQ0M8RjvvN7UDLueCntHGaPt84UGuVzaadaPksOJ1LpVfOv6MFTcHddAUN3fFCREREIxOD7UgTp8G1gWVuQVOzorTzVaGohHoNy6P0LJocwZsKwgQDEga8nC04ZQ9WaLVJilGCh5kGR3CkXG/YU/Q3vlSNHzcEg+WEZNyi6MY7IGINit8LNjE23m71jhasvc0aHDTqdAmKbMH9GeKTT9Ag/0qVgClTFX2Bh0QLTn0a3L7CRGPPoxsHCDDdmBD4G5rsONmPVsyRxcJ4o2I06UY7enpK1uU0ZMcLERERjUgDvhSngRCgt2Qiw9j3C+XEmenBi9w2O2pr5Svur5B2J1xfyusjQK8LjhA7fIio/TgYlqBPRpoiU3RHGN1zp8fav9QEq4MTM5F9s7IZ6PDh/OhU4PmxUN2AtNTe95EwWuix8ijaKnBCDmLS43nuUASqAbL/VwkCXxVDKmbdqEPWPyb5l0dE7Tsl3Y887KxC5Sn5exaLVGtWj49UGjjR+wxXeVMgPh0zbuzDVEdbMCPwHGDA+UF19+vUV9LziqcGj8Gmmqpenqd7+Qzl8UJEREQjD4PtFSSkLMWGX67E6if/D9YuSO71Ylkw5mFFbnCYXNfx93C0y4in8gW4z6AMHnO5iQ049b/BmRpuSYf8GNFIhMl5mBdoUnr5NB1TBAeVEdm5lh6Dm9qyFCuye25eLB4/hOLT8jrokP2DPJiCuaJ743TQD3UTWaVT76My0B9VgHlubs/LGZeJFT/09XPt1vn38WZFsFJpzLkf8jhpPRI00Mf1spHOHkbRX+VnvBpwS4YVafIDWV0foLgkWCnvyoHit6oDQVNIycODt/ce5KU+yNr4vjcjVhKPHcJRufm0dBwsnAt9j2drAca785AhHwPuRhT/Vy+PAtMakNBj910B5u/mIk1+j9uO0pK+PFD3MhnK42VQfQXOyURERCNAj5dKNIRURtyz2Oq7WFVpkLZwHZ5+ciUWpBuhDt8rgg7mnGX47YaFMMkXmaIdBwoUo7vKOlxwKro/JvxDakhgVhuTYJQvfoetRhw7HqyGCuZcPDDHECE0xsI4ZxmeWr8Q5iuxTqelEXeDF61a63I8kmsMPt81IBbGnFXY8shcJPaSv6TwIO1XuRujdDPj0fULkdZdcFMbkHXvGux47hns2LQMaZdrO4g1OFhiD6whJuYif0VmxPXTmvOwdtNKZI0Pvj0yEZUFBaiUb9aok7Fk/RrMm9JNiwZVLEzZS/HYM89gxzOPY9GUnjZuK8rfKg9sV2P23EAQd/7lIErleXbDVVqAA3XyvtYg4183In9OpH0tEaA152LFk89h1zP/B2v7lM7DiDXY+3IwTKtTvo9fLc+EPuIqCjDOeQir5wefZ+yUlvdk2DTDjbci/+cLYY7Y5DsWpgW/wOqcYNXcWbofBwI3XYaDoTxeBtFX4pxMREQ0/A14yBe6RG47Dr9agozlViSO9k1DPTkTix7JxKK2FjSdcaDlIiDEaqCboIM65IK2BZW7t2FfpItM9yc4cbIV8+J9YUA9bSk2rUtCeV0LYiZaMOtWI/CXbXjoyWB4Go7sBwtReYcc1DRIe3AztqWXobTmE7S0xUCjM2LKtOkwxwuAuwW24y6YU4IX4ZeHA8V/eh3ZU/Ng9O4fDdKWbMYfrNWorLGj6RwgaHWYlJwKsyEWEBtRXOTAjBxLhPAb5Kr4I7YeMGDtPF9QUU/Jw9pnrKitLsdfPz6LFlc7YtQa6IzJSEtNgt5//CA+FdkpGlSWBaueQ6n+1RdRNHMd5Oyjz1yJp6bmwna8BqeaXcBoHRJvSkbqFB0EtKK2sBSYEwyUETWXYPuzSdj0U6svxMVZsOSJ/4s7bVWoPCENrtWKdiEWugQTbkm7GUat/MUwIutbN+PlE9Vh9bEgsaoEpWesmBcPQB3rv1HiQOlb3X8mwN2Ifdt2wfT4MqRJQVDQIevBzUibW4NKaX0drWhHDNQ6I0wpqUibGAzjpttug7GwoN/Ngp3Fz+IZ00bkW6XtJyDRuhLbLLmoer8aJz51wNUpQK2/AWZLKtKMwQqyaC/E1l0VgQpzT9TmPDz2+3TYKqpgs5+FU4RvmtMyQtZBbDyI7bv7Ns3LagiPl0HzFTknExERDXcMtldQU9kOPNxYhweW34fsycELYYzWQG/URG5+67KjeNc27HwnWNEMJaL8tYOwT5fDlgB9ihXzUhTvsuQi21CGfd1NYjiQLlifS8Kmh/wBx78eC5TrIZG2x3NbsPN8HnakGEKq05eDeLIAm7frsGFFsJqmnmhB1kRL6OzP12Hf1t9gr/MuTJ5rCfaTjqgVtj0bsPHLnyA/zwJvdhM0MKXPhSk94geA83YU796GnZcp1Hq11eCFp3ZBv3Yp0uJ8LwlxRqRZjUhTLqbbgcqXtmHrmwIWzZwLk/+93XFW7MCaLS6s/nEuTN4KdCz05kzkmLv5hNgC25vPY/tLvQRUdx0Ol9gx795gc36cLMHhvrauPVOCJx8V8cCqHyHb3y9ePTEZWdJPxEUT0XRsP7Y/s7/fodanBeXPrsWT5x/GitwkaFXSjRIjMuYYkdHN/JzV+7H19/thC3TQ7YG9DAfOJWNeigFmqwHdbV6X/SCe2bQrWEkfZobseBk0X5FzMhER0TDHYHuFifYSbH+kDK+lz8Fdd2QibaoRWrkCpyA221F15G28euAgauV2qt05WYDHtwD5P/oOzOPlihYAt4imD8rwWsEeFA3nUOvnPLIDqz77BEt+kIesKWF9FcUW2N8/iD/t2e/r66mtQa3TioyIzSqHVlPZNqw6U4NF38vFrBRDaFNylwO2o6/jTwX+/SbU4sNmEUblfomoFbZ9m7CsIh3z5s3BbSlJSAxUJ/3crWj6uBaVfynBwUMVqO9LmBlk4umD2Li6AfMW5eHO9GTo5abyEncr6o8fxmv/8QqKT/qeUVtb24KcmcHqYnecx17ELx4qQ/Y/5yF7uhkmfwuEIBGuxjrYqqpRfOgQKs/IzYR7Vv/227DdbYTZ+x0TYTtc0q/BkMQzZdj+SA1K5+Yh5/ZUmI260P0NQHTaUXu8GqXvHESpraXbCnKfuFtQuWctHnovE/Pmz0WWJSl0G0uk4+CDKhx+8xUcqGjs+/za7Xhz4x4c/fZC/DA3E6aw5u7i2TqU/9cr2Pt6NZr6tnmvmKE6XgbNV+ScTERENJxFTbppqmcwF3BijArrrh2NW4Vo32SjIP1/2PN4PN7ldCMKrg4Pzrg6vU+dOSh24NWLHfjcM6ibqXsqAdqEG5AQp4ZaENDe5sTnf2+A/aw88E1/CNAakzApLga42IKGU3Y0XYHwMxgErQHGG3Te6qXL6UDDJ43eZpPDjlqDxAkJ0IwFxHMONEhNRsMfX3RJBKjjx0N3jRZjrxJxwdkCx/864BpOgUMVC/31CdBdLQBfOtFwuhHOtkta2S6kJt2G8TqMHQOIF5xocZxF0/lhsPKjNUiM10HjXWcXWpqbUN98Kd/VvhKgNRigu06Dsap2XJCOsfq+HgcCMvKfw+pMf+uQuhexbE2hf3RrAWqDAZOuk24guQZwzhkehu3x8hU6JxMREQ03DLZ+wybYEhENiZ6CLREREdHIFj7+LhEREREREdGIMjTBVm61GwVvJXS4k6q1RERERERENDIN+uBR3v603n94IP0/KipqhAZHaSUYeImIiIiIiIa7Qa/YuqU868+Dvnw7csJhlHeBAbfb4420viX3v0hERERERETD0qBXbDs9wMUONzoEFWJU3rbIISs+XGOitJRSBm93e/BlJ+D2vjJcl5aIqL9E2N97BXs/jfF98PMa9PbkMCIiIqKRYgiCrQfn2z240O7B2BhfU+SREg+lUCst97l2jzfkyhVcIqKvgqZjhdh37KuwJkREREShBj3YSk2RWzuBz9o8aBE9iJYbO/sLt8M15EqL1+EBRDfQ4fZA5U21Hm/ltlNeeCIiIiIiIhp2Bj3YngPwUacbOpUKeiktdg67de6W1BRZWmQpi0d5PPjE7cGnnW64pEGwOJQUERERERHRsDTowfaix4PKDl+Nc0q0Cuooqb/qcK3TdiUtqfTzhX89ajs96Oj6NiIiIiIiIhomBj3YSqSKrVTlrHd7cG1UlLcp70iItlK1VlpO6d/Nbg/q3G60SG2riYiIiIiIaNgakmAr+bvb7f0hIiIiIiIiGkry0E6DhiMJExERERER0eU06BVbaQCmaJUHkw0q/MP1UYi7WuUdZdgXeKOG7fjCUhNkd/tFuC9+iU5RRNM5AcfrR6P5wqBvIiIiIiIiIhpEQ5La0pKiYbWokHKTCuNiAbcnKtDH1iMl3xDy3/29cK9gydfTEYPONhEd5y6i+QsXdFerUf7xWHzSLIQsMREREREREQ0fgx5sY68CZqdFISc9GvHXRXkruBJvbI2KgicqGt7wKgVYb4j1B1op4LrdgFt6PpDbt4WkzCv/eqjIuVoSdRXcogftLS60f3EO2tgOfNmuwt+/iEF7Z3BdiIiIiIiIaPgY9GCr1wI336DChOui0CmFRm+11gOPahQgjAGEWGDUVYAqGpBei/J385UquR1tgKsZEFv9YxNLzwpSJs9B5kvb/on6U/Soq6Aacw08XzhhmtCGJP1FvDe6E5+zSTIREREREdGwNOjBNjo6ClFRvqbH0VFSHdYDjBIQpTUgSh0HT8zoYJiVmx1L4Vb66WwH3CLQeRHo7IBvaCs5eA6+KG9m9i6hv7Ls8fYC9qg8vkXzAKooYNTQLQIREREREREN0KAH205/K2JvMpSqsCoVoq6JR9S48UDMaH9M9SdFOdh2isDFVqD1c6DtHODp9CXKoeZdDLn/r8fX7FmxaENYKyYiIiIiIqJBMujBVmo5LNU9fSXQKCBaQJRaC4wa7eswK4Vdb6k0CmhvAy5eANrO+34uunxVW3mAKTn4XiHy7BlwiYiIiIiIhq9BD7Zyq13p3x4pGUr9aWPG+Kqh3oQohV430P4l4PrcX6U9D3SIYYNJSROQQrA8RSIiIiIiIqKuBj3YehOtN4tK/VR9FVtv/1mPHFA9vkrt558CF5rhbYYs9a+VBpOSMMwSERERERFRPwx+sA0hBVv/yMfeEq7H1/S4+RNftVYijYwskQMtK7RERERERETUD/5n7QwBuWOq/Dgf6d9S8+MLZ4FWp2+GcoiVQy0RERERERFRPw1dsJWSrVSllZsZuzuBL7/wVWqlP8uhVqL8MxEREREREVE/DF1TZCmsSlVbdwe8QVa84KvUiq7gc2yJiIiIiIiIBmjogq1UrpVGP5aCrPR8Wlezr2LrdvsGimLzY6IhoEPW/QsxQxMDoB1NFQXYXeYYgvkQfQ0Z52LF/JsxVmrr5G5E8R8LUHk+fDsI0CbdDJO2HfaaGjS5wn9PREREQ2Fogq0UWr3B1uN7Pm1TrS/kSn9XqYIDRX1djctE/qb7YJYe7esWceHjQ9j6VCHs7v5sEA0y7n8YS9J1ENoaULzzKey1tfZnAlCnLMTq+61IkJYDImx7HsHWsv5Ng4YZlQYmSyYy4n3LVX+2ELvLhtkyEo1QguYGpGWmQystv7sOJ15CWLCNhXnJE1iba4Agvae5AtvXb0HxmRG6wkRERCPIEPWxVTzaRyI1R5aqt1Kw9WZe+fdfU+frcOqLWGi1GmjjdEhMz0VOivcyqO8mzsWiuUnQx2mgNSRj3t1ZvoutPovFrHnfgdkgLYMG2nEtOPUhQy0R9YcAbbwBiRN1UPfzFPaVNC4LC+b4Q60kLh335CSN6FUV4qT9a4BePaJXg4iIvgaGJth2ya3eUaS+Bpuzrxwor/xE8WYNzKn9u/gx3paORMXeE0zTMSNOMcneqFORalJciX5SgfLm3j5ERBQkpC/D089sxbYtazBvQvD1r61IbaCiFefZkUY7F2ul/bt1K1bM0oy0pScioq8ZRTS6DKRK7de9WuvXVFEV0vRYn2KBsa97Q2XEjGkGeVI+QhIy0vt+4SGkpGOKtwmyj72qCk3+PxMR9YV+ogEs5Ck4S3Gg1AFRful8DV57o0b+28ij/wZ0IziXExHR10uk+8t0OZypwLGGhTBO9M8sPhkzEgD76T7M/Pp0ZCSEv0+AaXoGtEUH4X9KcA8EmNNMwQtStx3HKhp7eD8RUVc6nbe3KQW0ovLZR/DwkVSYtC6cPF4Ne+8n5GFLmKDvZxcXIiKiK6evNUIabO5GHK1WhEmVEbdM0/VpLsaZwWbIrjONkAfdlJojZ/WlObIqCRlmRXW3oRpHG/o0ayIiv1hvH38K14r642Uofmdkh1qJfrzGNwgWERHRCMBgewXZy0Ob/xpvSe397rjKiFnpcjPkVtheLQyOyikkYcZMRWDtzo0WmBUBuOl4aLNoIqJeqfTQXdfru2jEEqCboB+xS09ERF8/bIp8JX1cgcqzucgZ71sIwWRB2riDKO7yXEQFYyZS5VzrsuHo0TKI5vuQlRkLQIAx4zboCwt77C9rvDUVwcsVByrL6xQziEwdZ0RCggbaGMB1zoGG041wtkV+76BR62BMNODaawTEiC44HQ2wN7YE+6/1gaA1wDgxAdpxMRDaXWg6Uwv76dZ+TaMrAVpjEibFqREDF5o+PQX72SEaUXq0Bok3JEB3jfqSt0EIxfTQ5kTDqTo09XS89UQVC/31CdDFaaGOFuFyDuFxoRIgjAJEMdB7cRAJ0E68AQk6/3p80QJHvb1/zx/1blcjDNeqIaAdzs/sOPWxA65+PcILUO6fSz3mvYRYJCZOgk6rBtqd+PyzBjQ2DvS4DzNKB73iBtklk7bdxATvssZ0uuBsdqDh00vYdpdAHWdAQoIO2tEC2tuccDR8gvrmoTjG+kJxHGIwt8Olnq+kirz035VLp443YtIEacRsEZf0vSIiIuoHBtsryV2H8uMtyMn2V1kFE9LSYlH8TvchyXRbKhL9y+yqqUClS0R7RRVcmZnePrPCpHRkjC/EgbPdrZgB01LkZCw9Z7EK3eba0QZk5N6N+bOnwzQ+bAQRdyuaPqjC4dcLcOCYYrCUAYuF8fa78d2c25A6uWszOPF8I2zvHcK+/QdR213fNUED85yFWHBHBsyGrhdm4pkaFL/6IvYW2wPNuEMJyMh/DqulmwWiHfvWrsbek1LoMCLru3mYn2WBURu6PVynq1FU8DxerhicbaGebMWC7+UiO8UAdVi7ij5tgzBCfDruWZyHbIsRoYsuoul4Cfbufgmlp/t2Qa+enIl583ORnWqEVjEAmZd0XNRV4fAbr+DAkcYINxA0yPn1M3jALG0/EU3vPI1VT1d0sx98BMsybPulFXoVIJ45iI0/2wVbT4saZ8XqzcuQ4e3+6cCBNT/G7gj3boTxFtx5Ty5mz0hGYpcRkEQ0nXgfh197BQcqIq2HREBi+ndwz11WpCXpuuwnuBpRWVyAFwoqUN/T8gKDtr+1U+binn+egxm3GML2MyA67bCVHcK+V0pQe6k3M9QGpKWbMSl+PHQTkmGS979Ki4z7ViHxS98+k4l1hdhaGGHjS9tu5ndwz7e72XZtLbBXvYeiV19B8cnuz4eXpKfzGqTdVoOjb+3H3kM1cPay3yLRz9uIHff5R7k/X4aND25DZQ/TEcYn48578iIfh20O1FaVoWjf/h6+n4N5voqFcWYGbjHooNMZYZ4UXMOE25dj9dTQFRHPV+PlP5agXnkDR9Ah7TsLseCfIvx3o0/fKyIioksTrY0b/+tL+2hkmnFRsKZGI3G8/HifqJEzELI0YrPHA3e7iI4LX3ifvVvTOAbVp2PRKoali0HS0mlAdpYRY7zTi4G2/SReL29EZ6Tpq5KQe/98TBkn/bIVVfv+iLdPt6PzLHD9P83E9VcBiB6HMZ+XobhW7nkbZvztuO/7KbjOv3uc5fvwwvv/22V+6qRcrN7wUyxIN+I6dXTYRABExWCsfiLMt2UjY7wDVZWn4ZKeUTwQ45Kx6Jfr8bPcFCRcOxoR5oroq67GN26yIPtb0zDmzDH8T2No2VhtzsPq9atw7z/eCP3VMRGXJnqcDjfdOgu3xjWi/FgjQqcgiUbCjFxkTowBorVwn34L74/Owepfr0Ce5Xpox3RdMuGaeNz8j7djypfH8d91LV22Z98JSJzzU2z82XykJVwNQf4aKYRsg4Zj+J+/K9YgKg5pd1pxk/cYAc7VHsWJCQux/ucLMeMGLbouejTGTrgRM263IPpvpbB9FvHI81FpkPaDtXji/8vBNydqMSbSbTHpuLhuIswzrcieApyq+hCOkGvhNnwWm4w7U3WI9s57DM68VYZTIe9REnDrvcsxR9oX3sP7OkR/dAjlf+9+ObXZ9+OBGXG+4+dMCXb/6a9oDjk2BSRaV2DDL+/FrCQdrgm9R+EX7VuPf7Qi64Z2fFBZh5YO+Xe+55MuWbsW+fOm4frr1BH3E4Sr8Y0pM5FlicZHR2rgaFd8PmCA+1um0iHjgXX49YNW3PyNqyPsZyB6jBbfME1D9qypcNv/gr9FXqCeGedj/ZqFmDHVhEmJWv95SxKDa+ITkJAY+hN/sQav/ffp0O/DuGQseGQDfpo3DZO623ajRkObaML02f8Ei/pTVP71f9EWsg8vTa/nNel2xdU6TPrmLNw5PQ6Omr/i0/PBYy06fhq+I5+vPc34nzdKUBuWu8dOseI7Kf5StngapYUVOBOchIKAxOwV2LBmcffH4Sg1rkucihnWTNzw5Yf4y0eRzi2DeL4SUvHDX6/EvLSpuMkYH/LdGHNtfJf9e732HI6+fgwOed+MS8aSDevx4KzJkf+7EfK9asUHlR+Hfq+IiIgGINKlKV1G4gcVsDmtyPIPLqq+2QKzUBH5Dv+N6ciI9y+c1Ay52n9F1VaNo8dbFc2R06E/ELk5svZW5WOFWmGr+KBLVU1IWohH1+bBJFexnHaUvv02Kv92Ck3nAEGbgCm3ZuLOrGRoBSkkrMQGtwurnq3usfLWI3Uyljz2C8ybGEwZUuWk8lgNav/eggsQoP9GEswzp8MsVY/HGXHnnbfhzYrgemozV2LTikzo5UmILbD/tQrHahvR0gaodUakzZwOU5z0BumicjlWfGTHxmJHj4uWMH05Hr/XAqNUnZKqcBVVOHWmBS6ooTNZMCvV6K/WxcK8aCXu+Vu+r8J7CYQp/4Kf/yjdW52UuOwVKC6pgK2+BeIoNfTGm5E2MwsZxlhgnB4JvXSpvnbmMjw+Xuet5kuV6vLqOjQ4XBDV4zElJQOpSf6q+GgjFvx0KWp/ugOVipwcpEHG8o3It+oCg8lIFcCq96txQmo22ilAfd03MCU1AxmTpYUSoE1ZiLXr1di4/kXYFPdZnBXVsC9OhvcxyqNNSEuJRXFZWDqQjbZghllZddfAnH4zhGPVXY5bHw1mWG4ILGNTdQVqldUkaUCc7FXYsNwS7M8uHSfV5Tj24d/hOC8C43QwJsv7VYD+1jnImXoI26v96dswF2s3LEVaYEBgEc66ahytscPhbAeuHo8p0/z7yFuNzUP+UjseilCZHpz9rUHWT9YhP1MefE5EU3UJDh/5ACcaHLigUkM/yYJZd8xGxsRYQJuMRT9/GOLax3CgL6OwKzXbYatrhCh9F2K00MfH+re1COeZs7gQFt5bHWFdB6Tv+fpfYJ5R/pLC29rh6LEa2JtcEKPV0CYkIS3d4vueqmJhyl2FTeqnsWZ7RR9GfO+eMDkPj65dGDyv+auH5f9jh6PZCTFGC92NychIt3gr+MLETNxz+yGU/sne/UQHIDFnFTbcHzwOXaf93/VPHPi8Fbg20YTUzDnItuggCDpk3L8G+W1rsblkCM9XHQ2otdlhTJD2TwyuTQi2RBCbG7s0z+9wOnAhsA10yP7Jw5g32f99FR2wlZagtKoOTa2AcE0CTJbpyMpIhn60AH3CeAhh300iIqKBYLC90sQPcPQDOZTCe9GZagIqbV0XzHRbeqBvrK8ZsvweES8YNZIAACAASURBVFUVNrgy033Nkb0BuBAHzsi/l8UiLTUpcNGP81U4WhNWKhudjB+sDIZaV91+bP5NAWwhTRfrYDtWgqLDwQtFffb9WFL+s+DFf7/EImPpSkWobYGt4Cls3lcXFpQPYt9LGpi+vRD3pgHF24OhVuJsdMAXj0Q0VezHzudfR2VYf7l9+5KwZP06zJssXbjFIm3+HJhKXuwSfpS0Zgu07hbUFj6PrXsr0BSyyQrw8rRl2LDKikRvXjYgZ346Xt5S0U3w6kkssv55DhL9jQNcx3dhzcaDIc38bNUVKN7/EvTTrJhtaMKbxS09TRDq8TopHaN4zw7sDmt6faCgAKZ71+OxPKPvmBifiXnWAlQWdZ2mNns5fhwItSKaynbhiWdLUB8Wgg8UvARjzkNY/UNfOBeMuchfWhca6porcPTUv8A0xbcPzLeaIZRF3l7S85bT/NVnmTYlHSahOnJz5HGpSPUmZokDle+HNYOdmId8RZgQT5dg+1O7UNoYslOBwgK8YEjHPffOwSR7AXbKoVbS3IAm/3q77GXY+8c9KDoRus0OFOxH2oqNWGv1hU1tVh5y9ldgn2IgdOn4G4z9rc9ZiQflUOt2oPzZTdhaEtp82n6iBuUHDyFrxTrk366DFDAX/Wsuyn8V+h3qVXMZtq8p870taTF2bMr1nZPcZ1H8ZD729hiU/d9zOdS6W1C55ylvU+XAqcxv34s6ZD2wBiusBgjSTS3rcqyo7f0mVLeEJCz6iSLUuuw4sG0Tdh8L3W84VIi9u43IXrgQWZpq7Nw3NKFWmLwQ+YvlUCuivvhprP9DBZyKoGc/WYfKdw7h4JxV2PCg9F4NMu5bjKzqLSjtrhuG9J+QgZyv3I0o2rIaRdKEhHTkP7cKWf7vX+2rG7AuwrkhIGkO7rL4Q600nd/+CjuPK29Y1aCy7CD27k5C1h3JEKpfR23Y146IiGgghqZ9LfWDCNtfbIoLOx3Maf7+WUqqJGTdKldkWmE7UqX4DCBWlQXDpyoJM6bL71VQpyItSQoTPq6/VcEWFkwScxYjW64Kn6/Ac0+Gh9ogb+jdI1dpdcjKtQarYP0x+S4sygqWHusLt2Fjl1Dr5w2YO7Du1ztQGt6P2F6Ax9dvwdZf/wwrn9zfJdR6ueqw98WS4OBa8amYYZQn3g3RgdLta/GL3eGh1sd5bBdeKAteIKvN6UgNbua+E0wwB0JZCyqLwvquBYhoOnYQew9U917BclZj5/pHsT0s1Pq0ovY/nsebgbAlwJSaGny+sUxIxqLvWgKvu2x/xhO/7xpqfUTYi57G5lftgWCvzVqIBZPliUkcKH//k8ALvlYKgb8qCEid7l8edx0q5YvkuFRkmBRvUxBSLJgi9/uU+o9/oPilFCQX3uWrFEvOV+OF3+zoGmr9xMYK7H3yMe+xGHL93VaDFzY8hq1b1uKhR7Z1CbU+Lajc/SLK5RtCKiPSwh/nNRj7W52ORXnJgX1T/+q2LqE2wO1A6R+24YB/fwtT5uAuc+C3Q8+o/J6LsL/6FJ4sDL955Sd95559CnsDnaljkfbdPKTJ+7af9HPuw52BoQVaULp9Q9dQK5NuBD2/Ceu2HOy1b/Sl0SDre3Mh53vxxJ/xb2GhNkhE/aHf47l3/OeXcemYnx1Ykcgu1/kqjH6qKTD+Az4uwWvy9zXc+TqU7t+PYnvIt4qIiGjAGGyHAVd1BU4oAmZiSmqgaheQlIk0/+jJIc2QZW3VeNcWvDtuysgMVHdlQnIqzHLzYog48X5oOJYC8Wyrv3oHoP6t/T1WBiTO0oOo9FcPhKnTu1TX+sI8OzO4vucr8PK+mtAg0Q/OugqU2noewEms/UAxeM54TJKa9fbkk0PY+05Pzf9E2I7VBG80qA1IlPdVvwgQAt2CBak174DVlxagqKcLSHcdjh4PrpuQcAMmhZ0VhGlzMCMw+q0DxQWFIVXkrqTQsh9VgVBnQNY/JYesTtP7ikdMaZORqhikJkC4GTNS/Pvm0xrsK5VvAGmQNj058LYgAam3mgMhz1n9fmglPi4L2XJFCYD94B4Uhd8c6SPxbA1Kj9SFVNi6cNlQ+XHw4j1hUvC75TPw/a2eYfUPkiW16a3Ay6/W9fzdEevw5jtyFVKHtOkRbqINEfMdiu+583385yu9LKu7EW++orgJFZeB7Gm9fFcjURkwe1awpYpo24/dFcFz5WUXb0W2fFxLIfs/D/XyfWpF+aH3AjfjjLemBwNkJJftfBVKGBM4eQHRMSHfdyIiossh7BKWrghXFco/DF4AI8GCjODzeLzMWcFH9IQ2Q5aJqDoqX/gDUn/cLLny6iXAPC1Y2UHbByivDLu4S0jFLfJ83Y2oKpcvgHsg/j/23ge6qTLP/38T7B1sQBM7JDJpgRQnwaWxJw2SwimVqfFb6FjrVpllUFwWB8XD6CyDA/IbhBFxGfzKMIOwsDKyVRymOx271rq1rKWjpUsT7J8vpq4kKwRpu5hgTcaSWm8h/M5zc2/uTZq2aZu0BZ/XOT1amj/3Pv/u834+/xxwtPN/Z1KhjyZQBoJYsjJE67L/VD2skX6J8eayB96vhA9lMPmmycIvw4b9wosvhXfL5FDcIvwyBC574O4UXp+M3EeehEUSc5woPF+I1mYkT4Y8LECBgcGoD4lFXLChIcK7Nyr+Fnwgsdgo50hjuwFcqEdDaHipYJjX12zO3GGGgY9jbSOxsh+KB0BqoxH6yNWLmQPTHEH4+NB0Ilw4yQ1G0VobcKHheMhUnSAuw+sV55hcTspDSRhxfzMwZepDAoL9hGRJl3x+P7j/xxGy9KvT9cPzshgqfea5Dc2Sw7z+YD8+iabQ4UMyNxaHfN6TkoU7ZgjfwMLRUBe6/7FAacyAVhi73oi1vz/OOeES2kujDVl7h0tc1qsIvvxcEk896z6sfcgIpXCfFAqFQqGMAmFbWMpY0Y2mD51gjbxVS6aBaa4CZZW84JBlIDtLEH993ZAFOHdkvxnZxCor02L+fBXKynlrnEyHLIPo7ss6WtAkWNR4mOkaaISNiCwJ6YvXYK0k5qs/1LcKf0mGkqslIxHpg3GjFqkS6+ZZh2Mo7x42rDRL6cQwuTE8ensB0lZc+w156x0k4MKx951Y8hBvXZpqxtpdBhRYj6Gmvh4ffOgael3UWOiV9FeftlAgfYZk3Jx3wRXDmCAeAY6z7UAObxFUazFLDoml3APrhy4snxUUtGl3mJEmc0ksVwwM5qyg6Ap0wHrCBfjdsLayMM1lwLmQ33YYDqnI1htDQjiaYEidSeI1ebwunO4Tgx5vWLDStpKFvj3ISPtbRmqwCkIe6E0xY+UT0SzZEUyRWI6nKKCQYWDLczyImOft52Kc5wEnHJ+xKODLjclnaKFGC9qGcE1MuhapwroWuIjTTvGwYSxInZEqjkOkIvfRNcge7EJkSnFtZpRQkrjX0CHYMIjHehWB/8NqWDuNyOW8O5KhL96EAwtbUXesFnX1J2G/IFlnKBQKhUJJAFTYjhO8jSfhWJkBrrwnGGiN2ZBXVnPurcyceZgviD9pNuRIiDvyqW5kLwhudrXEHbm8POjCdptRdGUmoqPF2sdqIU9RSjZcKhjy8pDwELwUFW4JjcJueDvjvOmcpID2+3rMStNA9V0FlDdPxuQbFdCEXGvHFyRG8qB2C1Yv4LMPy0hdyUKsJj9+Dxwt9airrUXNqYHdreOGTAXFTeKneTslVplB8JNMs1x+ZIISiu+SuFbxTW0kO/KPtEHr1YwMZKmBNkFsMjpkZ/KCut2Ghs/I+7rRYPsYq+cawUCDrGwtSpwhsy/0JtGrwXvKFpFcioEyRRTo8HngkYrOkSJLhlqbDq1WizS1AoqblJicnAT190XhGY2R9bciKHB45FozLH0N3+ODYc9zFl4fWRP4Q4GbVJwQD6ubOghJCoXocQAvPKLn/RjAQKmQjAmlDrmWYbiDC0J9POFvwSsvlyPtF8XQ8iEvpEavZRn5YeF1fYyGE8dR85d6uAZIfkWhUCgUynAJSQrKGNPZjKZzq2Dg9ziM3giTvBp1fgb6nOyQu6D/1EDuhrw78oJgdmRozcjVlHOZWNPuFDf9CJxDk1XifsoTZk/yu1D3QSu8UsvmYPReRFPTEE/lk5Ikg5AFyw7x/dGYpIHpnnxYFmTBcJtYruKaIOBBza4NaDu1DA/dnwvDNMkmWK6CPqeY+1lOsvHu/z2qzsT5IKAPSWAkqwTbG4Ovq0BvL0j1F25cyZIk8cM87cfR2F4M7XRi6Z4Jk1GBigvBccncngMTf/jQ1mgLWYn9H9pg7zFySYTSjGZo3+AtyMTVNVPwavDB3hCljJV0gPf2xsEzgBw6LIblLjPmZ2ihHE5io5H09w0I6xv3qWpYz0fU2xkE/6e16IinwO+PsHkODGWas19L1gSGCd6z5J8Gg5kk6fjLvWCH1kRxh5koXg/b0YKa5nZunsTMV62whtyzxxd+eyme2ehA0bJlWDJPC86Bh4OBUmtEAflZugz2d17F7j+2JN5TgEKhUCjfKiRbVsrYEnTNXKnjTS6T9JifyaCuUYdco2BpInVnIxI+RdDHHXmBBmVlvcjOlGTSdDVH3Rhd6pHsFgMdqDt8OHo93XjS24vLoc9jwHDqQ3IdQ4KB1rIKTz6cB620RAzbDffn7fBc8MDtuwR/D4P03DzRbXXc0Q1HzSFsqXkDytnzYMldiPlz50DL1d8NItfmYPVWFeRbt6FsoORQI6YXrNhBYJJC2ccGJylJjCkNRBEUgQ40NHZg6XQyNvmMzFW18JP/j3RDFuiywvrJKpiMDBeLPj+1FC5SYmaaEXNT+Rd1taLho75jKExMJY0suY18diF++vgDwbqwIUgt1w54PvfA7fXC29ULZcbdyBXqevbLMPv7ci8ukbhLfqz7Tr2DkooxNUf2T9g8F047YiO4JvCwbNh4jAVW6mp/A3/A0nd4jBqX/OQwij+w8tjwWkntWF5O3GEvtKBsdwvK5BqY7spD7rwsmOZo+FrfpO9VMBRvwo5bdmHTyyOrTUyhUCgUihQqbMcRbpsNrh/zrpkkRsk4B3K/OWS5GtANWSDSHZlk0Hy/F6Y04QWAq9kWyrApxe/xcO7JXL4euQqpU4CmkcRxxYLXg0tEOHFGjGSoVWTDN5xdJwP90i14dpmOdzvsRpvtGKrfq8UHpzrCY1NlWiw3jmdhK8DCe7oeZeTnFQZqQw6W/G0xlmTybspyHR5ckYeabdV93MrjRsADH0m0xbvCE3de0lWx9JBcKXVt98L3Rd+rclltaLu/mMuKzeiIl0It6r7WITsr0g1ZQBKPLtNirlmDI+c7oDZnhRLyEK+G5j4XSFxaiTWYt+oqVFDJAPcwrJVy4yrs2LA4WLeYJCM+U4+q6locs7XCHWHQNjyxMAZhKzDE/g60w0NcOvm+UX2P3Ns4FbadHnx5GXzSo2TeHbdPJ0WBuJBLvBa+8sA3xD7r7fRxIR3BIxklVKSZRA/2UYaFu5N0WvCemBQVFzsbW9z6NYa/A01Vh7kfTNEg+54H8KP7c0JuyupFK/Dg+y04GCrpRKFQKBTKyBiPkTrfXi60oFHIMEyiEvUZuMucEaMbskBEdmRtFhYu0IlZNAMdaLT1kw323Dm0C3tNWSpm3y7ZUCYKfzvOSsRzqk7M8jokpt+Lx4sFUeuDdd8GPPXiYVS1RIjaaxYWbnstSrZtwItHxf5j9HP4uOxE4cPZz0S3dWa6cPAyGAz0twkmVABuF85EiD4Olw3NQlyt3ABTBgPMmReKB5e6IQt4T56Egx+n5OBGLVMg+46Z/J+JV0NLVMnU/lmH+O9KLQySy4sZRoflj4qitq1mB1fL9khtX1E7MmLpbx/OukQhq9RJsu2ON752oV3iPps+K8Z5LpsJ/QzRddf/WUfUQ7mBYM+3i/HUsqmYrRM8YMaGjk/bxdJgt2bgDj7z93VNVwes5XvwzKbDsIfWARUMc4TkERQKhUKhjBwqbMcTpARJiyhaSObXxaFSOIO7IQuwzTZx8yCbidx7JJvIC818Ip4oeJvRdFZQtsnIyssNieqEETgH+yeicJJn5iFX6kYcI+q5ZlG8n6lGSa244b++6EbTezYxeQ6JOUzoLGZhb3GIG/FpZsy/LYYWnWQUa9CSescft0S3SpEx3yz0VTL0GToYhCRQQjbkSLxWWAVlm5aF7NQsGL7Pix+SXK2vuZbDf6oVIa9tmRbZi4aRaSk9ByahjBbbgrffaEmctZxj4P52fNgqfv/0HFjmiCJwXBFwoalV6GdAnmlGVgwxyYy0fjdZA1vs4uFErLhb0CgcnpADl0UL+9T4Hk1Yuw2nBXHH6HDXPZIwkesctuMoalqFZwzATBpCaAOFQqFQKIOQ0C0xZei4rM2iRUKmQZqw5yEb9sYYEwX1nERDqIYoA/U00ULhPiUm4umLBzXvtYREDJNZjMcWie/tHwbKaUEX1aHDoum946JLqNyIB38sqbfbD/Jp4UmhFDdJNkjd3bjUz/s4UrRIH4Z4HjdMTsZkYeZ6vXCL+8SEwDYeRUPI2qaCZdliqIXvjwoD7QPFyBbaONCBmv9s7VeQOE6IrvHq23KQKySBCmVDjsSHhpN8jVpmJkyFGUjnRRJX41mo9xnJxeOo+VicQ2mWFSgQRGp/TFJALYltZiZPRqjqcS+LS9/090aya9dgtqQcz7AZoL/ZU0dRQ2KMOVSw/H2xWKt3IKaooBb6ZwSEhp6MxF8P/EH29+rFAxnlPPzofknZoWjIVFiyLFcUoZ1W1MS6BkoJuHD8fVfoWhldIVbmDLauJUMtTdwWT7pO4l2beJinLXgURcI6PxBM+FhMPKHe5Risf2MjmQznEJ6xTVFNoVAolOuMAbenlDHg0xY0hUSECIkbtPa3Ye8DC6vNHhKoIh40nZQW/uyLv64UFU5hQ6NA9uPbsS5fKymXIYWB0lCItS++gkN7f4vNMe3OouCsxJEPRcGhzn8azy7LgDLa6JykQe4TO/Eve/di1+PG0HV5OsWNItKNMPXj3ic3FGPzC2v6/fvYwkBfvB7bNq1A7vR+LG8yFSz3ipZ0r90GxxBjDocM24ojfxYPPOSZD+OXT+RAHfUSGWjzn8RGiWjxkjF1ZoBv/dQmjvmZOcglWZKBqG7IAl6b4I5MsobP4z0LumE/OVByNR/q/lSNNmF4yzPw9798ChZN1BuBMrMYm/e8ggO7n0ERf00siRUV2luuh6k/C2mKEcu3voDls6N/dpA49HfAhYrS+pDVltEW49mty2CSiPEw5BrkPrQJB17ZiwM71sA0EnHb5Ue30BaYitkh7xICg7TZ2vA57Hobr9UJ85Qcfqzn1paoLcSokPvEJiw3CCqoG01/Kke/hxaD0Ha0FHWhdVWB7Cc2YbWZj1WPgJlqxsoXfosDe3+LjTEd7A0VFk2lpWIdcXkGVm7dhKLZwr1GIEuG3rIK2/buxYG9zw8ypuLIZT+8khPC1L/h60rzyLW68CR9U3OwdssWrCvuZ+0mo2J2IRYLc4Z1wt4ijAcKhUKhUEYOTR413gg4YT3lQ4FFalEgbsgnI87PB4ZtJO7IZmRLDJnobIXVMfD7iHWtbM8h6J/nxR/ZYD62E6bFrWg61Yqznm70IglylRb6zCyYpoubMf3ChdBWlkZ3OR0QH+oO7ocpfT1yuZCrZC4R1MsLWtFga4XLTWqnyqGcocP8+WZoedEqN+fB9EYL6roAb6MNjuW6oLVKbsRjm9Zg8h+PoumcG5cwGaqZGZi/KB8FC7SQX/bAdX4ytJJrHw8ws/8Oa39s5hIpGe5YiIITtaipb4aj3QP2BiVU2gzk/rAQFmED7Heiojx6PGm88dbsx179dqzLI2KAQVreU9hjLETzyRac/swD/xUGcvVMGIxZMGnFscu6KrH7kC3KIYsEMuabPSjIV4FzrSZ/6s8NWaDTiibHwzAYhEzaAHocaGgSD0iiwTrLsbssA88/FIzHZqblYO1LGbA0WtHk/F94/SyYKSpojTnINQjCR4e7FmhRcd4FfNaM5gvFvCeFApa1z8B/pBwf2Nvh6QFumaaHITsHiy1mpMlZtJ3pgHqWJqp4i1d/+22/x+4KDTYXBS2g8tnF2Lw3j6tV/dGnF+Hz9yJJruDGjylLB7XgAjwtC5ZMBZrqhyku3K040wnouTnLQP/wdvx6+nF89CWgzliIbF0yXCU/xzOVggtyN5oO7UHFjGdQpGVADmmyH9uJQ/e0oKHFEZznE+VQpepwh9kIfUics3DX7se+GuFzhoG/BSX7K6F/pjCY9GuSFgUbfgOT/SSsHznR7mNBrPOp+izkztOFytQYFmVD/X616EUTLzprsW+/Djv+MS94QJRixMoX/hlL7M1oOk2SgnWjl0mGKlWPO0xzoA3VzdEi9wdz8OfTozDvA+dw+kw3injLtXzuKuzYooPV6UPSdCPuulMLfLgHT75IDlYUsDz+E1gyk4HMDGQvakHNe7Wwtrrg+QpgUjTQ35mH+wqC6xvBXfcmqkIu4hQKhUKhjBwqbMcdLBzWZngteWJ8K+eGLJiZYqSnmXNHzl4gCk/OuhfLx1yoxYvPsli9/iewaIPvl0/PQC75ifr1LNyN5di3t3wYopbHa8Pu5/aA3bAGFt5aKddkwFKcIbwiDLajHq/tPsCJWo4LR/GvFTnYtpTf3M/Kw+rNeVgd9i5w4r5s30uoSPkZDq01RhUcYwXb6USz04e02QoQt0P9omLuJyp+F6r2vIQKSUh2YvHBun8zXux6GmsLdZwljlFqkZ2vRXbUL2bhbSnH7t+Vi/HeA2BvaIY3f7E45vt1Qxbwwdp0DssNulAfsq020QrWLyxc5f+E5/E0Nv6YtyyRtl6wGPoFUd4U8MFeuR+7/8Sn0Q04Ufav1cgSsiIrM1C0NgNFkW9lPbCW7MJeawae/ecV0EfxPohff3fD/vpz2P71z7Cu2BgUZeSezIuhN0deGE+XCzUle3BwuKKWEHDi7bdbcdejfOiAjIzZQuiF7wCgz8+H/j8Oi14F/laUPLcN/p89jQeNwfAFudYIi9YoeZeEQDcclb/DzjjEMvtPHcbWXcDGnxZCz1mqg5nGiww5ki8UCK5pu/cmQNTyeG0HsGmXX3I9yVzm8wKD8IoIWB/s776KfW+MgqjlYGF9uxquecV8/gIG6sw8FGVKrstYCIumHmUdLM6cssN9u5k7OGE0RhSsNKJA8lIp3sZD2Pmq6AVCoVAoFEo8oMJ2HMJ+3AJ7l5hEaWhuyALdaCLuyAvMvLsucdP8OGarL3uhHvs2tKJucTEKFmXBoA2PaSWwXhccp1pQ93416uzEqjpCyHdudMK6pBhFi7Khn54cEi0cgW64nXZY646i4r1WeENukAQWjtLnsOWrR/B4cY7EwhGE7eqAvfZNvPanerQRl+4UG5q9RmT347I8Jly0oeSXdnyQcx/u/2EOsm9T9U0M1eOBw1qLstJ30HRxxC0+NAI+NL2+GU8ez0HR/YuRa9RBLfUIIJA++rgZx959ExU2SRbiwXCcRFPnYlhSyAtZOI4fH/SQxH2iFvYHdLw7LQv7h9aBLcMhuuEo34YnT+Vh6f15yJZaMXnYThfsp2yoqayG9Xy4Fdjfcghbf+3DYyvvi6hjSy7dB1djLf50pBzWCywgY9HgfAB6wcouJa793Q172Q6ssZlRVJSPhZk6pIWsfDykbz51oOnDWlQftaFNSGA0AtxVL+H5SU9g7f3EQi35INYHx8lqlL1eLopagS4nyrb/FFbzvbhvyULMl9Y4FSDjvLkeVW+9jboz4e0/EryNh/HMOhsKih+AZb7UEsrj98D1STM+eO8dvNvoGfmaNgjc9TxZD8vfFsMyzwB9n7heFv4OJ+zNLag5ehRNZEyNJmdK8fwuYN1P7oVhqsRpPMDC/XE93i59HVXc4Vo3XJW78NSJDCx5oBB3L5iDtCmS13Ow8Lo+Rl1VKcpqXTHOVQqFQqFQYmdC+vdvvxr7ywdn5rQJ2P4TBvNvn8C9+ComYELwf8c1V69eBXehgQAud3eh5/PPgMBl/NF2Cw4dT8HFrm/5GcAkBdKmqaC4iQG+9sPX6UZbZ/w2nNFglCpopqow+UYWl7w++D73wBvTvo6BUqtDukqOpCt+eD3tcJ2Pg/AebSYpoJ2ZiltuJvfBwt/ZgbPE7TdM0I8lDJQaDVTfVWCyrBeXvvKgvc0Df0x9NI6QJUOdqoZKKR/y2JZP1SJ9hgryiSz8Xg/OnusY/v3Htb8ZyKdNhepmJSZ/Jzh/PJ8nsG8YBdLStVDdTA68htgOTDLUmlSoFHIwgV58+UU7OjpGY76SNtIg9btyMGBx6QsPOkjYwxjOL3HNA9hLXvg8F+HuGg8Til9TU5KAb3xoP+vqU7M5HAZyjQbpKhXkDNDb44Xn/Dm0xbaAUygUCoUyLKiw5aHClkKhUCgUCoVCoVCuTaJEflEoFAqFQqFQKBQKhXLtEH9hSxybiVsv+Q8mBC2h4xzOWislrs7ZFAqFQqFQKBQKhUJJJPEPHOUCaifw2vAqJky4NsRtGNdCUDCFQqFQKBQKhUKhUDjibrG9GrjC2Wo5OIF4LZk/g4L86pXLxNwc/KFQKBQKhUKhUCgUyrgm/hbbwBUEerpx9cp3MOEGJpgVWdoEYb+MI4j79NWruNrL4kqPH1cDAe5SyeWO10umUCgUCoVCoVAoFAriL2wDVwLovfQVLvtvxMRkBSbIZLgqsdqOVy/fq1cnIHD5G1y+5ENvlxdXMYY1HygUCoVCoVAoFAqFEjNxt9gGAjJc/roH33zxV+CGTmAiw1lCrwWrZ+ByL672foPAlSuQESftCcCVq8Dla8mbmkKhUCgUCoVCoVC+ZcRd2Hb6ZfiofRK+p2CResvXAL7hglWvBW3IZUe+GuBELRHijguT4Pz8O7jUM5GzNPPJnikUCoVCoVAoFAqFMo6IMq1gngAAIABJREFUu7Dt6ZXhA4ecE4lZ07tx041XELh6Ldhrw/F2T8QHjsk4dT4Z7OVr7/opFAqFQqFQKBQK5dtC3IUtobX9Rs7KefbidzB18mXOnZeYQMe7PCQWWXKNgauA+ysGp9omofNSQpqIQqFQKBQKhUKhUChxYkL692+/FryEKRQKhUKhUCgUCoVCiUrc69iO16zHFAqFQqFQKBQKhUK5Pom7ny1x55044SpmpbD4m6k9uCWZxNhCkjxqMIfksTEgk6u6egW42gtcuQy4u5Pw/zpvxBdfx72JKBQKhUKhUCgUCoUSRxKi2kzf+xp56ZeQOe1rTJkUkTxqMN06mO6NN8L1TOCFLQtc+Rr4snsi1Mm9+K8Lk3Gui4n3t1IoFAqFQqFQKBQKJU7EXdgm3xDA3bO6UKDrwq039QZNtSGxOhGYcAMwgfyXZJPii8VyXAUCV4AAKQ90JU63N3SuXgYu+4FAN6D8zhV0X5Hhf/1J6A1MCGlgCoVCoVAoFAqFQqGMH+IubNXyy5gztQe3TunlXJBJnuEJpNyP7AYgSQ4wU4AbJgGyJP6HF7dXA0BvN+C/APReQihF8WhBLLfEaks093eAq91XMVvRA/3N36COuYLOnrg3FYVCoVAoFAqFQqFQ4kDc1drEG65CxhtkucxURDDewGCC8jZMkN+Kq0nJQYstUZGcJZe33BIr7pUeIPB10Bf4Si//98QhGJJJXLDEI5lDSIIlm0BihhN3DRQKhUKhUCgUCoVCGRlxF7ZXrkwIWmqJXiWCUXYDJtw8ExOmaDiLbdChl1eKnCsy8TzuAb75Cuj+HOjxBoNd456vuX8EEctdFq9wyRUKYpdCoVAoFAqFQqFQKOOXuAvbALlXohQ5VSgDJn4HE+Rq4IZk3tc3EPw7odcPfPNX4Gsv8I0v+P9E5JLXEMbCUipobipsKRQKhUKhUCgUCuWaIO7CVrB+csKQWGRJPC0naolSJIKViF4ST+sH/O7gD7HSXmH7ClkijsdC3FIoFAqFQqFQKBQK5Zoh7sJWygQibCcywcRRIYVKRO0l4MvTwKWLwJVvgn8iwaxEyVIxS6FQKBQKhUKhUCiUIZAgYSuYWXlhy5X3Ibr1atDduPMTwN8J4DJCsbTkb+Q1wlspFAqFQqFQKBQKhUKJgcSlaOIsr6TMz8TgZRBxy3YBXR1A95fBWrWCiKVWWgqFQqFQKBQKhUKhDJPECdsQfA3bwGXg607A/zkQIPG0RM2SH2qlpVAoFAqFQqFQKBTK8EmQKzLvVkzciwO94EQt6wO+vhi02nKWWl7UUigUCoVCoVAoFAqFMgISJGx5rl4OCllSn9Z/IWix5UQvyYzMi19KbMgYKFMUmHxjEnClF5d8Pnj9bEzvVeeswHKzCgwAttOGIyX1cEe+U6aANlMPdaAddnsH/HzFJQqFMpaokPvoMsxXJJH6aHDbSlFS7xnLC/rWwEzLQJZWDu//tMBxMba1dnBof1Iow4OBUjcHemUvXK2tcPuH9ymDkZh5T6FQRovECFvBGEuEbY8PcDcDV68Ey/wQay0VtTHAQDl7Hiw/WAjT7VpopynARDiOs10euBytaGqoRU2dE95+xGhyehZyF2iC33nBg6rX6+GWvpbRYulzW7FcR2oNA377YTy7rRIu6WsoFMroI1NAb8xB9rTgV7ddrERJ/ehfxrcN5YKnsGNdDtRkzWU9qPntZuyz+UbeDLQ/KZRhkAzDyhewuVDDHdCj04Z9W3eh5sIwPmoAEjbvKRTKqBEhleKEkBSKIxCMqeWELS3nEwtKQyHWvbgXh154CsstRug1fUUtgZmign5uHpY/uR0HDmzB6jwt5LF8QQSMsRBFvKglyA0P4P47iX33WoWBcpoGadNVkF/Lt0GhXIMwKWTuaaAezmI0LtDAcj8vagmMCpYH8pDW77XR9YZCSShTcrE0nxe1hBQzHizQxfkrhzrvKRTKeCQxFlvK8JApYHrkaawr1A1ZoDIpGShY+zxMc/8NO/dUwtUzhEtIIm6O4TB8MutrEca8Bi9vyIE80IGy9etw5Py1eBcUyjWIcjE2710FAwPYX30MW6riYOUcbWRAUuSRr4zUYwfIOW0kdL2hUBJMtJ3qxDifWg9x3lMolPFJtOUiPnAuxxEfFWbJpYQhU8GybgvWLlCF/TN70Qnr8Xo0NNnhaLsYjKsl8bZqDdLnGJG9YCHmZ2p4IcxAbX4AD+Ucx/aa2DeU7MlKVLmMWKoNPijYM9V4qzFeMWWjj3q60B4UCmVUUX8PqjjvN0edQAeOVdlgecIMJSdmfah7qxptUUQtga43FEqC8dahou5e6C3BXCHoasXb/9Ea3y8d4rynUCjjk8QJW0I0cUuJQjIM/7AJq6WilvWgqewA9r3V2jd2NsDCe8GFJvJTU46SWXlY+fgjsMxKhr+lFAeHIGo5WCeO/H8/h31eBpc8qqnRCe+1q2uhUimjtDGFQkk0zK1qXA+zz127C0+6jDDNksPvbEbT+e5+m46uNxRKoulG0/4NePpEFvRKP86caoHLG//vHMq8p1Ao45PECltKTMjnPoK1BZL4kR4XKl58DiWn+t9MSfGfqcW+Z6yoytLj8ictfTMexwLrgb2+FvZYXjuuSYY6RTGur5BCuV5RT1UEk7tcB/hdLahzDXYjdL2hUEaHbrSdqkdbgr8stnlPoVDGK1TYjjUyHZY+lAd16Dp8sB7cEbOoDRHohquxJfTrtxaZGqrvfmvvnkIZQxiobhVXsm8FdL2hUCgUCmXcQIXtGCNfUAjLdPEi/I2leOX92ONjxxwmGWlp6VAp5UCvF19+0Y6Ojm6M2JOZUSAtPRWqm+VAjxftZ51wd8VwtzeooE6J4XX9IUuGekYqUlOUSAILv7cDZ12exNX1laugTdPglpsZJLF+eD3tcHX4htR+jFID7fRUKKckgen1w33BAdf5kfeBfJoW6beqIJ/Iwt/pgsM1tOsaUyYpkDYzOH6G264ciRrf8YLME3KfZP71eOE5ew5tXSOefcOEWC+DJcPGEoZhwLKj1AYjXW8ikYzbIa17I4CsH5pUFW5JZgDWjy8/P4uOCyNfPxICGe96LTRTGPjdLjjOeIa0VkYSWuMYFv6/+uBpcyWsPuqwIM8jbTpS1fLgOnbhLFzDfr4yUE6fiVSVEnL44e30oP2zkT/bmKk6GNKVSLriR8cZJ9rGURzTaPZvIucRM0UDbboKykmA/68etJ/tuKbDxSiUREKF7ZiSjPkLjZIMyB7U/HstEhA6MggMLJvewNq5/MsaD+DvdtQOuGFQzl6MB/82H/Pv0EAZkSyG9bpgrz+Ksjdr4ehPjMp0WL1nOwqmAezFarz41CE0sQAzzYwHlxUid64O6knSy2bhPlWLIyVvoO58xKZVroHJbED6tKlQ3ZoBvfA+mRLZj6xH2tfSzwFYZyV2VzrD/1GZgYJlxbhvfkbfMiWsD66WWrxV9jbqXLG5hw9MMrSLHsCPChYia1Zf1022qwP240dRVl4NR3+DgVHAkL8MS+/JhkHTV0ywF1pR89ZhHKlxob869nLLFrzxRAaAbthf3YAtVR4AydCTz12cC9P08M8l/WqtOoySaHHfQ2HKYmw7tAoGLvMsC+uuVdh5IqJPIzCtfQWb83gX8zOlWLOhPKrLvXxWHpb+uBAWklAtIrNtTO3KM+LxnWiUGSh6eBmKFugi5h8Lt70ebx95HVXOfsZqXNs/GdoF2bhDo4JKpYUhXbzx1EVPYOPt4f3KdrXgz7+v7TcRk5S0ZTuxZ6mW+yf2fCW2bzwMe/jHhaPMwcb/+xSySZBvjwtHNm9E2UCuxDINira8gJWG4Dh3/eGn+Hk5mQMAZq3AnhcL+RI/HajYsA4lZ/ivi8d6EwG37q0ohsWo7duf/a17I4FRwbSkGEV3Z0OvSe7jPs6t4Q1/QcVb1bB39v9FzIL1OLzeHHx/oBUHV21DVX9rPkGmxcrf7kQRX1bdXbkZa0oi1uJpxfjNnmXQygCvbQ/Wv1gPLxho89fgyR/nQDtFvB730W1Y88oQkwiRe793GZb+n3nQT414eJH5c/okjr39JipsHX2egYbH9mJbPp/g0VWOpzaUDjyWUwrx6wMroOfWom7U7XgMu8MSMzLIXvcKNuYkA6wLZZs34ggZZ4wG2UuX4Uf3mMPul8BebEXdv5ei5Kiz37VdCjM1A0seLMbd8zOQFlmCq8cDR3M9qsrK+z5XQ0iusacDZc+twxHSZSlGLF/7KIoy+YROBLYVB7e3wvKrYP9xNaBf3oB9J/pZiyKQL1iDXU/mQU26pcuG3Wt3oY5/gKmLtuPAI3yJn656bH9sD7dn6MMI+nfAeR+NOM2jsDF/Yg+e3FXP9a0ysxDLyT5rjir8ecb64Kgrx7++Ud3/HotC+ZZChe1YMikLptslD9aOenwQ8Ywfd8hUyP7Jevw0v/+auYxSC1PhGphycnDkdy+hzD7wQ41J0UN/K4MvM57ExofMEYJWgIE6czHW7dAj9flnceS0ZIerycPqtYUSd26BZKQZzX3qT7ITbWAqnaFNC6MrxuYNy2DoL+sNo4DWXIx1d+bB8qc92FnWGtOGIipTMrB8/VNYaug/DpiczpoKVsG08Aeo2L8DJbZwC77cUIx1a4th6rMpE2GmZaDgiedh+P7L2LrfNshhSTL0t2vB2DRY/vTPwmoaSyH9mvvQFhi0B7Bpdy3c/WSJHRsYpOU/iV+uNAc3RVEIa9e9O1DSGN6uHAkY3/ElCcq5K7Dxp4XQSzb4IgzUhjysfiEDhv3bsLOWF2qJgjHg/sfWIDfKtShnGZE9K+KLO/2oIcI24p+j0XaiBW0PaJEmA5jpd8Nyx7/BHiYKwlHOy0OWMIcnaXH3XTqUuQZYUGcsxN1z+MObgAsNDTG21QjXm3Dk0OY/hXWP5CBNOJALY4B1b5gwsxZj3bqHkT1N8uyJgFvDC7Qw3fUD1BzahYPvj8wyOlyUt+mQKjsJxQNb8PyyvmXw2J7+ju36YUoGVj77NIpmhR/aiTBQz87B8tnzcLftDezcUz200nkjgdFitl4BpicLazeuQq4mev8QoWp5bAsMugPY9DIR/f3BIM2yBr/4h/7GFoBJKugXFEM/NwfzD+/C7ipX6LkYlUkazL5NAXTqse6F9cidGvmqXlw6U4saezFWZzJcDejcwrvx5xOVUQ8iw1HBUpgTWr+9tqOwDrF7R7N/EzWPlHod0ic5oXx0PR7L62efxSigt6zCtttnYvfWA7D2PwgolG8dVNiOJdO10EpOUL2ftMI1rsRCJArk/mwL1uUIJYlYuFtqcezExzjd7sElmRzqdCPuuuduZBNrnzIDy3/xNNjN21AxUC1ZmRp3PLIFBcbgxoVYG60tTrR7/GDlUzE7MxtZOt6yOUmLpf+4Co5/PIAmoVZvpwt2ZwdYsjFMUkI9TbBAkOzRF3GpN/w+uj0Sl9opZqx9WiJqvU7U1dSjwdEO/+UkKL+nh+FOc7CkkkyB1FslHTZU5BlYue0ZFE0XNyz+jlY0NbbC8b8+XCKbqu/pYFgwDwYiWqdosWTJQrxrEzcFypynsGOt+PDnrMkfNaPR0QFfDyBXaWFaMA/6FPIdZGPzBNb+jwvbawbetDPafGx4TgcT2ewSC/VHzfjo0w54e5KgnK5HltkYOu1XLliFtc5WbKkc+DNHE2b23+EXPzFDzVtp/S4bamptsLf5wN4gh1o7B6YFucjWJgNT1EiNeq6QoPEdRyZnPIIdS3RQMyy8Z1rQdMqF9q96wdw0FelknggeAESgr96Elf+7ESXSQ6B4c7kdDrsL2lQy3pJwS6poWWA7O/q4dV72enAp1mtot8HaXow0LlQjGYY7dWAaW/vZeCsw36wLszyqs8zQvu7sd01Nm2vkRDOHywbrhRgvbCTrTQS3LFiD56eqOK+dIa97w4DRFmLz1hUwhJYxYuE/CetHTrT7WBBX6NRZGcjOzggeMMq1sKzdDuUNmwddQxKCXAl15sNY+6O+opZYV31fDGVHr4LlZxJRSxIm1tWirtkJdzfA3JwKvXEecrl7Z6BOnQpmlJ/Hqoxl2FCcB5MSYDudaG5sxdkLfrBJcqhuM2J+yKLPQL1oDTZ2uPBMeUfUpk8rWI/nHjWGspT7z/Nr4jkPvuwGbknTIysnHxajCgyjQvajm7CuZ/Ogh2GTb9KiYO0T4aKWtBNZe//qhpf1oammBcszzdy4Zm7Lw93aShwZyHuCMCsPd9/GPxsDHaip7m+u98fo9W9C55HSgKIN2TBlkocUC6+zBQ2tLnjIOp+ihSGb3x9whv08/HR1KxycVwOFQiFQYTuGMN9LDT10CO2ftY/h1QyOuuApPCaI2oAH1v07sLs23F3LdboV1uqjyF27BesWqUDE3PLHC2H9pSjO+pIMvVEH+F2oef0ASiLcZytKS6F/aCu2FWuDG9epOSjKK0VTFW9x66zHvk31wY/VrcCBHbz1NnARNS+uw5EBRLX6nkLkCjG5nTbs3rQLdVLXO3sL6o6WomS6GZYFSpz+D9swrbXJyF71lETU+mAvfQk7yyLdyapR9oYC+h8uw0MmoGZfeLt5OzwI2r9ZuG3lOPjqO2jqlFivAZSV6bBy6xYUzSKbhGSY7s+HvvYwHANt0qZlwMQdVJTj4P5SNEnbAEBJeQ42PvcUsrm2YmD44b0wHD00sGvoqJGM3L/ND4kU/6lD2LQ9vO6ovcWGmvI3oJ6bh7s1brwbpSRW4sZ3/FDO0oG4A9a8/BIOvh8+9/CHN4JWa0HgMxos+ft7cWxTeUwW0mER6EDVro2oIm9mzFj3yvqQ9dbx1nPYIszR4UCsqC0dWDo96LeqnDMPWllr9HGszEK21PuFMC0L82cchivqhlqFrKygmzPB1WyLvY1GsN5EIp+qGv66N1QYHZavk4jaLifKdr+EI6ciPRfKUXLEiJUbfxa0bMoUMP3DU1jq3IyyAdbShMBocd8/GKGWBde7kjdr0XzGB5ar5a4A64689gHQ5eM+o2Ch70DVr3+Jg2GVB1rRVF+NIyU65N6TAablHTjCl9aEozaTRJLdcFTux+7XbRFeMaV4bVYhNj+7AgbOQ4KB/v5HYPnLDtRE6Htm1jKsWyGIWhZtNS9j67/YwkoHus440fT+UVTnr8dzj5HXKpD9yArktuxCXcTnSVEteATLSfhLlxNVfyzF2/Wt3AEWIycxoL7gNTcexQcXzSggFl2ZBrl5GTjy6kAu4wwMd+eE1nDWWYtjUeftAIxW/yZ6Hsk0MGUCbIcNR/55PypOh3u8lR3RoOiZF7AyMziW5XcWYsn0+gH3ORTKt4mIKDTKaKK8WS6xMLDw+8IXsHGF3IzlxRmheOC2t/b0EbUhAh7U/cseVPAHyczsfNxnCP01Ot4WHNz6LPZFiNog3XD88VW8GzqYZqDPygpdy/BhYNDPDL29rb48XNRKIKfdFaUjiGeZdR+W54pmwrbKPdjeR9TyBHxwVB7All8dQN1F4R95XKV4fusu7P7Vz/HUi+V9RC2H34kjh2tF1y+ywRf38P3AwlW1C5u29xW1HBfqsbe0RRT1U7NgEptubGH0MOj5k3740FTVXwwnC3djNY5UtPR130v0+I4XPS6UPb8R+yJFLQeLtqMvY3d1aKKA0eXhbj4s7VrE9V/NouBUG2DqZxzLTWYEhwALu2DVlWkw18wHc0aSIhm/ARcaT4htNqqM4rqnzl+GJUJzBDyo+d0/RRG1PJ0tKNn5e9HFcZIORQ/lxGHNHSIyFdI0DNzvv4xNL5bDSkQt+QiulvvQEh+pb9eLYSmf1uLtMFErocuJuvJy1LhGWdVydMP++nPYUhIpaoOwZyqx8/eS0BL5HFhyBQ8qAQVyf7wYWn5JZE//G/5vhKgVIWvG78SElVPMuN8iDJLoyDUayMkz5rltOHg0KGoJrN8Dt3DIyrai5rg4p9Tz82CK6mrPM8kIywLhPrphP3ZMfH7FyGj172jMI//pcmzZtKuPqOVgO1Bx8E3x0EWmxdy5QttRKBQqbMcQhkmSfPtljFYiz+Egn58XTMpC8Nvw57fEGNWosE68+75w5KqCad7Au+u2ulJUDbSRCDjRcEp0fWVSZyJ9xKP3BjDfEQQRwCRJ+yO+SE+jSVKMP5cN1c1KxOu0oc4+cMwb6/hYklRiKtKJC+5ABD7GW4ejCD4J/g9bcDa011MN/pmjBgNxKpG4rqF/caLHd7xwv/dqeHx5H1g43q4VNz3EMpndjxq8FnDZ0Cy4CBOhmhVt052M+dlzgt3OOmF9swXCUqKd2zfGniA3GnkhTFxlWtAwRs4yo7buyTS4+66M0NRgT5XjSMsgB6md9VzyOQH5HXmwCN4to4m3HiWHJGJumDA3Stb3iUmhthhXnHkb+yoGjnP1n6hEnTAnSFItY1aY5xem5cHCW/PIQV/dn44OnOAK3bAePR4Skto7o88ZERauyv0oEyZZP7j+U7IOKbOwJLv/Z5AyJw/ZQpy+txnvxphsSsqo9O+ozCMfGv5cDsdA8cUXmtEkSVSgmsF7s1EoFCpsxxL2SsS3T4z4fdzAwJSpD20E2E9saBpo0eVx/48jZBlTp+vDH77DwPOFxO0seTLkI3ak74b7oviZ6rwnsHaBJMNjvJBpYcoQT1T9p+qHnhRjqFz2wPuV8CYGk2+aLPwyfPzusJjJyTcJmXrGmMvEUiBcQzJyH3kSFkkc8+CMj/EdC2wgImA8Gp3N+Eg0lkA9Uz/6lrZ4QQ60GsUDLW1WVt8kcVOyQ27IrKMFDZ/a0HCWv4AZZmRPi7yYZJju5IUwgLZGW79xuOOBuKx7KVm4Y4ZwNyzsVmtobR6ItuOStmF0MAiuvKNI218q47Jefvm5JLfCrPuw9iEjlCM+HI0zV2KY3wEn7J+Izy1mpg7pksM8pTGDyyjN4W2G9ZPQaWT/nHOKSbI02pC1NypdLXhL4hXSLxePoeYj4fAkGYZFuf3sAVTIvVucj+76ajF/xhAYlf4dN/PoItySskryKaQ8IYVCIYxYGlCGz6Wv/JxbVfCZlAylgnRHDA+h0UamQWqqeNram2LGSq5MzCBMkZwiTlFAQco3DBTnORi9kraZGJ9l3P7ecbQtKgzG9kzSwLL+NzAVnkTNseM43tCCthgE/KDcqEWqJHvkWYdjVHo57OAkLu3VCy5JiMB4OYgJuHDsfSeWPMQnD5pqxtpdBhRYj6Gmvh4ffOgauA7xeBnf8SJwEe0eFsLulPnuVKhkGNfibSAc1ma4CxcHBe1MI0zKSlRJYgCJG7KBc3Nk4Wg6Dm/AB+tJJ1bO1nHlZUzzVCirEMUxJhkwX4jHDXSg2Sp4loxT4rDuMelapAoiLnARZ88IgmMQLrhw5q+AljvDYpA6g9RzGihWMt744PhvySnNCPB/WA1rp5HPqZAMffEmHFjYirpjtairPwn7BcnzZZxztp2MZz60Ra4IlqjjLz91RmroEBpIRe6ja5A92P3IlNAI44NRQkmsp6HDwgguOCXeQAPRjbr3mrF8bg4naJk5P4BFU42yyO7USpNGuXDsvQEymQ/AaPTvuJpHUsMIyRxPnOkGaB8K5dsCFbZjiP+ih1uIhMNW1ahvGmJFEXzQ8ci1ZliuYe9GKazz37D7DS2efTiDP71noNTlYCn5ebwbbXYrrHW1ePeEc/gF0VNUuCU007rh7YxxUxkrkxTQfl+PWWkaqL6rgPLmyZh8owKasXAbHCNIzPdB7RasFizuMlJftRCryY/fA0dLPepqa1FzKpoL9/U2vln4/WSM8SvLJDniYK8fO5wn0XRxcTARDaNDljEZVbXCHEqGaR7vTcI60XQiaMlyn2yG42EdVz9UP88MdYWYhI3JNItZgS8044NxrmvjQZJCIbHae+H7ItZP9cBL6tLyzhnKlGB2+mtHAkrwt+CVl8uR9oviUDUCrnTOsgxYlrHwuj5Gw4njqPlLPVySg5PxiL9Leiguh4IIUe6aGSgV4iE0lDrkWgYOA4qKIHJHCNtcjboLOSgiXhMyLRberUPZ61LhysBwjyRplP0vqIkUvrEyCv1L5xGFMv4JbbcpY8BZJ86yeTDx+0+1LgNpstZB4mHGgBsARjJS3KeqYT0fg8uUBP+ntegYibU2YbBwVWzD+rOFWL4sH7mzJa7IsmSkZeZxP0sfdqKqZD9eq4/IRBsLSUmSicaCjUcw9SQNTPfkw7IgC4bbxBIr31pIMpxdG9B2ahkeuj8XhmmSzZ1cBX1OMfez3FWPI/t/jyqpxeo6HN/suJxrwyTghLXZh4J8YqFiMNuYBaa2Piiu5FmYnxHsa+KGHMpofqEeTa5l0JM6uulmZKdUooKzQDEwzBWT4LmbJa621zHMJOH4lNAL9psYbzbQi17JUs8w0s+59vDbS/HMRgeKli3DknlaKEO3w0CpNaKA/CxdBvs7r2L3H1tG5mGUSMKeIQyk3jPMxNBNge1oQU1zO/G1iZ2vWmGNTFo4XAJOHPvAhaJlwZPwtJw8GEqdYjb9iKRRzTV1MbnI90ei+5fOIwpl/CORK5RRp6sV9rOAaTb/zTPMWDijdPB6b6PN5V5cIjVj+eQOvlPvoETq2ncd4LVXYp+9EgenZSD3rhxkz82CQcvXziUodShYtxXqScOo59jbi8uhNmL4zeFwbR4MtJZVePLhPGiFZBsEthvuz9vhueCB23cJ/h4G6bl5MIyTMNjRoRuOmkPYUvMGlLPnwZK7EPPnzoGWq+kbRK7NweqtKsi3bhOTn1x345uB/AZxc4sef+y1Y8clLBy2Znjz8zjDodyQhSymHlYWYIyC9ZV3Qw5dvwd1VheWz9ICzEyYzApUkNJDMh2yDEJ2cg+sJ6TWo+sXtke63iSB+U6MUS+yJHIuFyIuh3JjDHuhBWW7W1Am18B0Vx5y52XBNEcDuWClZFQwFG/Cjlt2YdPLI09alRDCDhhV4FJdAAAgAElEQVRY9Ao13QFc4rw1+IM9jw2vldQO+2kTD9pq/wL7/dpguEBKNgrmvg47nxxKLk0adbEOVY2CJ8bwSWT/0nlEoYx/hKWcMiZ4YLVKsuPKNLDcHyxqPq4ItMMj7hih+p6YCOl6g73QiprSA9j+9GNY8dMdKKlxSk7tFTA9vAzZ8iHetdeDSyFlmwy1SmJNHBIM9Eu34PknBFHbjTZbJQ5uX4eHH1qJNes2Y8uLe7DvlUMoeeMoThMXwm8lLLyn61H2yg78/LFVWPOrA6iQuiDLdXhwRVAkcVx34zsZt6RIxtiXF+G5xi24XMI6YQ2akgETFyPLIMtsCLrYStyQBdw2wRrLQD83O+hNe5sRJiHe/WIzGj4VXn190+vzSeLvlFB8N9b7VYWFoXh9kgRM1zr+DjRVHcbuX63Dw6vWYecf6uGSBCmqF63AgwbJAdE4Qs27hHNc9sEtzA1S0qwz9AuYFJUYOztWdNahqlkQrMnIyuPnIlSw/EBMGtV2/C+iJTceJKB/6TyiUMY/VNiOMe7ao2iWCBDlghVYOQaZJwfGh7MuMfmKUifJungdQ05+K/ZvxvrfSU7tyab6tiHetL8dZyWJOFJ1YobpITH9XjxerONj5Xyw7tuAp148jKqWjoGTI403IkVWQlchFm57LUq2bcCLR8XgLUY/B+Ke9Tob34wWkvLMcJ87KxE1pAZoxIBIaPvHCfZjWFuETLAKGObOBHFjnG/g3ZDPStyQBTpsaPgs+AujN8I0BdDeKWZVdjefhCOyLa5T2LMutAv3KpuK9FmSg4+BmKbFrJuFF7BoPyukm+a50itxc2WQND514OB0dcBavgfPbDoMe0jcqmCYI5yCBAlPyDdW2TeTob1NUvaqwxUqb0Xo+LRdnO+3ZuCOMffa6UZzjTVUToiZk4dcEnNLkkbp+AHDOnHsPxMY7B5j/w5GwuYRhUKJG9fClub6xm/DkX+X1ISVqWD52dMoEqqrxwyDtAWFKDJLYkTjiOPDVjH2ZXoOLHOu1R3M0PGeOIqmkDAlNVOHeO+Bc2HlGeSZeciVuhHHiHquWUh0C5ypRkmteNhwTdHrhf9r4YoZqFWCa2gi6UbTezYxfp1hwEhWv+tpfDN3LIQhNL58sJ86F96wY9L+I4WF3SauQWp9BrSZZk6sEiuVy3pcXJ9CdMDayG+WJ+lhMmlwx98IgsCHpobRzO47xpASULzIJ3HKhmzBajYwaQvMYukY1gl7RO1btvuS6OYuU0B5jSesYzuOoqZVdNtmJoW753R/FVK9gFKaFHAUmZKNXCGrNwB3a7O4rpHZYLfhtHCZjA533SOM+bGDtR9F3Xn++xkd5s9TQbvAHKxGQLL5flSNmnjF9Q7AYP07KAmaRxQKJX5ItnaUsaKtcj+OnBZcdUgsawZWbt2ClUKG18FgVMh97HnsWL8CK5/ejnWL4u8qzJ46ihrhwURciP6+GPpY9N0UFdShTfboENqWkBT4kviwYcPIMZkrJ0KsXV64SSmVIcGi6b3jcAsWE7kRD/5YTGDTH/Jp4UmhFDdJNlnd3eKGMhopWqSPcrvHDNuOs5+Lr9bcYe5bm1QCM6sYRXfGQfxOTsZkYcXzeuGWdGMixrdydg4KChYjO1brWAzccqtGSFAbHUaLB380T3zNBStqPpbcKCFh7R/+PXGZexLYj2ywC94tGj0KFvBziD2HBj4bciRtJ1r4MkfJMJgKYZjJv6KzGVZH5KuHR+iu47XeJIJAB459IIa9MJnFeDBzkAVcmYPl+WL6e/9HtagJHfDxnPtfiMuhCll3iq/vC4O0vOKgtW7ckkyWiRAeT/jhoft8h2gNnZIRqp8cFZkC2cvyxIOBWFBqkCpZ5vvCwPCjQpiE1wRcqKuNiBPvOol3bYJ3A6AteBRFsWhbRgG1JB9BXOFLsglzRZuZh7syhYvyoem9k2K7JpSB+3dQEjWPEoRSZ4bFkgODZpC5TqFcRwjbPMpYEuhAxW/2o0ZaR2+KDkXrf4M9v1qDpXkZSIsiUuTTdMgtXoNte36DdfnaoIuqTAHDoiykxft+Ai5UlNaHrCKMthjPbl0GU38PQrkGuQ9twoFX9uLAjjW8ZWUU6PKjWxCQmIrZGVKRzyBttpYv6xNEPncFNv9qPZb3a+lmkFZQiCxhI+FuRlP7MO7DWYkjH4qHF+r8p/HsMqHEUASTNMh9Yif+Ze9e7HrcyLseA55OcbOCdFLPM+J9PHJDMTa/sKbfv489HWg8JXELNhRidb5GKE4jIRna/DV4aesyiQUyGgz0xeuxbdMK5E7v5wFOPCHuzQ0JPq/dFu6GGufxrbZswssvPIXVj67Cxl+/iHVmyW55BMjNa/DsY2aoo92mXIuCf9yEpbOEP3aj6a1yOITdZIh4tz/PZT+8l4RfgNS/yQq1N0Gu1YUnPBsqbAsaTvFzaNIc5M4LHnawZ21iNuRI2m1o5OerfG4OX+8W8LbUR2mXYTDE9WYscR8txbvCtJOpUPDkM1g6u59xmWLEyk0/QbawxvQ4UfGH+r7io6sZTZIBlpb/qGT8SWA0yH10C3Y8bg5bf0eVqTlYu2UL1hX3s+4SW/bsQiwWvJE4C7VkzSVnQq3NEldlBXJX/l30tWmqEcs3v4iNedHWtQGYmod1v1jWT9K/ZOiXPoONBYIgBLx15agIHTgLsGgqLUWTcAgkJwflm1DUX1/LkqG3rMK2vXtxYO/zWD5bWD/ii7u2NtR2jH6xWDLwwnFUNfdZpIZOHPo3FhIyjxJAWuEWvLxjPdY+8RS2vbQTq8ddiBuFkhhoVuTxQqcN+7YC7MYnUBCy8DBQG/KwnPyQh6rfB383CxYMJt+sgDzK88fbchjPv1SNtgTcl9/2e+yu0GBzkZYTIfLZxdi8Nw+OFis++vQifP5eJMkVUGkzYMrSQS1YOadlwZKpQFN9+CYhIbhbcaYT0HOhUQz0D2/Hr6cfx0dfAuqMhcjWJcNV8nM8U+kBppjx2GOFMKUAJoMRufZ6HHu/Ho3/44GPTYLie1rMzS1E0aLg/YLEtf65MlwQxYwPdQf3w5S+HrnctZFNyha8vKAVDbZWuNwkKYscyhk6zJ9vhpbfUMrNeTC90YK6LsDbaINjuS5oKZcb8dimNZj8x6NoOufGJUyGamYG5i/KR8ECLeSXPXCdnwzt9H42rmOMq7oSTfcIBx4KmB7biT3metS1noOvJwkKlRaz586DYRoDBIg7rR+G0Al/OMzsv8PaHwfd2gx3LETBiVrU1DfD0e4Be4OSG4+5PyyERdjY+Z2oKG8JWQ8E4je+k2HKEQ8kiIjIzs+F3FbdVxgMEX/XZWjz12NPlhNWazPOXvDBP1EOVaoOc+eJ44bgtf0e+2qiz7l4tn+IwDmcPtONIr7UknzuKuzYooPV6UPSdCPuIta8D/fgyRfFA7KhwaLZZoc/hyTYI9nFybv7c0PmCbjQ0NiBpdM14NzPuX/2ockqCf8YCUNZb8Ya1okjuw8j/bkVwTq+ygwsf+GfsfBUM5pbXfAQN9sbFdw6kp2dIa7fAR+a/nUPyvoIKIIHNe/Uo8jAJ2OT67B8+29gOmFD07mL8MuSoUrVI8tsRBo5HOxywu6ZCUPo8GW0UMDy+E9gyUwGMjOQvagFNe/VwsrdN0mypIH+zjzcVyC6x7rr3kTVhYjr85/EWzUdyOZNoMz0QmzbnQFrgw2nL3QDcgVSSYKyO4KlhNjzrXBNyYBeOCCIAXIwue13ZthtzbC7LnL10+XqmTDMzYZJsp6zHdXYV2KLvqZ01mLffh12/GNe8BCMHFS88M9YYm9G02mSDLIbvUywb+4wzYE2VPdIi9wfzMGfT/ddH0dMVz3e/XAZTIsUwKTk0IGtq7Z2mM9UKXHq31hIyDyKMzId7s6XeIUxGlgKs3GkpTb6eKFQriOosB1PdNpwcLML9qWPYmWBUdxY8DByBfGKjY6/A3Vl+/FKpTOBC1c37K8/h+1f/wzrio3BGoCMAnrzYujN0S8LXS7UlOzBwdEQtYSAE2+/3Yq7HuUXdZkC+kWF0EsuT5+fD/1/HIbjm3bYT7lgyiPW7vBDhD4EumH/00vY+350oRATXht2P7cH7IY1sPCWRbkmA5bijKhvZzvq8druA5yo5bhwFP9akYNtS/mDhVl5WL05D6sj393ZirJ9L6Ei5Wc4tNYYxRI6DiAbr1d02PEkv/Ei7Z+Zh6WZEdfmd6HmlV042FWMA5nR3XDZTieanT6kzVaAG4+LikF+ouJ3oWrPS6gQLFdhxGt8X8aXfyWWRfFQgSFu0CSWLOz7hooPDa/sgbfwaSzV6ZBbqENu1I9g4ba9gRd+O4CAjGP7i7Cwvl0N17xiPhY82KdF0j41FsKiqUdZ1PYfHLbZBrvfLGYmH8ANWcB1woa2+4tD8XzwtsIa6Z49XIay3oQ8ScYO1lWJ7Vt7sW79w8gmh0YgtbpzuJ+oCPOvPtwlV4q/8XXsrtCGDjxJaEzkmktgO2x4bffL+GTBTvxmlmh1HB1YnDllh/t2M/dcZTRGFKw0oqCfL/c2HsLOV1uizFcWjtI9KEnfipV84jIotcgu0CI77LNYeFvKsfN3tZj9zCuxC1tXPSq+ykBRpgaGPA0MYZ8p4ndVY++OQ6JVNgpe2wFs2uXHxp8WQs95fCVDbchBQX8fyvpgf/dV7HsjAaKWg0XT0eNwLyoUQ096WlHzwTAXgzDi1b+xkYh5FF96+yYJHFIxYwrl2oUK2/EG64H1DztgfVuL3MX5yDVnwTBDEZboJkSgG26XA03/VYvqGhvaRrZrjpFu2Mt2YI3NjKKifCzM1CEtdNrLQ67rUweaPqxF9dHRui4Rd9VLeH7SE1h7vzloJRBgfXCcrEbZ6+XBE2K2AzX7NqLhvTwsvT8fucbgKXsYgW602etQ/adyVJ0egagVuFCPfRudsC4pRtGibOinJ4cLT9J2TjusdUdR8V6rpNQQgWyqnsOWrx7B48U5klP2IGxXB+y1b+K1P9WjjdQ1TLGh2WsU3QnHGd4TB7D+i3NY+ffFyJ0tqRlMYH1wnazGH14vDybuUrbC4c2Lfi8XbSj5pR0f5NyH+3+Yg+zbVH3nS48HDmstykrfQdPFgdze4jG+WVjf+D1qpj2C3FnB+2K9npAb/7Dxu+BwtKKmcQPOLn0Uy/N5K1gIFl7Xx6h7pxRl77uibMrDiVv7SzlTiud3Aet+ci8MUyUuJQEW7o/r8Xbp66gayT62pxkNrd3I5l27SdxnXWTcZySfHcfxT+/Fcj4Dq/fU8biWFYl5vRknsK5q7Px5Mwz596IoLxuG6RFzj0y/ThfsJ/6CsopqOMTqMf1ADoSexdPnH8bqB/OCXhZSujrQ9F4pXiuzoY3UHlY44L5XE92dPmF0w1W5C0+dyMCSBwpx94I5SJsiGZ8c/PypKkVZ7QDzh3Wh4p82wB11DgL+jlZ88PZhHKnhP+O/O8DOjtEludeFd7e/joYfLsM/FOZAHxHqw150wvqfb+LIOy1hOQL6w9t4GM88WQ/L3xbDMs8APe9NIcLC3+GEvbkFNUePokkaDpUIPq3FsTOFWD4r+OH+5qP4YLD5GxNx7N8Yif88iiMktKa8HtmP5wTnmd+JP78ZJZSAQrkOmZD+/duvxvO+ZipZbL/nc8xPC6qsq1eBCRPi+Q2JgVwnyHVeBa70AFd8QOAqcMR5C37/3ynwfD2GZwCTFFBrUqFSyiGfCPSyflzq9KD9cw/8A+3RRwUG8mlTobpZicnfYXHJ64NnXFwXCZhSIC1dC9XN4ITF2XMdA7eXLBlqbTpSlXIkTWTh/6sH7ec64CUiMUEwShU0U1WYfGOw7XyfezjXs8FhoNTqkK6SI+mKH15PO1znr90ak4xSA+1MFecF4Pfy7T7csT1JAe3MVNxyM2kbFv7ODpz9zDPMkkgjG99pS3dizzINHCU/xTOVcTgYkULG64xUqBRykFqWvvYOtA2z0eLa/hz8+ExJAr7xof2sC+5ROXj7/9u7H7imrrt/4B+i3FKibTJrKA3YBrvE/iTlFbASfVHq0vSHsjL70Lo5WjvXzta+XN2onc5nVqe1j4/+6vzN6qNrtz6uWh42Wp4yOoVJaYv8FKzAz4X+JlklVmCOUEyqBvEC4fc6N7m5NyEJARIMet6br/on3NzcnHvu+Z7zPedcRyOtb6KFVAGVUoEp0liQedL2f7SjrVtYD2BkGEiV9yAlUQ4pCRS7LbBYorFeIuepRIpCwU3p6eu1wXr+3MjvH/6ZcYcUsawDne2tsHSN5Nox0Be+iXVZ7uwO80GsXF/u3hrHfY53kI4HBy7+o32Exx5KeN4A7BUb7NYudF4ebUUbzcL0/Y5EWO+j8GCmqaC5KxbWVvONX/9SlBsNbN2iOrClKGriYdRY8autyL2tCbtWbRNSyimKojjBAluKoihqpOiqyBRFUWHHQLPkWRgTWVjKi2lQS1EURVEUFWGRCWzdyc1kFJQbCY1yE+EcKYqaOOTzV6LwMRX6zvwBu963TJwTpyiKoiiKmqAiM3E0RghoyfzaCRU4hnXGMUVRNyUJuMVFdv17OdqiYDVciqIoiqKoG13YA1suiJ3owaFzggXjFEVFFVvtbqyujapToiiKoiiKuqGFPbDlgkKWLC0MYBK3yDC32LBHNK6QzAfiJHV6AHD2uc+brOjsOXGKoiiKoqhwYWE59j6Kvox1HfBi89i3BaMoirqJhT2wHXS6t8u5BsTcAsRIRKOfMVEaKJKAluz0Q4JastVPj/ucaVRLURRFUVSEdJ4qR8mpCB2coijqJhP2wNY5GIMBNgZ9l1wjtpC4o8MJECSSwHaw3xXUStzR7gAZfOZHdCmKoiiKoiiKoqioE/bA9qtrk3D64q24a0ofkqewGOTGQicId+oxicHJoldnbHFosd+Cy+wk7u9ofEtRFEVRFEVRFBV9wh7Y9vZL8HH7FC4lOWN6D25jBrhR3AnDnS598dokfNwxBU1d8WCdE2C4maIoiqIoiqIo6iYV9sCWMHXfiivsJJy9dAumx/Vz60gR0R4ekhFZco7OQaCzJxb/t/tWfHU1IpeIoiiKoiiKoiiKCpOIRW2Wywz3i6IoiqIoiqIoiqIiSRL2g0f7sCxFURRFURRFURR1Qwn/iC1ZgEkC3J4QC7lyMuKkEgw4B7nFmPhk5GCx7/VcoMnpHER/v5P7de3SIOz/6Ad75XqeEUVRFEVRFEVRFDWc8Ae2AKanMFD+j1twxwwGk+PI9jmuUJYLEQfFgaL4967XxJDliK8D8q4ksO3rd4Lt7UfP5QHcclsMLrb2w3HReR3OiKIoiqIoiqIoigpF2APbyUwMkv5HHGakxeFWmQRc7EqiRjKSGxODmJhJkJDglfye/M8TyA5ygeWAs5/8znXuJO4djzhX9D4DA4Po7ZUgvrcft8RL4GQHcfVrJ5zklMRxOEVRFEVRFEVRFBUVwh7Y3nrbJMjumoRbb3cHtYMx3F62k2Im4xbmVtwaKwUz+RZIJBJMkkxGTIzENVqKQbB91/C14yv09vVwP0MC30GyRHGEkeCavA/57yQJEBs7Cb29/ZiSMAlTEyah62w/WEfkz4OiKIqiKIqiKIoaubAHtjGTXCOz/CgtYgYRO/kWJNyuxO3SaWAmx0FCgtkYkqJMXhaDGIkE5H99zj70O6+hz3kN/c5+7jXk3yNtcHDQ/S6Drkxp0Z/JP7hGlWlgS1EURVEURVEUFY3CHtjym9Zyo6AY5ALW6bclQj5lOm6JjXNfA1ewSkZtSRDZP8DiKuvApZ6LcFy7BOfggCtdeZzw5zoEd5qRD6wpiqIoiqIoiqKo0Qt7YEuCWTLUSv5LAsbYSQxui5eD4YLaGNfoaAwZ/YzBtb6ruMpegaP3EnquXeaC2/6BPu41hGuk9Doh8ax70SuKoiiKoiiKoigqeoU9sPUMcHKxawyXhsxMvpW7Aq4FkUlw6+SC2q97unHp6kUuqO0bYLlgV5x6zKUIexaXoiiKoiiKoiiKoqihwh/YuiNbLg05JgaTJzHcnFp+9JOseExGav9p/xJfO7q5gJbMuZWQyblkkJTMb6XBLEVRFEVRFEVRFBWiCAS2AjL6SlY+FhaLGkTPtSv4x0ULLvfauO1zyL8TfEBLg1qKoiiKoiiKoihqJCQjefGIuBcRnuRaJpnb1oeM1NodXbh81e7Z15bgg1qKoiiKoiiKoiiKGqnIBbZ8ZMvNnHUFrz3sFVzptcM5SLbyEVYbFv+eoiiKoiiKoiiKokYigoGtWwwZrY3BgLMfvWwPevuueubTUhRFURRFURRFUdRYRW6OrXtElkszhgR9A1fB9l/FwEAfl5ZMjZCEgXyaDFNujQUG+nDFbofNQVaSHl5C1jIUZCrAAGC761F0oBadvj8mkUGVpkGCsx0mUwccTt8XUBQVCUxiKtJVUtj+3oSWrtDu6XEnUWPxqjzMIpUI+tD6l/0oMUXpud5k5POXYfk8d/1ur0fR7/zU7zciUiZ/kodZXPd8H878eT/KztAySU0sYa//aV1N3eQiF9iS9GMMop9s4xMzyO1XS0ZrnYODmBRD59UOj4F81lwYv/UgMu5TQZUoA+Mzvs5etsLS0oyGE9WoqjHDFiAYjU9JR/Z8pestL1hx+J1adIpfy6iwZPMmFKjjudc4TAfxypZyWMSvoSgq7OTzV2NbYRYSyL3NWlH1vzdgb7097O8zZpMVmDU/E3ousAWkp39LA9soIVOJ63cbDkt86vcb1WQFtPMzkeF+LsY2kcD2Rv2w1I0oIvU/raupm5xPqBQ+ZEVksl9tz7XL6LhowVeX/oFrbA/IFkAEnVcbmFybh8Ide/D2a6tRYNRBoxwa1BLMVAU0cwwoeHEr9u/fiBUGFaSBDxsQo8vDYndQS0i1j+OxB9wt2AmJgTxRieQZCkgn8segbnBKGB9zB7UEo4DxcQOSb/BPTVGB0bqbulnQ+p+a4KQKJM9QInladDW0IzpiS9aP6uu/hu5LF7g5tk4nGQIUFo2ifEhkyHj6ZRTmqUccoDLTUpG76lVkzPkDtu8uh6XX59jBxMYO+VfGta3whMRkrsQba7MgdXagZE0his5PyI9B3egkQKxv16KEAdfdSLMlqJsQrbupmwat/6kJTYklm3ahYCbA1u/Gsh21iJaJIJEJbN1b/RDOQSeu9V8FmWdLkJFaur2PHxIFjIUbsWq+wusf2S4z6o7V4kSDCS1tXa55tWS+bYISKbN10M9/EPPSlO5AmEFC5uN4MusYtlaFns7InizHYYsOS1SuXhf2bAU+OBUtRXTkEmbw14OiopizAx8drofxhUzISfXotKPmgwq00aCWuknRupu6adD6n5rImCQk3RmdHyAygS0ZlBXNo40he9m60aDWn3hof7geK8RBLWtFQ8l+7P2geejcWScL2wULGsivqlIcmGnA8uefhnFmPBxNxXhrBEEthzWj6F9fgmluKrd4VMMpM2wTN66FQiH3d5EpKup0Vu/EixYdMmZK4TA3ouF8T9SdI0WNF1p3UzcTWv9TE9ZUBRJujc6zj0xgyyMBrmj0lqBza4eSznkaq3KV3KrFnF4LynZsxoHToTVyHWersffndTicrkH/35qGrngcCtYKU201TKG8NqrFI2GaLKrPkKLEHJYm1FjEf0NRNyNad1M3H1r/UxPSXdMh851KFSUiG9hSw5OoseRJAxI8r7Sj7q1tIQe1Hs4eWE41ef5405IkQHHHTfvpKYqiJiZad1MURU0IzPQERGtuJA1srzPp/DwYZwgn4ThVjDc/CX1+7HXHxCM5OQUKuRTos+HiV+3o6OgZ+yRyRobklCQobpcCvTa0t5rReTmETztZgYRpIbwuEEk8Eu5OQtI0OWLBwmHrQKvFGrl9faUKqJKV+MbtDGJZB2zWdlg67CO6foxcCdWMJMinxoLpc6DzQgss58f+HUgTVUi5UwHpJBaObgtaLCM7r+sqTobke1zlZ7TXlROp8h1GYfueuHtOBeUdUnc5ssByfuzfuXSaCklJMshjAcclK9rPd8A2ksXt/CH3qSoFSQlS1/d7oRWWUdc7DOQz7kGSQg4pHLB1W9H+ZRju+dHWYX5w3/EMhesaXraivcWCzrFewwiVbWaqEqoUBeRxgONrK9pbO0Kb2jLWuvtGI2HATAZYNhLzgiJU5kMkTVQjZYbc9Wz5qgOtX4zxfpuqhObeJMgZFrb2FrR0BM92I89MZZIC34hnANaBi/9sRceFsT8zx81EqqsDGe+21mjEyaD6pgoJUxngqg2d58/B0j3G+zGcx3RfQ8U0971kC9PzlWzSMF0NbYocsQMOdJw1o81nfmKCQiZkmUYZGtheV/GY96BOtAKyFVX/XQ3buJ8TA+P6Q1g1x/3Gp/bje9uqgwZX8lkL8cS/5GDe/UrIfVb6Zm0WmGorUfJ+NVoCBaMSNVbs3orcRIDtqsCO1W+jgQWYxEw8sTQP2XPUSIgTXwgWnaerUXTgEGrO+1QsUiUyMrVISZwOxZ2p0PA/J5FD//QaJF8VHwdgzeXYVW72/kt5KnKX5uM781KR4LtnEmuHpakaH5T8CTWW4A/M0MRDteBxfDf3QaTPHFo5sJc7YDpWiZLSCrQEKgyMDNqcpVjyiB5apWv/YTH2QjOqPjiIoioLHOJ/EJEaN+LQC6kAemD63VpsPGwFEA8NOe7CbGTM8D4u+V7rDh/EAX/zvkdi6kJsefsZaLk0FhZ1O5/B9uM+36mPjFVvYoPBnWJ+thgr15b6TbmXzjRgyffzYCQLqvmkyYR0Xd3GXL5DNXMZdu/Ic2/x04GytYU4cNb7hyP9PTHTdVj81ONYNFc99F6+0IQjxe+g6KT3OQ0rTgl93uN47OG50Ez3qSCcPej8vBEffViMslPWAPUMA33hm1iXFQ+wFpRsWIcicl0YJfRLluK7j2RCNdX7LNiuZtT8dzEOVBMQaYkAACAASURBVJoDlnkxZnoqFj2Rj4fnpSLZ957vtaKlsRaHS0qH1je8cNZhfsVDZVyKJ7+TjQzfe5zUScfL8Z+HKnHF788GNuaynZiPX+1eCpUEsB3fjRd31nLXW56WhwLyTJit8L73WDtaakrxn4cqhj4PwlF3+6Nait078pHMLcrWA9M7v8DG8g5/rxyC0S7Dv/8sDypSJlgzDqzegLKuIS8bARlyf7kHK7TkPmDR+ckbWPNGfdAyyuhWYve/Grj9rdkLFdj60tswBasipxmwbvtK6LkhFCvK1v8YB3weccSYy3yIAtVZKsPjePKxh4eWZ0cHGqrfx++La9EWoMPG65jk+yzr4OqD7OUvYPm3xHVXD+p2Pjf0mcIokLEoH4sf1kOjjB/SKOfaLSc+RtkHFTB1+35QBvoX92DdAtczyHGmGK+8UgpLKAv9SVRY8uomFMxyPU8tJYV4qdhdFkOo/8Wis64eodG2tSRKFOzYhSUq1/t1Vm7Byjebg745s2A9Dr6oc33XzibsXbYNVeLyFaAOxzQdlhQ8jkXzxeWKYGEzn0RZ8TsoOx1gACoSx/QhnZmFxY/lwZiu4joQvZDnq7kRH/35fZQd7wjwfCVEz9jeDpRsLkQRqTOm6VCw6lksTlMI9wjbjLd+vAUnpmdhnkYBxR0KpOiUnrdl7l2IwjWZnj9znFZ8+s5B1A25lyKPBrbXU1w6Mu4TNfo6avGpn4dRVJEooP/RGvw4J/CeuYxchYy8lcjIykLRr19HiSl4MMhM00BzJ4OLqS9i3ZOZPgEtj0FC2kIUbtMg6dVXUHRG9JRXGrBiVZ4onZsXj2Rd5pB9QdlJ9WDKzZ4bnlHnY8PapdAGyqtgZFBl5qPwAQOMf9yN7SXNQRslQU1NRcGa1ViiDTwPmIx4ZOQ+g4wHv4WyfdtwoN67ApVq81G4Kh8ZvgGDCJOYitwXXoX2m29g0776YTpL4qG5TwWmXomCl3/itaexGPles5/cCK1qP9bvqkZnKA/1ccMgOedF/GJ5JhJEt5SY13Xdsw0HTnlfV04Eynf4hP97kmc+g1dWLXQ14v1gEnVYXDgb6dUnEfwuFkjVeSh86XuByyfpZdZmoUA7Fw9W78dr+2qDlyVGhVkaGZjedKxa9wyylf6/YNJoNz63EVr1fqx/ozZImWeQbFyJn/0wC8l8J5ivOAU08/OhmZOFeQd3Ytdhi6e+8GfMdZivOBUWF67H8jkB6glSJy1Yhi1pOlSdHbpdm18RKNtyjRopcWbIn12D5wLto87IoDE+gy333YNdm/ajTtxZN8a6OyBLBSpMj2JFGtk+Kx7avDxoK/cHDw45MmQvzvHcD45TFagaU1BL2HHipBk/0KaCIc8xvQHzDtSjKlCnLxikG/RcUEswiXoY7z8EU5CdCuTzDUjnn18X6nHiC+5HRcJf5kPjrrOqpVhUuAYFc0SNZTHSwZG3GtpUFXZsPoiGgNeGiOdGZxkJYFy7CSt0vvcIiytXRe0Dcg1nLkRh4VPQJ/qvO7jXkHZLrgoZD30LVW/vxFufiDvdWDQerUPngoVcO0M6ayFy0z7E3ibv9/GHSc/BIndQSwKEqqOhdbD4mhB19TDGta01Qnwd3pr4VJBnIgO5OgvLN6RC+9vN2FoZ/LsM+zH5LUG/rfbuPBQjz9dZWSiYNReLjKXYtasUpqD3E0A6omfdKwO6NSh8bQ2yp4sPSPThioNBxgursULn+28kGFZDP9/n750daHufBrY3nxkqzwOUsP2tObQewOtGhuyfbERhFr8lEYvOpmp8dPxznGm34opEioQUHR565GHoyWifPBUFP3sZ7IYtKAu2l6wkAfc/vRG5Otf+vWS0sa7JjHarA6x0Omal6ZGudo9sxqmw5KfPoOWn+9HA97x1W2Ayd4AljdRYORIS+d5Ysnp0F670eV+wHqsovXJqJla9LApqbWbUVNXiREs7HP2xkN+lgfaBTNeWShIZku70HdoZAWkqlm/5ORbPEB6ujo5mNJxqRss/7LhCGj13qaGdPxdaErROVWHRogdxpL7cMzopz1qNbauyhOCNjNz8tRGnWjpg7wWkChUy5s+FhtswmzRmXsCqv1uwtYqMxgbGqHKwdrMaGeTB7z7mX78gKaOxkM/QID1T5xnVks9/BqvMzdhYHvyY44mZ9T387EeZnsagw1KPqup6mNrsYCdLkaCajYz52dCr4oGpCUjybQtxIlS+wyic3xMZmdr804VI9hTHHrSdqkNdsxntNhaMVIGk1HQueyLZkBXSp2DUS/HKhnxo+NvEZkHNxx+j4f+1ovMSwMiTMOuBLCzKToWcYZBsWI3NTgfW7GsK2lmkSF2KtfkGZMgBttuMxlPNaL3gABsrheJeHebpVO7RZgYJC1ZiXYcFPy/13+hIzl2Dzc/qPPODHOfdZeWcFRd7gG8ka5CelQOjTgGGUUD/7HoU9m7A9uog5X2sdZgXsvWbd1BLPnPd8Ua0nLfiipOBXKmGNlOPDGUqjHymTVARKttyLRav1SMjjdxQZDSjCSeaLbBe6gMzTQWt3l2XkeBCacCPVzSjZYeo02EsdXdQdlQdPokn0rJc3/M0PRbPfwemT4bpnkk0IHc2f0NY8elfTgYtl6Gy1TfBsiwVGnLoOA0y0uJRVRvgXOJ0mKcVZ8vIoM2cDeZUU4DOFRnm6e7xjK50NtWjxafTMSJlPkRMUiZWvJIOIwnueq0wnarHmVY7HIiFPEmD9Ad0SHZnXzCqPBT+uANrtlV7nnn+MFMV0Hw3Hz8QB7XkM3Mj9DbYRKNE5JgbNi2Dlq+TSLvFdBJ1fzWj3c6CpIYmzUyFXp/q6lSXqmBctRXyyRu8npusuRI1loXuEUMZ5j0yFweaXNkKgcVDb9ALdU1TNT4VnVuoJlJdHdB4trVGQ5KAWd9eiexs0r5iYbN8joamFrSTukw6HUnadOhnuTtmSID5o5ex/Mt1OCAeZPEV1mPKoH9hKwoNQucQyTJoPNmEM2TqzAAD6R13YVa6HvqZpD5mIE9big2bpNi66SBMgVL33KbcpkLuqhe8g1r+nvq6EzaWBdvSDMs0OTciOkWhFEaLHVa0dfs0tAfaYff5q/FCR2yvI+auJE+FR7R/2X4dz2Z4Cbmr8Rwf1DqtqNu3DbuqvVMdLGeaUVdRiexVG1G4QAESzBU8n4e6XwjB2VDx0OjUgMOCqnf244BP+mxZcTE0T27ClnyV6+E9PQuLDcVoOOweceuuxd71ta7Dqpdh/zb36K2zC1U7ClEUJKhOeCQP2fyc3O567Fq/EzXiB4+pCTWVxTgwIxPG+XKc+XPwFLLA4qF/ZrUoqLXDVPw6tpf4pk1WoOSQDJpvL8WTGUDVXu/rZuuwukfOWHTWl+Kt332IBp85HyUlaizftBGLZ5JWVDwyHsuBpvrgkMaOl8RUZHAdFaV4a18xGsTXAMCB0iys27waeu5aMdB++1FoK4dJjxs38cj+lxxX2iEAx+m3sX6r936wpqZ6VJUeQsIcAx5WduKIny2xIle+wyhc3xOTih88nycEtQ4zSna+jiLf9KrKUhTNMGDV2pXIThzmc8Sl4gerhaDWYS7F9n8r9uktNsN0qhqHP8rHKxuWcgFwgvFZLK97KejoR0ImWWCvBy3l+7DrnXqfEd5i/H5mHja8sgxaroHMQPPY0zB+vA1V4tFBbuRmKQqX8UEti7aqN7DpN/VeW6pZzprR8EklKnLWYPNz5LUy6J9ehuymnajxOZ5gjHWYSELOSq+R2s7j+/Ha3mqfFM1qlP1XMbTffxnr8l0dgsFErGxLlMhIA9iOehT9xz6UnfEO1kqKlFj889ewPM0VqEkfyMOiGbVCnTyGuns4bGM5qs5nYQm3hkU8tI88jIRPvOtTX5ocA9zbuYM9W42KoPm/I9BdjxOt34NmlqtO1j6gBVNb7zdQZdIykeGTZi9Py4SGafI/4jw1HelcxExY0XDSO+2LiViZD9GMLBhJx/3pYux6oxQmn3voAMli+teXsUTtLiNzluKJObXYG2SEGncZsOKbSjBOO0zl7+DdIyfR0kXmMpGVtRnYLrjPjVGjoFAU1F42o2SXn3oOpThQpMPydT/B4pnx4AKXH67GEvMGlPDtB2cHjlQ3Y/GzZOQdkKYZ8NC0Whz2eVZ6mZYNo47vpLDjxNFRdJRMsLo6kPFra41WPLTGLJC03Ko3Xsdbn3i3bVF8CMnGF/GL590d6BIlFv0gB0fWB6tTwndMufEF/NgT1LLorH0br+3zfS4AZcWHoMp9Eet+6DpPrrPoGTNeHGb6g2L+0yggU14um3H4v4rxp9pmdDrAdXDL4+yuZ27JFrxUQq4vA+OGQ1jlHr1lm4vx8o5av/XZ9eAzC40aT/LbpZ5eVtKL6LB7NwqiijQTBfmpnvnAbR/sHhLUejitqPnNbpApMAQzKwff0Xr+1T9bE97a9Ar2+gS1Lj1o+a/f4YhnAIaBJj3dcy6jx0Crucfz4221pd5BrQgZ1Skr9jNHLFQzv4OCbGGYsK18N7YOCWrdnHa0lO/Hxl/uR41vGpylGK9u2oldv3wJq3eUDglqOQ4zig6KerwT0zHPPS8lMBaWwzuxfuvQoJZzoRZ7ikWjatPTkSFcuuuL0UDradjZ0XC4Gm0+IxYuLDpPVaCorGlommqky3fYhOd7khvzYfQEqnbU7P23oUGtG3u+Gru2FQ+bTZKcu0w45uV6vLnDN6gVcEHvO3x5UiA7z+DVyTcUmSe5GRsP+Aa1LuzZcmz/rSjlXjobxmw+s4QnQ/b3FwqBy5k/4H/5BLUCFm2VvxYW8puaiceMwpwiv8JRhzGp+M6/CPUsay7Ga7uGNl44pFH/7r9hT62flHqxCJdtx5lSbFy/c0hQy2E7UPbW+2jhMzYlKsyZ4/u9RIjTgiNHmz2NLUZtwCJ1kPeK0yGX77gl5a2iGm1BXj4yVtSdPOf5EelsHbgpt0MwSJ/rfrY5zWjgt/yblg69ZsiLOUyaDrP4lPruRtR9Ln5dhMt8iGz1+7F+69CglnO5GUW/KoaJz8Ai5/zI3ODP92lKJMfZ0fCbDdj4Tq0rqCXYHnReEDKyEnKWYhF/2zqtqPp14HoO3U04sP23Qqp8nBqLn8zyOg/bsWo08iNfcWpkPxS8LCcbviV8zx3HcPg0fyOEbuLV1f6MY1trLHotKHn1F9jrG9RyXB2he48KmTtcnTJzmDcMxzGZVBR8V1iPx2H6A177dYDnAtdGeAPbPxCmz8izl2LJMOcpVSohJW3HzVvwVqUrqCVYhxWdPoMn0Y4GttcRw4jnRvUjIosfhol0nsG9MAUZEqvHex8Ic1T9Ys048gm/OacCGXODtSiAtppiHLYEqfSdZpw4LapQku5ByphL72Qwt5C+VxcmVvx9hJf24SzPiCJp9L9XIjS4RspmrkeNSTz/Zyi25XPRQi3TkUJScINxfo4PDvoJ+EQcnzWh1fMVKYY/5rhhINxKDOlMHLFIl++wCcv3pIBxgWvUgSCLqRXVD9Op1mVFZ3+QTyFR42GDO6OC3M9HS4OMbrrYairQ4B69Ye6bO2SUysvZP2FvmfCg9sdxvBw1/EgNGKh06d7BcqIBRvfIIZn3WPPHygAdILwe1FUe86REqh4YOl9fLBx1GHO/AfM885vsqHn/w2HPsdPKt7T9i2zZtuPEe6VoCXYKFxrRIIoQFXcL5STSbJ9WCoGKRInsHPdCMn5I5y/kUt053XU4MlyHwQh1nmwUOofkqUhP8XMAZjbm8WX0y2aU1JjcqdAyZMwlC/35YpD+gNYTfNmaTnpn5kS4zIfE2YSivcOsydBVjcN1Qh3E3JcJLR+sB8CeLsXeYFNsJEo8/JConjtdiqIm4T386q7lFlzkSe83wMhndBGXT6LKs+YFA82DBm4RNb9InfgQ36PMouWTSuH7D9kErKv9Gr+21lh0Hv0dinyyTryxMJVXi75HJe5/gO858S8cx2Tm5GCepxxaUVVcPsxzgYXlg1I08nNrSd33P4V7wT8WlvJ9KAnWDp8gxhwaUKPHDvj87CSfP0cNBhlpGk+8wP6tHg3BGjJunX9v8YyMJaRovBuZo2D9SjQyET8F0jEn0vegs0s4ZoLhBayaL8xfCBuJChmpQs+u43Qt6kK4fmPSb4XtEn8EBlNum8L/YfQcnVxqCm/KbfxqJddZP+lR5M8hHtlPvwijaB7z8KKjfIfNcN+TPB3aZOHdLHX1nuBt1JLScT+/GbezA411fKdWEGwLWvjZF0wSNP4a+ryBECbrOM0w/U24n5l71EgRdXLIdalCI9TWiLq/eXppAjtnhoUfSVKqPKO9ozVcHaZJVwv1JDnHv4ZwjkFFQ9nuQqdoqwjpVLKV2jhx1ONwrSfVB3L9QmT7rbYUMD482xMgtn1aya3SH1YXanHCc1sooJ3LBz0C5v5MzyKGbWSu7Gf1OOMufwk6HTS+LTZmNjJm852WdjQc9+5wjoYyT7DD3r4sGk0tntF1SJMwK2i8YEVN2TA7SExLx/1389eWhamuztMeCabtWL0QuDBqaD2pxASLhopjQlBB0qw9c7K9MekGYfpG7+eo+ljomA/ZRKyr/RqnttYYsc5hCyrQ2YS/ejpQAaVK46k3/Bn7MRlodaL3IIvDec828M/RhE/5jA8A8tk64fnnz+UmfFAh1JUT2ZhDA2r0rlxycBW5q+0VD7mMfB1jbchEgESJpCT+4Qn0TcvEcm6bmGFMFfXMT5VBRraH8JsiGqI+0bWZFJ6mkenoMbQtyHONpsYpYVzzK2TknUTVR8dw7EQT2sIRgN6qQpJnFAZobRE9wCPIq+MkLNerD9xiArxo6YhxWvDRJ2YselLtupemZ2LVTi1y6z5CVW0tPv3MEnwf4mgp32EzzPdE9mz1BHxWnG0dRYPLBzNDCSXf6JbEImXhSqwK4V5PuJM/UDzk3L5hont8FFrbyWdxp/xLZa6tu9yHTLo7ydM5ByQh+9mV0A/3HhK58LkYOeRk7qOnE2UUgtZhMqTcLXSAof0cgq1LEpJoKdviTlyJK6kiHFVrKFr+XI2WnGXuhZt0yDUqUVXi04CbmYOH1e6bgm1GRYUnAg0jK+o+s6BgpiugTb4/E8kSixAkkQZspjvLwNmBuuMWkE6qumYWGXMYcFNK7j2IFnGjVqPzBML+OmuiosyHiG1rR6dT585smo4EspDh2QD1gbMDpmE6ppgUFZL4OsnZhdazw4zW8i5YcPZrQMV1gDBIupv0uIm2lTlbiWNf5KCAKy8KPGTU4fcm3/nSPotGnaoeNoPFrxuorh6XttZ4cHag9QILuFfnZxQKfEOC4G2M4QQ9JnkuCNPY2PMWoeMlKBYtre1AljtbMkGFmVKIMvl8XDAH/rcJhga215Gjy8o93Pk2psK3Ao0aMleDzk2qyoRxaGfzhMSa/4Bdh1R45alUyLmHoGs59yXqLCx5vgdtpjrU1VTjyHEzRIMOIzNNgW947rQe2LpDfMCGitvwW4OZyUoo7pBBfvsUTLlVBqUndeXGR+Z8v6XaiBX8iLskHqr5eVhBfjmsaGmqRU11NapO+0vhvnHLtz8M2cyd/wenA/av+D+MnnSa3FOPgYxGGQwYblp9JDguizsLpZCRQJRLd2Yglwmdc5CrkW0MPj3CL76hHAkSBeS3Cwd2dNtIF8UY3Vxl26+uj3D41OPQzHd9/6qHc6AtEy98xyBj4YOeqSKOk5WjWrk2FG1kdeTvqlwjJ3enIj0BaONHfxg19Nzq0mQlyXqc+JL8pgcn6j/HijkkhVqJdL0KB8xC0K3JSPdsc2c7Xe+zuNQEKPNil+yiLcUYSLmUrACBbQhiZTKhnoNtBPWcFTaSwuke2ZdPc+3IIJyJFVUffY4n1K60dukcA7Kn+mzf5LVolBWfVgVa0Tq4G6muHpe21jhxXCHzctwt91vjua5U0WyLUQl4TIkCstuEQ9q6hTnkwyHPEFJuXWcqh+wOkk4/3E9NfJ7mNnUdtJrRyhqQ4b4/EtSpSJY0i3pwo8RkgBGVlM7TFag7P7Iml+OLanSEMIIz/lhYyrZgTWseCpbmIJtfzp2QxCM5zcD9WvKUGYcP7MPva31WygtFbKzoRmPBhmMydZwSGY/kwDg/Hdp7FYH3NLtZkIVBdq5F2+mlePKxbGgTRUGMVAFNVj73q8BSi6J9v8Vhce/9DV2+h4qNi+Ufydz+dOEojnznHMdhQc2nzbCJR+mG09eFhgah6ThqXh+GgTirgJkknCXb0YSqxvaRBY6XmlHnu5hbWDGIFU4RbL8rSB+Tm6xs+9eDuj/XoHO+aw9STM9G7pximI67OxinzoUxkx8RsaLqyGhXvg9B+zGcas+HiqzULLkHGToZyi640ueZ+7KQ4e6MbDslpMM6PquHqVeHjDhw+7KrDrlHbMgUlzR+hN8O04nPRcGXS/SXeZH+Pq/zZxhyM4y+E5iJE91M6AN7TfRewTj70Cdq3rjOw5utthp1T+mQTTrO4mbDuECBKtH2d16LRllqUfH56Oq2G6uuHoe21rhgwfaT79PdxpCIy9loBTtmrFf7m+0bQa5LXx/3jOPOUBIrWovkxiYKV6hxd7kZplYgY5b7ne/OxIN3F6NI6JCNDv19uELm+bi3ILCf/hAHysaevhhNbKZy7DWV463EVGQ/lAX9nHRoVe69cwm5GrmFm5AQ5723XUj6+iCsu8O4H5Sje9CRvjeV8Rm8+JQBKvf3wSGrQf6zHdYLVnTar8DRyyAl2yCkqd0UetBS9TY2Vh2CfNZcGLMfxLw5s6Hi9vR1kaqysGKTAtJNW4RFEm6C8u3Fq+jFgms/jtGVXtFBnR2oOXgw/HMUQ+H1YVj08fNjAVxxkEayuzFircfvD1R7X4rrjvVK9Wcmu1bNF13ZkbvZynYA7JkPccRswHIufTQe6f8zG/LjFdxgfsICA9LdKQysuRpHzgQ4SDg4O3DiVAeWzCATSN2r+x+uhoP83jcNmXe5DnV/ewYZOgZI0mFeUjEsZAuaRB3mJLlfdLkZJ/zMx47+Mi8yWdzhBly5OqaSD1ZcJ5F67pYQZ3pJYklftIffjujeJlQdsyI7l3QsMNA8ZEDyn4tdgxI+i0aZqr23nhsRr0twY9TVEW1rjQsGzGRRMMuGoQMy6DH7wAoNSDCxnnyr4cXGCusZOPtCmOt+Y4hkYhU1LCvq6kSr40qUMD6WKUqfiRLOdlhFe88p7uJ7iW887IVmVBXvx9aXn8OyH2/DgSqzaF6wDBlPLYV+BPUKx2YFl7nCiUeCQjSaOCIMNEs24tUX+KC2B2315XhrayGeenI5VhZuwMYdu7H3zbdx4FAlztwEKSf+sbCdqUXJm9vw0nPPYOUv96NMnIIsVeOJZaLtZW6i8k309diF+Y0SKaTiDpJRclitwsIsUgWSwnDM0Uhwpw1y+u3o9NRbLDq7PX8AM00hzJ2NFiQt/IpwMrG3S4VGyWjdZGU7MCuqKvntpQBmdg4Wkek0EhUeNvCrhfbAVFkx9oXUhkEWa+O3I2PUOmSQ54lEDX26e9TYk4bM60HDZ+5Foch2SZmuVZUSMtM9i8E4Ttej0SsIIiZAmRe7czq3DoeLfcxTdvrsonqOT8MMicJr6pXN7i/1k4XpaK0w11GVhYfvdR2cSRMtGuUgAbCwoN1I3ch1dUTaWuNiMhLkojbc13ZYx5yNGOSYTivsnoVA4UmND4VULp4iNJJ0/ImNBrbXWWd1pbAkNym085dhudcqfNHAjlaLMEIrV4tWF72BsReaULZvA9b8WrQ/5tRUZLgfYCFztKNVtOBMklpYYXpEZjyK5/PV7o4PO+r2rsXqHQdxuKljbAsXjDffh0BEayEWnaZqHNiyFjsqhQVjGM1sYX/Bm6x8sxesuOj5DmReC8ON2rlzaOcb1pIkzLpP9OAfN/FQ3StaSrXDAvHOBR1ftAsB/Z2puN/v6rjXUxc6rfxFBJg7lcLiN6N2c9bd/jiOV+JTPpWcdCIvTIV09reQTdKCie46lPHpyZFkqUcjP69WqkVGKgPMnosM9wKD4jRknu3kSc9ewGTbqQSJDPr7+Y3Ee2Cq9z+HM/rLvCAhJcUzXxhsOyzCtr+jwrZa0M7Xc5LpSJkZYp2UqMJMz1x3Fu2trf7f/3wFqjwpxgpkP0Lm3MZD/4ien54L24lq1I2hg/nGrau9hdTWcgJ9/PdJ6sfrtXglo3FNJXCzfWkROnVHK+gx7Wj9UugcYWa45+gPi4HmXj6lg6zmbMHZEWQxT2QRbVJSIXDUo+i/RUv0SxQw/uRlLFaJUh1CwiB5fh4WZ0ZguxoALZ81CzdvkCXub0S245Vo8ASmZM/UEX43znNe25BISY/uKEa0EuZkCtuNnK3AgWqhs2FC6bPBcZU/YwYJCn5+WyT1oOGoMFJCUlYZUe13U5VvEvB5HnAMZum03nNk/bmFCZ5JYmtEg2eT43ikG7I9jbtxM1WP7PuEe7OzudEzMkawpnqc4T83o8ZDj4iC4KjAouULofMFCanIELVLAmHiRHmTftxUZTsYstrxX4S9kOU6AxYv0HuCKUt1uc/iSxHitOBEI193x0OTqoaWXwSKXw3Zl60OdS3uTo/kdOiT0qH9prusO0w4MXS4lhP9ZZ6ngF7PB+pkI+xmzx7Xo9bdiL9yC3ARDLR6IeAMJnl+pmckHKwZpoB739rx6SdCFoBcR7ZqSse8VHcATaZk/MV/h0PIbtS6OoDgbS0buNkkbtJpiuDPpAghW3JleDpF7TA1ipcpH53gx2RhamoROmUTMzEvlMGVOJ2wJzZZQ/HzJiHD4AYnatpR10tb+T7vTaGnpmL5po1Yzq/wOhxGgeznXsW2Ncuw/OWtKFwQ/lRh9nQlqsi8Ho4Cxh/ku7ZPGM5UBRJGEcSNhWfMg2wrEbzNFxpGiin8ZvFOm9eoSmhYNBw9hk6+t1GqwxPfTx22yxHk4QAAE/VJREFUUpYmei8KJbtNlAPd0wNR1uJQ01RIGefrHjK2Ha3/FF6tvD/T07j0h5mZj8UPhCH4nRKPKXyNZ7Oh01NQMKHK95ixJjSYhEVZpOl5WBQsxpMokfuTpaIRbn+sqDoqNPKYtHw8tyCU74yBPFE0lz0QuRJJouI/FAPtd/NcaZ2E04Kaap8Gx+WTOFIv9Hyrcp/F4mCfm8fIkCCapx1JnadEjQ+JCsY818qrgUh1z2CVMXh9f1PX3T7ajlbCxHduTMvC4mx3Ge1tRtVRUaeCL26V9YXIzcmCJgyrzbccF/aOTrg3C9n8IlBD0pB5dpw46e4AZ+5BRl4qUtzPJEdzPRpEc8m9REWZlyHJvTVKIPL5S7GY326JNOQ/qh57SrizAx99Kkz1InXSE2lCx5df8iwU5AhbPjj+Wo0qT6f2UI7j1TjB/7s8FfrcdGjd9RT7RTWOnB36MyMyEevqsQja1urB2Ta+QwiuNP5gbZypqSjInT18p63IN+5UBu+QZVR44rtZwmu66lDlZ267WDiOyZ6qxAk+24S0v5cuRALflvGLgerxfOj56+PsQNVfhHsh7EIcPZerM2E0ZkE7TH0wVkEvDTVOnB0o+9U+VJG9sXhT1Vi85lfY/cuVWGJIRTJfQEWkiWpk56/Elt2/QmGOyhUoSWTQLkhHsuh1YeG0oKy41jNqy6jy8cqmpcgI1OCTKpH95Hrsf3MP9m9biaAVUDhddqCHDyAxHbNSxY0+BsmzVO5tfVykc5Zhwy/XoCDgSDeD5Nw8z+Ii6GxEQ/soTthcjqLPhGAiIedlvLKU32LIR5wS2S9sx2/27MHO53WeANjaLTTKkaIT9Rp6k2rzseG1lQH//frrwKnTQiOS0eZhRY7SzwMoHqqclXh901Jo/ZR/AQNN/hpsWb8M2TMCNFxIJsSjwiiizVSPFk85cQVCE6J8h0UP6v5SIzQc49QoKHwGej8NdmZ6Jpa/+hpW6IYPUh01xSgz83WYDPrntwr10hAM5No8rNrxJt7e87+xYbgIc7oBhT9bGmAxtHholvwc63KFKNVWU4oyT0ccj0VDcTEa+NRAKelAXI/FswKkKErioTE+gy179mD/nldRMCtA2Qqn89WoMvHXEJAbXsDaPHfd7iUeqtw12Ll2IZKHO60btO4elcu1KDsh1KN81oatrjJIABMP/aod+NWaZ7DiudX4953rYRTtSz4qX9SjgW+o3pPlSYf2l4bMs9Xz6cgMNFlz3Y3rHphONgqjOUNEQZmXqLBk/RosVvu/z+RzluGVVaJgoaMS734sfEdj0VlZjCP8o0aiQO6LP8eSQPf7NB2Wr/8R9PxoXK8ZZe/WBrm2pEe0CYdr+TdQYF5Ouvt5TYLzY0IdO2oTsK4OIBxtLcspUeagNBMFyzOFIFOEPFvWbfs5Fs8crnL0Js1ciVeey0SCvx+TqpD70/VY4jlmDxreKx02yyMsx2SbUfSe0HEsTXsKv3ghy/95kqA250Wse0zlaVPZyLN5rJ0sPmxfC+1ZRpXq6dDhyFXQ+ASvyXkb8ca2NVj1wmpseX07VkRwyiVdFTladNdj7yaAXfcCcj1zQRgkaA0oIL9IHeqww9HDggWDKbfLIPVz89maDuLV1yvGvKeWP47632JXmRIbFrtuGOmsfGzYY0BLUx3++kUX7I4+xEplUKhSkZGuRgI/ypmYDmOaDA214XlYBdXZjLPdgIZreDDQPLUV/z7jGP56kWT2PQi9Oh6WAy/h52Rp/qmZeO65PG6LhQytDtmmWnz0SS1O/d0KOxsL2V0qzMnOw+IFfAVhR9175d4BUcjsqHlrHzJS1iCbOzfSGN+IN+Y340R9MyydZIEKKeR3qzFvXqZ7c3hAmmlAxqEm1FwGbKfq0VKgdo2US3V4bv1KTPmvSjSc68QVTIHinlTMW5CD3PkqSPutsJyfAtUM/42J681SUY6GR/gODxkyntuO3Zm1qGk+B3tvLGQKFWbNmQttIgM47TCddkCbJgQuYsys72HV9zO5fSi19z+I3OPVqKptREu7FexkOVces7+dByPfoHGYUVY6NEVsQpTvMGFNpThQq8e6LFfAyqgWYt3udLQ0NuJMhx2OSVIoZqQi434V5AxgO12Ohtvygu9f7exAye63oXnV3anCZZJsR8bCZjScbkartQd9iIVUoYImLR0ZorKpefBBqMqLg6ZKkQ6bLb/OhKm+ESZLF7evtDThHmjn6L2OxXZUYO+BAFu2dFdj7z41tv3U4GoUkMbsa/+BRaZGNJwhi+T1oI+JhyJJg/szZkNFPjxHhexvzcZ7Z4aWm/CyourdD2G8L9897UCGjOXb8RtDExqaLei8BDByBVJS06FVxgNsB6oOWzEvV+gA82dClO2R1N2jxsL052pYDPlCuilJGa2sFzJ9fDFaPKQXdZBO1SF3gRJVJXxAMwpOM+oarcjNUbimRZBDBEpD5nXXoaHlKWi1/Mr6AHpbcKJBaGD6FQ1l3n2fPdRYh1P/7xysDkB623Sk3J8JvVY0farXgpI9f/DMJx4z1oyiXQeRsnmZq+EtT0XBa/+BB083orHZAuslB3CrjHt26vWpQpvFaUfDf+5GyZDOsaEsR4+hZdFS7rkslbqft7aTqApTe2ci1tVDhKmtxZ4uR5k5y726OZCwYA3eSGnCp/XN6LgESOXTkZKqR7qaZAGx6DzdDKSlBs0I80aCwjXYnW5GXV0jWi+4n4VJasyZK7TLCNvx32JvVSht2vAc01a1D3s0W1FoIPcLg2TDauzW5aHxZBPOfGmFY4BxPQ916chQCR3RrKUcu94O8DwcNRat5lawC9wL700zYO02OarqLXDcpoJ+ng7JPdXYumY/GkiGDFkpPEeUpcgoYczTo6iJrAgffjSwjSbd9XhrgwWmJc9iea5OqGTdGKmMZGr45+hATck+vFlujkhBcemB6Z3N2Hr1JyjM13ENXpKmp8lcCE2m/9PCZQuqDuzGW2Gq5IflNONPf2rGQ8+6byKJDJoFedCIflCTkwPNnw+i5Vo7TKctyDCQERHvToQhnD0w/fF17PkklIosAFs9dm3eDXbtShjdI4tSZSqM+al+f4DtqMXvd+3nglrOhUr8Z1kWtixxdyzMNGDFBgNW+P50dzNK9r6Osmk/wdurgqcyXjeksfWmGttedAcY5PqnGbAkzeeMHBZUvbkTb13Ox/40/2lCbLcZjWY7kmfJXOVxQT7IL78cFhze/TrK/LZJJ0D5Dhs76va9jqI7/hUFfMAfp4Bm/kKve4WkBbbVvo3/tbcWyhdzYBxu7v+Faux4hcWKNT+CUeVq5ElnpCKb/PJ77iw6T5Vi757SoEEt2Quy7FIqFqcpoTUoofV7LMBhqcCebW8Lo7J+2Or3Y/1OB9b9OA8aLhMgHgnaLOQGOihrh+nI77D3UKSDWhf2bDG271Vg8yqhR146Q4fsGTrvT3PZjJJd/4Yi23cwc6FOCNT8mgBleyR1tzjbYqTOV+Dw6UeximyfQ0o42eLHJ2vdS78NF8mC2onC38aLp4WMkulEI2w5C4URp4BpyDw76hrOoUCr9ozEsCQNmc9ACOK6lnmnGVV/BublqaGaY4BqToAT5cuzJ+sjPEjDfuumPhSueQp60lEKsj99FvfLL/6ZUyukvQZ1oRpVn+dD4y5PROeJCtQFSg8fsQlWV/sTtrZWB8p2v41Zm1d6MoxI3ZjrWzc67Wgp34ftf5Tiud+JOiyG0Xm8ApZvGqCfrkZ2njrwM6v2bby2V8hgDCZ8xyTlYAN2XH4Zq/LUXOYhI1dBn6OC3u8JsLA1lWLXr0uF6RdhZPu0FFV5qch114uMUofcfNEzSpqFRfOK0cAF/31eW9lxRHtFhxsNbKMNa0Xdu9tQ9ycVshfmIDszHdq7ZZ6UKS/OHnRaWtDwf6pRUVWPtkh0fQzRA1PJNqysz8TixTl4ME2NZM+ohhs5ry9a0PBZNSoqx+u8BJ2HX8ercS9g1WOZSBZ3BLB2tJysQMk7pa5RVzLasXcdThw1YMljOcjWuUanvDh70GaqQcUfS3H4zBiCWt6FWuxdZ0bdonxu4RLNjHhPI4VDrp3ZhLqaSpQdbRZtNUSwaCnejI2Xnsbz+Vmi0SQX9nIHTNXv4/d/rEUbeahOq0ejTSekVkUZ2/H9WPPVOSz/QT6yZ/nMs2TtsJyswLvvlLoW7pI3o8Vm8P9Zuupx4BcmfJr1HTz27Szo71UMvV96rWipq0ZJ8Ydo6BJSPYeK/vIdNr1mlLyyFq2PL8WSR+ZC4zWtgIXN0oSq0mK8d7yDG81i/2aGY76o1zUAlpTxtc2oWZiP3AVkP2jvueIEa7Og5XQTaj6pQI3J33YaPvosOLL1HZz49lL8MI/Mc+RHUl3YLjPq/vI+ij5s8po7HYjt1EH8/MVaGP8lH8a5WmgSfTMbWDg6zDA1NqGqshIN4mki46CzdjfWXGhGwffz8FCaElLxpCGHFaYTH+Ld4gq0kICLacHfulmopntfk6Giv2yHXHePhUQKhYy/Vj1oPPpR8JRRpxnvHSjHzOdyPOXObg0x6Amm5SQauhfCyE0BYNFy7Fjwzh0SMB2vhulxtXtqDwvTZ3Uhd2RfvzLvgKloJ947/SiWP/kd6N0dXh7u8lxSXAGTsCNXWLGWCmx/qRHanEex2KCHdobP84bUSd0WmI5/jJIy930VMjtqjp7Ecl2WKw2ZzO8/GqynZBQmUl3tTzjbWheqsX29FUueXoZFc33bbCw6z9TiTwffweEzJJNBiTN/74Fe61u/+8d2fYzt+z+G8clleOIh34CYhe1sE6o+EJ6JoQjrMUkmwTsb8OKxLCx+bCGydWokiNu4BGlDft6Ij468j7J617M7Inqb8fvXdgM/fhpGn/abo6MJn35QjKJqd5uZTIcprYX+eXdnrcOM994fJs1/DGJSvnnf4Bh+foip0ydj7pLbobjXtWpPzGAMEDPkZVFncNB1Gch/+tgBXHGw3O/Pn2JhOX4N166MpYt4jOJkSFAmQSGXQjqJnJ8DV7qtaP+nFY5gbfRxwUCaOB2K2+WYcguLKzY7rFFxXqTBJ0NyigqK20lD2orWcx3Br5ckHgmqFCTJpYidxMLxtRXt5zpgC1vP61AkrVA5XYEpt7qunf2fVi7FcngM5Co1UhRSxA44YLO2w3I+hAAhSjFyJVT3KLgsAIfNfd1HW7bjZFDdk4RvkH1AB1g4ujvQSlJ1RnULR3H5DivyOZVIUkjBOFnY28+hbdRfgI84GZITFZDdxgBXHbB3d6Kte5j0STDQF76JdVnuBon5IFauL3cHIAykSiVS7iCNUwcu/qMdlq7hjheccB8C7BUb7NYudF4ebQEMM6kMyXcmQTYFYC9Z0T7qsuwrisv2SOvuEWDmrMT+9e59rLsqsHH128POk3OJR+7GN7FC24WStYUosozgTaNQJMu81LgRh15wZyI5m7DryW2ocd9OzDQlVHcpMGVyH650t8PSbgc7qrp5DKQKqJQKTJHGAv0O2P/RHkKdFC2ira4ehXC1tciz/psqJMQz6Ou1ob313MjqbYkaK3Zv9Yw6tpWtw+p33De2+xwVt5EyYof1XEdox47EMQNiIFcqobhDhimSPlwhz4e28Y8LpNNVSLlbAWbAgYvtZlgCDB4w01TQ3BULa6sZnREciKMjthNBrx2dZ+3Be5WvGxaOCx2wXPCb23l9sXa0nWkKfb4x6ek62zyu15kE3BbbaHr/yYhaMxomeOOKx9o60GILUxnqtcNyxo7wXJooLt9hRT6nBS38/prh1GtHm8Ue+n04LDKaaoEpTMWFGP19OA4cdrSdDef140Vx2R5p3R0yGYyPCgsVWT6pDDGoBTBjIYz3MVzq8kfhqVyuq+tV5tnuDrR0h/HmHQ2HFRbzaJ670WAi1dUBhKutRZ71pqYwPet9hOscxcJ+TBa2DgvC1XQaLUeXBaau4StFLiuCX0U8gsQJThRFURRFUTcmdR4WznanIfc24XBliAGWRInFz3wHqslWVBVXjmvnJ0VRFBW6CAS2g560XpKGzKf4RrOJcI4URVEURY1WPLLzHuZWTydsdRWoCWlOJwPt0y+jQDsZbeW78XvRdkwURVFUdIlAKnIMYmJigEHy/0Hu9xMvcJwAk4IpiqIoigpN4kLkznHP2SZb/BwOdZXryWAYFp2f7Mdrh8yBtwWiKIqirruwB7YkiHWvw8Qhwe1EQeJxPiAXfwaKoiiKoiYqBto8g2sPcDKn+vNKHDkb6mfpQcOb69AQ6sspiqKo6ybsga1zEBjoH4DTORmTJBLXaO0EGQAlwazTOYiBficNbCmKoq4bFpZj76PoS9fq+rjYjJCyRinKr3jgy2oUvQtgwI4ztdV0nmwEOcyVOPBus2sru4EOWPoj+GYUNVpOK+rKi2F3b5lj+3sYnjKROCY1ImHf7ufWb0iQ9mg87tLEgWEmwWuvn2gOcN1BLcsO4OrVfjidTi6N+nxDFGz3Q1EURVEURVEURQUU9hFbDAD9/YNw9PTjau8AJknIAlIB3z+qcKO1TicGybAzyUvmU5MnygegKIqiKIqiKIq6CYU9sGV7nLB3DCDudgni5RIMDEycq+oJYLmR5UFc/qcTlzv70d9LAl3X/FuKoiiKoiiKoigquoQ9sB3oA7r+3gcyTCtLmoTJ8WSFZNcqyRMCGagdBK71ONH1RT/s7QNwTqDgnKIoiqIoiqIo6mYT9sCW+PofA9wo55WvnLhlCllAivztBMlHJiOzTqD38iDsHf1gr0yQ86YoiqIoiqIoirpJRSSwJRwXndwviqIoiqIoiqIoioqk/w/vQqdLEN2L1wAAAABJRU5ErkJggg==;" parent="1" vertex="1">
          <mxGeometry x="1639.45" y="270" width="340.55" height="96.79" as="geometry" />
        </mxCell>
        <mxCell id="SsztyFnTNsgpoEfSHxMF-63" value="Flight and Learning Capabilities" style="swimlane;fontStyle=0;childLayout=stackLayout;horizontal=1;startSize=30;horizontalStack=0;resizeParent=1;resizeParentMax=0;resizeLast=0;collapsible=1;marginBottom=0;whiteSpace=wrap;html=1;" parent="1" vertex="1">
          <mxGeometry x="1360" y="75" width="220" height="150" as="geometry" />
        </mxCell>
        <mxCell id="SsztyFnTNsgpoEfSHxMF-64" value="Indoors Flight" style="text;strokeColor=#666666;fillColor=#f5f5f5;align=left;verticalAlign=middle;spacingLeft=4;spacingRight=4;overflow=hidden;points=[[0,0.5],[1,0.5]];portConstraint=eastwest;rotatable=0;whiteSpace=wrap;html=1;fontColor=#333333;" parent="SsztyFnTNsgpoEfSHxMF-63" vertex="1">
          <mxGeometry y="30" width="220" height="30" as="geometry" />
        </mxCell>
        <mxCell id="SsztyFnTNsgpoEfSHxMF-65" value="Indoors Learning" style="text;strokeColor=#6c8ebf;fillColor=#dae8fc;align=left;verticalAlign=middle;spacingLeft=4;spacingRight=4;overflow=hidden;points=[[0,0.5],[1,0.5]];portConstraint=eastwest;rotatable=0;whiteSpace=wrap;html=1;" parent="SsztyFnTNsgpoEfSHxMF-63" vertex="1">
          <mxGeometry y="60" width="220" height="30" as="geometry" />
        </mxCell>
        <mxCell id="SsztyFnTNsgpoEfSHxMF-66" value="Outdoors Flight" style="text;strokeColor=#82b366;fillColor=#d5e8d4;align=left;verticalAlign=middle;spacingLeft=4;spacingRight=4;overflow=hidden;points=[[0,0.5],[1,0.5]];portConstraint=eastwest;rotatable=0;whiteSpace=wrap;html=1;" parent="SsztyFnTNsgpoEfSHxMF-63" vertex="1">
          <mxGeometry y="90" width="220" height="30" as="geometry" />
        </mxCell>
        <mxCell id="SsztyFnTNsgpoEfSHxMF-67" value="Outdoors Learning" style="text;strokeColor=#d79b00;fillColor=#ffe6cc;align=left;verticalAlign=middle;spacingLeft=4;spacingRight=4;overflow=hidden;points=[[0,0.5],[1,0.5]];portConstraint=eastwest;rotatable=0;whiteSpace=wrap;html=1;" parent="SsztyFnTNsgpoEfSHxMF-63" vertex="1">
          <mxGeometry y="120" width="220" height="30" as="geometry" />
        </mxCell>
        <mxCell id="SsztyFnTNsgpoEfSHxMF-68" value="" style="endArrow=classic;html=1;rounded=0;exitX=1;exitY=0.5;exitDx=0;exitDy=0;movable=0;resizable=0;rotatable=0;deletable=0;editable=0;locked=1;connectable=0;" parent="1" source="SsztyFnTNsgpoEfSHxMF-64" edge="1">
          <mxGeometry width="50" height="50" relative="1" as="geometry">
            <mxPoint x="1480" y="220" as="sourcePoint" />
            <mxPoint x="2091.777886284722" y="120" as="targetPoint" />
          </mxGeometry>
        </mxCell>
        <mxCell id="SsztyFnTNsgpoEfSHxMF-70" value="" style="endArrow=none;dashed=1;html=1;dashPattern=1 4;strokeWidth=1;rounded=0;movable=0;resizable=0;rotatable=0;deletable=0;editable=0;locked=1;connectable=0;" parent="1" edge="1">
          <mxGeometry width="50" height="50" relative="1" as="geometry">
            <mxPoint x="1650" y="240" as="sourcePoint" />
            <mxPoint x="1650" y="50" as="targetPoint" />
          </mxGeometry>
        </mxCell>
        <mxCell id="SsztyFnTNsgpoEfSHxMF-71" value="Current" style="text;html=1;align=center;verticalAlign=middle;whiteSpace=wrap;rounded=0;fontStyle=1" parent="1" vertex="1">
          <mxGeometry x="1620" y="25" width="60" height="30" as="geometry" />
        </mxCell>
        <mxCell id="SsztyFnTNsgpoEfSHxMF-72" value="Q2" style="text;html=1;align=center;verticalAlign=middle;whiteSpace=wrap;rounded=0;fontStyle=1" parent="1" vertex="1">
          <mxGeometry x="1700" y="25" width="60" height="30" as="geometry" />
        </mxCell>
        <mxCell id="SsztyFnTNsgpoEfSHxMF-61" value="" style="whiteSpace=wrap;html=1;aspect=fixed;fillColor=light-dark(#1a9900, #ededed);strokeColor=none;" parent="1" vertex="1">
          <mxGeometry x="1720" y="109.99999999999994" width="20" height="20" as="geometry" />
        </mxCell>
        <mxCell id="SsztyFnTNsgpoEfSHxMF-76" value="" style="endArrow=classic;html=1;rounded=0;exitX=1;exitY=0.5;exitDx=0;exitDy=0;movable=0;resizable=0;rotatable=0;deletable=0;editable=0;locked=1;connectable=0;" parent="1" edge="1">
          <mxGeometry width="50" height="50" relative="1" as="geometry">
            <mxPoint x="1580" y="180" as="sourcePoint" />
            <mxPoint x="2091.777886284722" y="180" as="targetPoint" />
          </mxGeometry>
        </mxCell>
        <mxCell id="SsztyFnTNsgpoEfSHxMF-77" value="" style="endArrow=classic;html=1;rounded=0;exitX=1;exitY=0.5;exitDx=0;exitDy=0;movable=0;resizable=0;rotatable=0;deletable=0;editable=0;locked=1;connectable=0;" parent="1" edge="1">
          <mxGeometry width="50" height="50" relative="1" as="geometry">
            <mxPoint x="1580" y="210" as="sourcePoint" />
            <mxPoint x="2091.777886284722" y="210" as="targetPoint" />
          </mxGeometry>
        </mxCell>
        <mxCell id="SsztyFnTNsgpoEfSHxMF-58" value="" style="whiteSpace=wrap;html=1;aspect=fixed;fillColor=light-dark(#e60000, #ededed);strokeColor=none;" parent="1" vertex="1">
          <mxGeometry x="1640" y="200" width="20" height="20" as="geometry" />
        </mxCell>
        <mxCell id="SsztyFnTNsgpoEfSHxMF-79" value="" style="whiteSpace=wrap;html=1;aspect=fixed;fillColor=light-dark(#ffae00, #ededed);strokeColor=none;" parent="1" vertex="1">
          <mxGeometry x="1640" y="110" width="20" height="20" as="geometry" />
        </mxCell>
        <mxCell id="SsztyFnTNsgpoEfSHxMF-59" value="" style="whiteSpace=wrap;html=1;aspect=fixed;fillColor=light-dark(#ffd500, #ededed);strokeColor=none;" parent="1" vertex="1">
          <mxGeometry x="1640" y="170" width="20" height="20" as="geometry" />
        </mxCell>
        <mxCell id="SsztyFnTNsgpoEfSHxMF-86" value="" style="endArrow=classic;html=1;rounded=0;exitX=1;exitY=0.5;exitDx=0;exitDy=0;movable=0;resizable=0;rotatable=0;deletable=0;editable=0;locked=1;connectable=0;" parent="1" edge="1">
          <mxGeometry width="50" height="50" relative="1" as="geometry">
            <mxPoint x="1580" y="149.44" as="sourcePoint" />
            <mxPoint x="2090" y="150" as="targetPoint" />
          </mxGeometry>
        </mxCell>
        <mxCell id="SsztyFnTNsgpoEfSHxMF-60" value="" style="whiteSpace=wrap;html=1;aspect=fixed;fillColor=light-dark(#ffae00, #ededed);strokeColor=none;" parent="1" vertex="1">
          <mxGeometry x="1640" y="140" width="20" height="20" as="geometry" />
        </mxCell>
        <mxCell id="SsztyFnTNsgpoEfSHxMF-87" value="" style="whiteSpace=wrap;html=1;aspect=fixed;fillColor=light-dark(#1a9900, #ededed);strokeColor=none;" parent="1" vertex="1">
          <mxGeometry x="1720" y="139.99999999999994" width="20" height="20" as="geometry" />
        </mxCell>
        <mxCell id="SsztyFnTNsgpoEfSHxMF-88" value="Q3" style="text;html=1;align=center;verticalAlign=middle;whiteSpace=wrap;rounded=0;fontStyle=1" parent="1" vertex="1">
          <mxGeometry x="1780" y="25" width="60" height="30" as="geometry" />
        </mxCell>
        <mxCell id="SsztyFnTNsgpoEfSHxMF-89" value="Q4" style="text;html=1;align=center;verticalAlign=middle;whiteSpace=wrap;rounded=0;fontStyle=1" parent="1" vertex="1">
          <mxGeometry x="1860" y="25" width="60" height="30" as="geometry" />
        </mxCell>
        <mxCell id="SsztyFnTNsgpoEfSHxMF-90" value="" style="whiteSpace=wrap;html=1;aspect=fixed;fillColor=light-dark(#ffae00, #ededed);strokeColor=none;" parent="1" vertex="1">
          <mxGeometry x="1800" y="170" width="20" height="20" as="geometry" />
        </mxCell>
        <mxCell id="SsztyFnTNsgpoEfSHxMF-91" value="" style="whiteSpace=wrap;html=1;aspect=fixed;fillColor=light-dark(#1a9900, #ededed);strokeColor=none;" parent="1" vertex="1">
          <mxGeometry x="1880" y="169.99999999999994" width="20" height="20" as="geometry" />
        </mxCell>
        <mxCell id="SsztyFnTNsgpoEfSHxMF-92" value="" style="whiteSpace=wrap;html=1;aspect=fixed;fillColor=light-dark(#ffd500, #ededed);strokeColor=none;" parent="1" vertex="1">
          <mxGeometry x="1720" y="200" width="20" height="20" as="geometry" />
        </mxCell>
        <mxCell id="SsztyFnTNsgpoEfSHxMF-93" value="" style="whiteSpace=wrap;html=1;aspect=fixed;fillColor=light-dark(#ffae00, #ededed);strokeColor=none;" parent="1" vertex="1">
          <mxGeometry x="1880" y="200" width="20" height="20" as="geometry" />
        </mxCell>
        <mxCell id="SsztyFnTNsgpoEfSHxMF-94" value="" style="whiteSpace=wrap;html=1;aspect=fixed;fillColor=light-dark(#1a9900, #ededed);strokeColor=none;" parent="1" vertex="1">
          <mxGeometry x="1960" y="199.99999999999994" width="20" height="20" as="geometry" />
        </mxCell>
        <mxCell id="SsztyFnTNsgpoEfSHxMF-95" value="Q1/26" style="text;html=1;align=center;verticalAlign=middle;whiteSpace=wrap;rounded=0;fontStyle=1" parent="1" vertex="1">
          <mxGeometry x="1940" y="25" width="60" height="30" as="geometry" />
        </mxCell>
        <mxCell id="SsztyFnTNsgpoEfSHxMF-101" value="Q4/26" style="text;html=1;align=center;verticalAlign=middle;whiteSpace=wrap;rounded=0;fontStyle=1" parent="1" vertex="1">
          <mxGeometry x="2020" y="25" width="60" height="30" as="geometry" />
        </mxCell>
        <mxCell id="SsztyFnTNsgpoEfSHxMF-102" value="..." style="text;html=1;align=center;verticalAlign=middle;resizable=0;points=[];autosize=1;strokeColor=none;fillColor=none;" parent="1" vertex="1">
          <mxGeometry x="1990" y="20" width="30" height="30" as="geometry" />
        </mxCell>
        <mxCell id="SsztyFnTNsgpoEfSHxMF-103" value="" style="endArrow=none;dashed=1;html=1;dashPattern=1 4;strokeWidth=1;rounded=0;movable=1;resizable=1;rotatable=1;deletable=1;editable=1;locked=0;connectable=1;" parent="1" source="SsztyFnTNsgpoEfSHxMF-104" edge="1">
          <mxGeometry width="50" height="50" relative="1" as="geometry">
            <mxPoint x="2049.44" y="245" as="sourcePoint" />
            <mxPoint x="2049.44" y="55" as="targetPoint" />
          </mxGeometry>
        </mxCell>
        <mxCell id="SsztyFnTNsgpoEfSHxMF-105" value="" style="endArrow=none;dashed=1;html=1;dashPattern=1 4;strokeWidth=1;rounded=0;movable=1;resizable=1;rotatable=1;deletable=1;editable=1;locked=0;connectable=1;" parent="1" target="SsztyFnTNsgpoEfSHxMF-104" edge="1">
          <mxGeometry width="50" height="50" relative="1" as="geometry">
            <mxPoint x="2049.44" y="245" as="sourcePoint" />
            <mxPoint x="2049.44" y="55" as="targetPoint" />
          </mxGeometry>
        </mxCell>
        <mxCell id="SsztyFnTNsgpoEfSHxMF-104" value="" style="whiteSpace=wrap;html=1;aspect=fixed;fillColor=light-dark(#1a9900, #ededed);strokeColor=none;" parent="1" vertex="1">
          <mxGeometry x="2040" y="199.99999999999994" width="20" height="20" as="geometry" />
        </mxCell>
        <mxCell id="SsztyFnTNsgpoEfSHxMF-106" value="Large drones" style="text;html=1;align=left;verticalAlign=middle;resizable=0;points=[];autosize=1;strokeColor=none;fillColor=none;" parent="1" vertex="1">
          <mxGeometry x="2060" y="211" width="90" height="30" as="geometry" />
        </mxCell>
        <mxCell id="SsztyFnTNsgpoEfSHxMF-108" value="" style="endArrow=classic;html=1;rounded=0;exitX=1.007;exitY=0.091;exitDx=0;exitDy=0;exitPerimeter=0;" parent="1" source="SsztyFnTNsgpoEfSHxMF-12" edge="1">
          <mxGeometry width="50" height="50" relative="1" as="geometry">
            <mxPoint x="1310" y="1000" as="sourcePoint" />
            <mxPoint x="1320" y="770" as="targetPoint" />
          </mxGeometry>
        </mxCell>
        <mxCell id="SsztyFnTNsgpoEfSHxMF-109" value="Revenue strictily re-invested in the product" style="text;html=1;align=center;verticalAlign=middle;whiteSpace=wrap;rounded=0;" parent="1" vertex="1">
          <mxGeometry x="1230" y="747" width="250" height="30" as="geometry" />
        </mxCell>
        <mxCell id="SsztyFnTNsgpoEfSHxMF-110" value="" style="endArrow=classic;html=1;rounded=0;exitX=1.003;exitY=0.061;exitDx=0;exitDy=0;exitPerimeter=0;" parent="1" source="SsztyFnTNsgpoEfSHxMF-7" edge="1">
          <mxGeometry width="50" height="50" relative="1" as="geometry">
            <mxPoint x="1165" y="926" as="sourcePoint" />
            <mxPoint x="1320" y="750" as="targetPoint" />
          </mxGeometry>
        </mxCell>
        <mxCell id="SsztyFnTNsgpoEfSHxMF-114" value="&lt;b&gt;Consultancy Services (Parallel Universe)&lt;/b&gt;" style="swimlane;fontStyle=0;childLayout=stackLayout;horizontal=1;startSize=30;horizontalStack=0;resizeParent=1;resizeParentMax=0;resizeLast=0;collapsible=1;marginBottom=0;whiteSpace=wrap;html=1;" parent="1" vertex="1">
          <mxGeometry x="1710" y="1200" width="370" height="320" as="geometry" />
        </mxCell>
        <mxCell id="SsztyFnTNsgpoEfSHxMF-115" value="&lt;b&gt;Traits&lt;/b&gt;:&lt;div&gt;&lt;ol&gt;&lt;li&gt;Avoid competitive markets, look for nesh applications.&lt;/li&gt;&lt;li&gt;High overlap with minimizing the cost of adding a new feature.&lt;/li&gt;&lt;li&gt;Prototype level -&amp;gt; evolvable to fully-fledged products.&lt;br&gt;&lt;/li&gt;&lt;li&gt;High-value only -&amp;gt; leave room for outsourcing non-core aspects.&lt;br&gt;&lt;/li&gt;&lt;/ol&gt;&lt;/div&gt;" style="text;strokeColor=none;fillColor=none;align=left;verticalAlign=middle;spacingLeft=4;spacingRight=4;overflow=hidden;points=[[0,0.5],[1,0.5]];portConstraint=eastwest;rotatable=0;whiteSpace=wrap;html=1;" parent="SsztyFnTNsgpoEfSHxMF-114" vertex="1">
          <mxGeometry y="30" width="370" height="150" as="geometry" />
        </mxCell>
        <mxCell id="SsztyFnTNsgpoEfSHxMF-116" value="&lt;b&gt;Suggested tech. applications (sorted by priority):&lt;/b&gt;&lt;div&gt;&lt;ol&gt;&lt;li&gt;Indoor applications (education, agri-tech, entertainment, monitoring).&lt;/li&gt;&lt;li&gt;High performance multirotor applications (landing on vessels, takeoff/land from moving platforms).&lt;/li&gt;&lt;li&gt;Custom shaped designs&lt;/li&gt;&lt;/ol&gt;&lt;/div&gt;" style="text;strokeColor=none;fillColor=none;align=left;verticalAlign=middle;spacingLeft=4;spacingRight=4;overflow=hidden;points=[[0,0.5],[1,0.5]];portConstraint=eastwest;rotatable=0;whiteSpace=wrap;html=1;" parent="SsztyFnTNsgpoEfSHxMF-114" vertex="1">
          <mxGeometry y="180" width="370" height="140" as="geometry" />
        </mxCell>
        <mxCell id="SsztyFnTNsgpoEfSHxMF-118" value="&lt;h1 style=&quot;margin-top: 0px;&quot;&gt;Marketing Substance&lt;/h1&gt;&lt;p&gt;&lt;/p&gt;&lt;ol&gt;&lt;li&gt;Educational Workshop&lt;/li&gt;&lt;li&gt;Consultancy Services&lt;/li&gt;&lt;li&gt;Clients updates&lt;/li&gt;&lt;li&gt;Development progress&lt;/li&gt;&lt;li&gt;Nice to share moments&lt;/li&gt;&lt;/ol&gt;&lt;div&gt;&lt;h1 style=&quot;margin-top: 0px;&quot;&gt;Marketing Channels&lt;/h1&gt;&lt;div&gt;&lt;ol&gt;&lt;li&gt;Website (super revamp needed)&lt;/li&gt;&lt;li&gt;Linkedin&lt;/li&gt;&lt;li&gt;Exhibitions&lt;/li&gt;&lt;li&gt;Workshops&lt;/li&gt;&lt;/ol&gt;&lt;/div&gt;&lt;p&gt;&lt;/p&gt;&lt;ol&gt;&lt;/ol&gt;&lt;/div&gt;&lt;p&gt;&lt;/p&gt;" style="text;html=1;whiteSpace=wrap;overflow=hidden;rounded=0;" parent="1" vertex="1">
          <mxGeometry x="1710" y="620" width="400" height="260" as="geometry" />
        </mxCell>
        <mxCell id="oeLX3F09LsfgoWPrlH3j-2" value="&lt;b&gt;Marketing Levels&lt;/b&gt;" style="swimlane;fontStyle=0;childLayout=stackLayout;horizontal=1;startSize=30;horizontalStack=0;resizeParent=1;resizeParentMax=0;resizeLast=0;collapsible=1;marginBottom=0;whiteSpace=wrap;html=1;" vertex="1" parent="1">
          <mxGeometry x="1700" y="890" width="400" height="120" as="geometry" />
        </mxCell>
        <mxCell id="oeLX3F09LsfgoWPrlH3j-3" value="Online Sales" style="text;strokeColor=none;fillColor=none;align=left;verticalAlign=middle;spacingLeft=4;spacingRight=4;overflow=hidden;points=[[0,0.5],[1,0.5]];portConstraint=eastwest;rotatable=0;whiteSpace=wrap;html=1;" vertex="1" parent="oeLX3F09LsfgoWPrlH3j-2">
          <mxGeometry y="30" width="400" height="30" as="geometry" />
        </mxCell>
        <mxCell id="oeLX3F09LsfgoWPrlH3j-4" value="Stencils" style="text;strokeColor=none;fillColor=none;align=left;verticalAlign=middle;spacingLeft=4;spacingRight=4;overflow=hidden;points=[[0,0.5],[1,0.5]];portConstraint=eastwest;rotatable=0;whiteSpace=wrap;html=1;" vertex="1" parent="oeLX3F09LsfgoWPrlH3j-2">
          <mxGeometry y="60" width="400" height="30" as="geometry" />
        </mxCell>
        <mxCell id="oeLX3F09LsfgoWPrlH3j-5" value="Consultancy Services" style="text;strokeColor=none;fillColor=none;align=left;verticalAlign=middle;spacingLeft=4;spacingRight=4;overflow=hidden;points=[[0,0.5],[1,0.5]];portConstraint=eastwest;rotatable=0;whiteSpace=wrap;html=1;" vertex="1" parent="oeLX3F09LsfgoWPrlH3j-2">
          <mxGeometry y="90" width="400" height="30" as="geometry" />
        </mxCell>
      </root>
    </mxGraphModel>
  </diagram>
</mxfile>
